
<svg id="svg" xmlns="http://www.w3.org/2000/svg">
    <path fill="rgba(0,0,0,0.1)" d="M24.989 3.250 C 23.899 5.038,23.006 6.838,23.004 7.250 C 23.002 7.662,54.694 8.000,93.432 8.000 L 163.864 8.000 165.768 5.250 C 166.815 3.738,167.997 1.938,168.395 1.250 C 168.971 0.255,154.622 0.000,98.044 0.000 L 26.971 0.000 24.989 3.250 M177.213 4.250 C 176.010 6.588,174.358 9.411,173.541 10.525 C 172.179 12.381,172.371 13.087,175.853 19.025 C 177.942 22.586,184.062 33.150,189.453 42.500 C 194.843 51.850,200.723 61.975,202.518 65.000 C 206.281 71.339,214.240 85.098,224.500 103.000 C 235.707 122.554,243.189 135.471,243.507 135.816 C 243.667 135.990,246.050 132.165,248.803 127.316 C 251.555 122.467,256.028 114.675,258.741 110.000 C 263.961 101.009,279.042 74.903,288.204 59.000 C 291.214 53.775,297.215 43.425,301.539 36.000 C 305.864 28.575,310.549 20.371,311.951 17.770 L 314.500 13.039 311.601 7.770 C 310.007 4.871,308.264 1.938,307.729 1.250 C 306.968 0.273,292.833 0.000,243.077 0.000 L 179.399 0.000 177.213 4.250 M500.633 3.979 C 499.185 6.167,498.000 8.195,498.000 8.485 C 498.000 8.776,529.991 8.898,569.092 8.757 L 640.183 8.500 642.693 4.250 L 645.203 -0.000 574.234 -0.000 L 503.266 0.000 500.633 3.979 M653.663 3.750 C 647.835 13.001,647.647 13.739,650.071 17.816 C 651.275 19.842,657.318 30.275,663.498 41.000 C 669.679 51.725,677.106 64.550,680.004 69.500 C 682.902 74.450,686.414 80.525,687.809 83.000 C 690.132 87.123,698.477 101.504,712.761 126.000 C 719.417 137.416,718.939 136.827,720.065 134.992 C 722.914 130.347,745.486 91.495,755.500 74.000 C 759.435 67.125,766.182 55.425,770.493 48.000 C 774.803 40.575,780.996 29.868,784.254 24.208 L 790.178 13.916 786.044 6.958 L 781.911 -0.000 718.968 -0.000 L 656.025 0.000 653.663 3.750 M23.000 18.423 C 23.000 18.839,32.356 35.341,43.170 54.000 C 46.199 59.225,52.198 69.575,56.503 77.000 C 69.794 99.927,83.174 123.193,86.983 130.000 C 88.984 133.575,91.264 137.512,92.051 138.750 L 93.481 141.000 164.241 141.000 C 203.158 141.000,235.000 140.770,235.000 140.489 C 235.000 140.041,226.072 124.432,210.984 98.500 C 208.423 94.100,202.947 84.650,198.814 77.500 C 194.681 70.350,186.875 56.850,181.467 47.500 C 176.058 38.150,170.057 27.688,168.131 24.250 L 164.628 18.000 93.814 18.000 C 54.866 18.000,23.000 18.190,23.000 18.423 M499.823 22.250 C 500.916 24.038,506.200 33.150,511.565 42.500 C 539.427 91.053,562.431 131.011,565.680 136.500 L 568.640 141.500 639.320 141.733 C 689.953 141.899,710.000 141.655,710.000 140.871 C 710.000 140.270,707.826 136.115,705.170 131.639 C 702.513 127.162,697.487 118.550,694.000 112.500 C 690.513 106.450,685.556 97.900,682.985 93.500 C 680.414 89.100,673.662 77.400,667.982 67.500 C 657.787 49.734,651.525 38.946,643.749 25.750 L 639.771 19.000 568.804 19.000 L 497.837 19.000 499.823 22.250 M330.242 24.250 C 329.691 24.938,323.927 34.725,317.434 46.000 C 299.149 77.751,289.021 95.302,280.502 110.000 C 268.361 130.945,262.416 141.297,261.119 143.750 L 259.930 146.000 330.715 145.958 L 401.500 145.915 403.925 142.208 C 407.144 137.286,417.714 119.132,451.204 61.000 C 454.214 55.775,460.182 45.425,464.466 38.000 C 468.750 30.575,472.449 24.163,472.687 23.750 C 472.924 23.337,441.197 23.000,402.181 23.000 C 346.634 23.000,331.027 23.271,330.242 24.250 M803.381 28.750 C 801.894 31.363,799.215 35.975,797.428 39.000 C 795.641 42.025,790.841 50.350,786.762 57.500 C 782.683 64.650,775.818 76.575,771.508 84.000 C 756.044 110.639,753.693 114.714,744.908 130.109 C 740.008 138.694,736.000 146.006,736.000 146.359 C 736.000 146.712,767.862 147.000,806.805 147.000 L 877.610 147.000 881.704 139.750 C 883.956 135.762,888.022 128.675,890.740 124.000 C 895.746 115.391,912.220 86.893,928.027 59.500 C 932.788 51.250,939.229 40.097,942.341 34.715 C 945.454 29.333,948.000 24.720,948.000 24.465 C 948.000 24.209,916.069 24.000,877.042 24.000 L 806.084 24.000 803.381 28.750 M2.720 31.774 L -0.000 36.771 -0.000 149.488 L -0.000 262.205 2.750 267.102 C 4.262 269.795,5.725 271.995,6.000 271.990 C 6.449 271.984,10.459 265.186,25.122 239.573 C 30.345 230.449,43.969 206.872,55.211 187.500 C 59.360 180.350,63.785 172.700,65.043 170.500 C 66.302 168.300,69.544 162.776,72.249 158.223 L 77.166 149.947 74.948 146.223 C 73.729 144.176,68.588 135.300,63.525 126.500 C 58.462 117.700,51.713 106.000,48.527 100.500 C 45.342 95.000,37.673 81.725,31.486 71.000 C 12.902 38.787,8.573 31.374,6.970 29.022 C 5.449 26.790,5.423 26.807,2.720 31.774 M480.249 29.250 C 479.701 29.938,477.473 33.650,475.298 37.500 C 473.122 41.350,468.861 48.775,465.828 54.000 C 462.795 59.225,450.299 80.825,438.060 102.000 C 425.820 123.175,414.465 142.617,412.827 145.205 L 409.849 149.911 418.074 164.205 C 432.986 190.123,440.273 202.728,459.003 235.000 C 465.227 245.725,472.523 258.325,475.217 263.000 C 477.910 267.675,480.481 271.871,480.930 272.323 C 481.379 272.776,482.846 271.201,484.189 268.823 C 485.532 266.446,490.162 258.425,494.477 251.000 C 505.532 231.979,511.950 220.882,522.523 202.500 C 527.585 193.700,534.082 182.450,536.960 177.500 C 546.142 161.707,552.000 151.244,552.000 150.634 C 552.000 150.063,541.846 132.191,525.503 104.000 C 521.198 96.575,515.214 86.225,512.204 81.000 C 509.194 75.775,502.429 64.075,497.172 55.000 C 491.915 45.925,486.316 36.138,484.731 33.250 C 483.147 30.362,481.714 28.000,481.547 28.000 C 481.381 28.000,480.797 28.563,480.249 29.250 M949.536 40.594 C 945.771 47.142,940.453 56.325,937.718 61.000 C 931.490 71.646,929.622 74.867,905.603 116.377 C 894.821 135.009,886.000 150.750,886.000 151.357 C 886.000 151.964,887.503 154.944,889.340 157.980 C 891.177 161.016,897.322 171.600,902.995 181.500 C 908.668 191.400,915.414 203.100,917.985 207.500 C 920.556 211.900,925.513 220.450,929.000 226.500 C 932.487 232.550,937.444 241.100,940.015 245.500 C 942.586 249.900,947.321 258.085,950.538 263.690 C 953.754 269.294,956.728 273.668,957.146 273.410 C 957.564 273.151,960.225 268.791,963.058 263.720 C 965.892 258.649,969.442 252.475,970.947 250.000 C 973.675 245.515,977.547 238.834,995.000 208.500 C 1006.868 187.873,1014.303 175.031,1021.883 162.068 L 1027.983 151.636 1025.869 148.068 C 1022.440 142.281,1004.486 111.225,984.494 76.500 C 967.862 47.613,959.318 32.957,957.940 30.955 C 956.411 28.732,956.247 28.921,949.536 40.594 M261.000 156.277 C 261.000 156.980,261.609 158.443,262.353 159.527 C 263.543 161.261,276.865 184.233,292.495 211.500 C 295.333 216.450,304.749 232.875,313.420 248.000 C 322.092 263.125,329.726 276.066,330.386 276.757 C 331.331 277.747,346.544 277.959,402.229 277.757 L 472.873 277.500 469.601 272.000 C 467.802 268.975,463.479 261.550,459.995 255.500 C 456.511 249.450,451.563 240.900,449.000 236.500 C 444.348 228.513,440.390 221.671,422.970 191.500 C 417.889 182.700,411.014 170.888,407.692 165.250 L 401.651 155.000 331.326 155.000 C 274.925 155.000,261.000 155.253,261.000 156.277 M736.000 156.531 C 736.000 157.242,737.079 159.132,770.813 217.500 C 789.183 249.283,796.551 262.085,801.173 270.250 L 806.127 279.000 877.064 279.000 C 916.079 279.000,948.000 278.791,948.000 278.535 C 948.000 278.124,945.300 273.382,933.460 253.000 C 931.702 249.975,927.730 243.113,924.632 237.750 C 921.535 232.387,916.465 223.613,913.368 218.250 C 910.270 212.887,906.298 206.025,904.540 203.000 C 894.392 185.531,889.421 176.952,884.403 168.244 C 881.314 162.885,878.329 157.938,877.771 157.250 C 876.976 156.271,861.471 156.000,806.378 156.000 C 767.670 156.000,736.000 156.239,736.000 156.531 M87.764 168.750 C 84.690 174.113,79.824 182.550,76.951 187.500 C 74.078 192.450,67.587 203.700,62.528 212.500 C 57.468 221.300,49.807 234.575,45.503 242.000 C 41.198 249.425,35.337 259.550,32.477 264.500 C 29.617 269.450,26.316 275.075,25.142 277.000 C 23.968 278.925,23.006 280.837,23.004 281.250 C 23.002 281.663,54.649 282.000,93.330 282.000 L 163.661 282.000 166.656 277.750 C 168.303 275.413,174.299 265.400,179.981 255.500 C 185.662 245.600,192.424 233.900,195.007 229.500 C 207.556 208.127,234.066 161.991,234.605 160.587 C 235.158 159.147,228.643 159.000,164.284 159.000 L 93.354 159.000 87.764 168.750 M1043.684 161.750 C 1043.446 162.162,1038.980 169.925,1033.760 179.000 C 1022.098 199.274,1014.988 211.607,1007.816 224.000 C 1004.793 229.225,997.909 241.150,992.520 250.500 C 987.131 259.850,980.542 271.212,977.879 275.750 L 973.036 284.000 1044.550 284.000 C 1111.737 284.000,1116.103 283.894,1116.729 282.250 C 1117.095 281.288,1126.011 265.650,1136.541 247.500 C 1147.071 229.350,1157.486 211.350,1159.685 207.500 C 1161.884 203.650,1166.234 196.115,1169.351 190.756 C 1182.242 168.592,1186.000 161.991,1186.000 161.509 C 1186.000 160.686,1044.160 160.927,1043.684 161.750 M240.304 169.185 C 238.699 172.108,233.085 181.925,227.828 191.000 C 222.571 200.075,215.674 212.000,212.503 217.500 C 209.332 223.000,204.393 231.550,201.528 236.500 C 180.999 271.970,176.849 279.257,174.927 283.213 L 172.758 287.677 184.247 307.589 C 197.091 329.851,204.676 342.961,212.835 357.000 C 221.692 372.243,231.247 388.740,237.450 399.500 C 240.621 405.000,243.347 409.642,243.507 409.816 C 243.667 409.990,246.050 406.165,248.803 401.316 C 251.555 396.467,256.027 388.675,258.739 384.000 C 261.452 379.325,267.198 369.425,271.508 362.000 C 278.679 349.648,286.703 335.746,298.058 316.000 C 300.430 311.875,304.781 304.454,307.727 299.509 C 310.673 294.565,313.320 289.572,313.611 288.415 C 313.964 287.009,312.248 283.027,308.435 276.406 C 300.734 263.032,284.927 235.651,278.181 224.000 C 269.391 208.818,254.022 182.110,249.698 174.500 C 243.019 162.747,243.643 163.100,240.304 169.185 M1176.462 196.705 C 1166.681 213.642,1156.320 231.550,1153.436 236.500 C 1150.552 241.450,1142.570 255.175,1135.699 267.000 L 1123.207 288.500 1126.254 294.000 C 1127.931 297.025,1131.541 303.325,1134.278 308.000 C 1137.015 312.675,1140.939 319.425,1142.998 323.000 C 1149.915 335.008,1157.687 348.430,1163.264 358.000 C 1166.310 363.225,1174.516 377.400,1181.501 389.500 C 1188.486 401.600,1194.327 411.634,1194.482 411.798 C 1194.637 411.962,1197.239 407.687,1200.265 402.298 C 1203.290 396.909,1209.944 385.300,1215.050 376.500 C 1220.156 367.700,1226.803 356.225,1229.821 351.000 C 1232.839 345.775,1237.649 337.450,1240.511 332.500 C 1257.645 302.857,1265.000 289.788,1265.000 288.983 C 1265.000 288.481,1262.584 283.892,1259.632 278.785 C 1256.679 273.678,1251.668 265.000,1248.497 259.500 C 1238.365 241.928,1223.853 216.797,1218.182 207.000 C 1215.157 201.775,1208.665 190.525,1203.755 182.000 C 1198.845 173.475,1194.696 166.367,1194.536 166.205 C 1194.375 166.043,1186.242 179.768,1176.462 196.705 M23.000 292.423 C 23.000 292.856,33.086 310.625,43.478 328.500 C 51.952 343.075,79.319 390.671,86.747 403.750 L 93.136 415.000 164.068 415.000 C 203.081 415.000,235.000 414.819,235.000 414.597 C 235.000 414.142,222.853 392.985,198.489 351.000 C 194.180 343.575,187.438 331.875,183.506 325.000 C 179.574 318.125,175.228 310.700,173.848 308.500 C 172.468 306.300,169.850 301.688,168.030 298.250 L 164.721 292.000 93.861 292.000 C 54.887 292.000,23.000 292.190,23.000 292.423 M974.424 295.662 C 974.775 296.576,977.228 300.964,979.876 305.412 C 982.523 309.861,989.329 321.600,995.000 331.500 C 1000.671 341.400,1007.421 353.100,1010.000 357.500 C 1012.579 361.900,1019.328 373.600,1024.998 383.500 C 1030.668 393.400,1037.348 404.988,1039.844 409.250 L 1044.381 417.000 1114.524 417.000 C 1153.102 417.000,1184.968 416.698,1185.337 416.330 C 1185.705 415.961,1185.330 414.626,1184.503 413.364 C 1182.890 410.903,1176.025 399.109,1164.500 379.000 C 1160.560 372.125,1154.858 362.225,1151.830 357.000 C 1140.724 337.839,1130.555 320.338,1126.846 314.000 C 1124.753 310.425,1121.344 304.466,1119.271 300.757 L 1115.500 294.013 1044.643 294.007 C 978.995 294.000,973.833 294.122,974.424 295.662 M330.241 298.250 C 329.689 298.938,326.414 304.450,322.962 310.500 C 316.992 320.965,309.511 333.954,302.517 346.000 C 299.708 350.838,287.392 372.164,270.177 402.000 C 267.162 407.225,263.599 413.416,262.258 415.757 L 259.822 420.013 331.079 419.757 L 402.337 419.500 407.281 411.000 C 410.001 406.325,414.951 397.775,418.283 392.000 C 421.614 386.225,426.446 377.900,429.020 373.500 C 432.772 367.086,471.120 300.583,472.700 297.750 C 472.930 297.337,441.197 297.000,402.181 297.000 C 346.634 297.000,331.027 297.271,330.241 298.250 M804.232 301.250 C 803.170 303.038,797.665 312.600,791.998 322.500 C 781.604 340.660,775.858 350.619,765.745 368.000 C 745.934 402.047,736.000 419.539,736.000 420.378 C 736.000 420.728,767.837 420.898,806.750 420.757 L 877.500 420.500 882.594 412.000 C 885.395 407.325,893.004 394.275,899.501 383.000 C 905.999 371.725,915.601 355.075,920.840 346.000 C 944.525 304.970,948.000 298.888,948.000 298.458 C 948.000 298.206,916.087 298.000,877.082 298.000 L 806.163 298.000 804.232 301.250 M480.249 303.250 C 479.701 303.938,477.474 307.650,475.300 311.500 C 473.126 315.350,466.926 326.150,461.523 335.500 C 456.121 344.850,448.320 358.350,444.188 365.500 C 440.057 372.650,434.270 382.660,431.329 387.744 C 428.387 392.829,423.467 401.379,420.394 406.744 C 417.322 412.110,413.679 418.166,412.301 420.202 L 409.794 423.905 418.316 438.702 C 427.994 455.507,433.331 464.740,444.500 484.000 C 455.353 502.714,470.479 528.993,475.707 538.216 C 478.113 542.460,480.473 546.174,480.952 546.471 C 481.432 546.767,482.905 545.095,484.227 542.755 C 485.549 540.415,490.162 532.425,494.477 525.000 C 505.532 505.979,511.950 494.882,522.523 476.500 C 527.585 467.700,534.082 456.450,536.960 451.500 C 545.630 436.589,552.000 425.255,552.000 424.741 C 552.000 424.475,549.590 420.036,546.644 414.878 C 541.898 406.570,537.406 398.770,516.480 362.500 C 513.624 357.550,507.122 346.300,502.030 337.500 C 496.939 328.700,490.292 317.113,487.259 311.750 C 484.227 306.387,481.633 302.000,481.495 302.000 C 481.358 302.000,480.797 302.563,480.249 303.250 M953.805 307.177 C 952.459 309.554,946.020 320.725,939.495 332.000 C 889.112 419.069,885.780 424.983,886.316 426.381 C 886.596 427.110,891.878 436.435,898.055 447.103 C 904.231 457.771,911.620 470.550,914.473 475.500 C 917.327 480.450,922.284 489.000,925.489 494.500 C 928.695 500.000,935.343 511.475,940.262 520.000 C 945.181 528.525,950.817 538.288,952.785 541.696 C 954.754 545.104,956.688 547.693,957.083 547.449 C 957.478 547.205,961.741 540.141,966.557 531.752 C 975.070 516.925,981.427 505.947,991.026 489.500 C 1010.942 455.373,1027.327 426.504,1027.297 425.592 C 1027.277 424.991,1024.125 419.100,1020.293 412.500 C 1012.806 399.609,1004.071 384.501,988.491 357.500 C 983.095 348.150,976.206 336.225,973.181 331.000 C 970.156 325.775,965.477 317.675,962.783 313.000 C 960.090 308.325,957.519 304.129,957.070 303.677 C 956.621 303.224,955.152 304.799,953.805 307.177 M261.000 430.049 C 261.000 430.956,272.373 451.041,293.532 487.500 C 296.724 493.000,302.558 503.125,306.495 510.000 C 321.182 535.641,329.281 549.536,330.249 550.750 C 331.029 551.729,346.641 552.000,402.237 552.000 L 473.230 552.000 471.772 549.750 C 470.970 548.513,464.991 538.275,458.485 527.000 C 451.980 515.725,445.219 504.025,443.461 501.000 C 441.703 497.975,437.799 491.225,434.786 486.000 C 428.633 475.331,417.843 456.727,408.689 441.000 C 405.327 435.225,402.109 430.169,401.538 429.765 C 399.823 428.552,261.000 428.832,261.000 430.049 M736.000 430.587 C 736.000 431.198,746.969 450.405,770.503 491.000 C 781.555 510.065,796.554 536.125,801.726 545.250 L 806.119 553.000 877.080 553.000 L 948.041 553.000 945.876 548.750 C 944.685 546.413,941.825 541.350,939.521 537.500 C 937.216 533.650,928.213 518.125,919.513 503.000 C 910.813 487.875,901.590 471.900,899.017 467.500 C 896.445 463.100,891.497 454.550,888.023 448.500 C 884.548 442.450,880.640 435.813,879.338 433.750 L 876.972 430.000 806.486 430.000 C 767.719 430.000,736.000 430.264,736.000 430.587 M87.764 442.750 C 84.690 448.113,79.832 456.550,76.970 461.500 C 63.673 484.496,48.364 511.011,45.503 516.000 C 43.769 519.025,37.996 529.018,32.675 538.208 C 27.354 547.397,23.000 555.159,23.000 555.458 C 23.000 555.756,54.655 556.000,93.345 556.000 C 159.088 556.000,163.791 555.886,165.227 554.250 C 166.540 552.756,178.838 531.820,201.793 492.000 C 204.805 486.775,211.564 475.075,216.812 466.000 C 230.235 442.793,235.000 434.306,235.000 433.606 C 235.000 433.273,203.130 433.000,164.177 433.000 L 93.354 433.000 87.764 442.750 M567.625 436.250 C 566.843 437.488,559.590 449.975,551.505 464.000 C 543.421 478.025,534.191 494.000,530.994 499.500 C 527.798 505.000,519.079 520.075,511.621 533.000 L 498.060 556.500 568.614 556.757 L 639.169 557.013 640.997 554.757 C 642.003 553.516,646.310 546.425,650.570 539.000 C 654.829 531.575,660.678 521.450,663.568 516.500 C 666.457 511.550,675.430 496.025,683.507 482.000 C 691.584 467.975,700.849 451.969,704.096 446.431 C 707.343 440.893,710.000 435.831,710.000 435.181 C 710.000 434.284,693.047 434.000,639.523 434.000 L 569.046 434.000 567.625 436.250 M232.056 457.821 C 225.811 468.645,218.586 481.100,216.001 485.500 C 213.417 489.900,203.301 507.450,193.523 524.500 C 183.745 541.550,174.892 556.732,173.851 558.239 C 171.972 560.955,171.976 561.008,174.331 564.739 C 175.637 566.807,179.548 573.450,183.023 579.500 C 186.497 585.550,191.437 594.100,194.000 598.500 C 199.993 608.789,208.455 623.434,220.000 643.500 C 227.995 657.395,236.296 671.652,242.018 681.315 L 243.685 684.130 251.965 669.815 C 256.520 661.942,261.717 653.025,263.514 650.000 C 266.916 644.275,272.009 635.471,287.522 608.500 C 292.584 599.700,299.502 587.775,302.897 582.000 C 306.292 576.225,310.242 569.200,311.675 566.388 L 314.281 561.277 310.824 554.888 C 307.685 549.088,300.781 537.080,280.704 502.500 C 276.872 495.900,272.070 487.575,270.032 484.000 C 258.285 463.389,245.527 441.275,244.546 439.821 C 243.590 438.407,241.619 441.248,232.056 457.821 M713.029 449.250 C 681.869 502.544,652.904 552.985,651.413 556.554 C 650.621 558.449,649.477 560.000,648.870 560.000 C 648.262 560.000,648.000 560.891,648.285 561.983 C 648.721 563.649,664.654 591.542,683.995 624.500 C 686.577 628.900,693.329 640.600,699.000 650.500 C 704.671 660.400,711.539 672.243,714.263 676.817 L 719.215 685.134 724.259 676.317 C 729.069 667.908,733.930 659.505,745.554 639.500 C 748.430 634.550,754.928 623.300,759.994 614.500 C 776.326 586.132,781.246 577.647,785.794 570.005 C 789.984 562.965,790.167 562.357,788.808 560.005 C 771.985 530.876,761.930 513.454,754.175 500.000 C 748.944 490.925,742.453 479.675,739.749 475.000 C 737.045 470.325,731.405 460.538,727.214 453.250 C 723.023 445.962,719.335 440.000,719.016 440.000 C 718.698 440.000,716.004 444.163,713.029 449.250 M23.000 566.589 C 23.000 566.913,26.676 573.551,31.170 581.339 C 35.663 589.128,41.660 599.550,44.496 604.500 C 47.332 609.450,53.038 619.350,57.176 626.500 C 77.030 660.805,84.708 674.122,88.737 681.250 L 93.119 689.000 164.060 689.000 C 203.077 689.000,235.000 688.849,235.000 688.665 C 235.000 688.175,218.453 659.352,196.727 622.000 C 184.509 600.993,172.336 579.906,168.585 573.250 L 164.500 566.001 93.750 566.000 C 54.837 566.000,23.000 566.265,23.000 566.589 M498.307 567.750 C 500.194 571.084,522.952 610.598,527.535 618.500 C 530.726 624.000,536.558 634.125,540.495 641.000 C 547.861 653.860,560.491 675.661,565.696 684.500 L 568.640 689.500 639.320 689.757 C 685.606 689.925,710.000 689.671,710.000 689.021 C 710.000 688.475,707.792 684.309,705.094 679.764 C 702.395 675.219,688.627 651.475,674.497 627.000 C 660.366 602.525,646.781 579.013,644.308 574.750 L 639.810 567.000 568.846 567.000 C 529.816 567.000,498.073 567.337,498.307 567.750 M326.233 579.250 C 323.537 583.788,320.301 589.300,319.041 591.500 C 315.689 597.355,299.187 625.920,292.465 637.500 C 285.644 649.253,279.195 660.434,268.528 679.000 C 264.262 686.425,260.571 692.837,260.327 693.250 C 260.082 693.663,292.093 694.000,331.462 694.000 L 403.043 694.000 404.234 691.250 C 405.624 688.041,455.675 601.000,468.658 579.215 C 471.046 575.208,473.000 571.720,473.000 571.465 C 473.000 571.209,441.080 571.000,402.067 571.000 L 331.134 571.000 326.233 579.250 M2.734 579.931 L 0.000 584.795 -0.000 697.500 L -0.000 810.205 2.750 815.102 C 4.262 817.795,5.725 819.994,6.000 819.989 C 6.275 819.983,10.956 812.221,16.403 802.740 C 21.849 793.258,28.410 781.900,30.983 777.500 C 36.150 768.662,43.111 756.626,57.009 732.500 C 62.078 723.700,68.691 712.303,71.704 707.174 L 77.182 697.849 71.722 688.674 C 68.719 683.628,61.879 671.850,56.520 662.500 C 51.162 653.150,44.420 641.450,41.537 636.500 C 38.655 631.550,33.576 622.775,30.250 617.000 C 12.975 587.000,6.800 576.433,6.167 575.784 C 5.782 575.390,4.238 577.256,2.734 579.931 M479.695 578.163 C 478.889 579.448,472.933 589.725,466.459 601.000 C 459.985 612.275,452.585 625.100,450.014 629.500 C 444.453 639.018,436.534 652.716,423.999 674.500 C 418.935 683.300,413.661 692.175,412.279 694.223 L 409.766 697.945 418.266 712.723 C 422.941 720.850,428.996 731.325,431.721 736.000 C 434.446 740.675,441.091 752.150,446.488 761.500 C 456.477 778.806,467.667 798.166,475.917 812.415 C 478.438 816.768,480.921 820.303,481.435 820.271 C 482.238 820.220,491.117 805.392,504.950 781.000 C 508.446 774.836,513.192 766.640,525.797 745.000 C 528.840 739.775,533.335 731.900,535.786 727.500 C 538.237 723.100,541.016 718.375,541.961 717.000 C 542.906 715.625,545.592 710.900,547.930 706.500 L 552.180 698.500 546.973 689.500 C 544.109 684.550,536.703 671.725,530.515 661.000 C 524.328 650.275,516.655 637.000,513.465 631.500 C 510.274 626.000,504.440 615.875,500.500 609.000 C 489.053 589.027,481.809 576.526,481.472 576.163 C 481.300 575.978,480.500 576.878,479.695 578.163 M261.000 704.112 C 261.000 705.144,263.639 709.889,278.180 735.000 C 281.206 740.225,288.095 752.150,293.491 761.500 C 298.886 770.850,306.680 784.350,310.812 791.500 C 314.943 798.650,320.780 808.775,323.783 814.000 C 326.785 819.225,329.693 824.063,330.243 824.750 C 331.028 825.729,346.644 826.000,402.237 826.000 L 473.230 826.000 471.426 823.250 C 470.434 821.737,466.395 814.875,462.452 808.000 C 454.989 794.988,443.968 775.934,434.978 760.500 C 427.063 746.913,406.910 711.986,404.633 707.911 L 402.628 704.322 353.150 703.661 C 280.795 702.694,261.000 702.791,261.000 704.112 M2.734 853.931 L 0.000 858.795 0.000 969.397 L 0.000 1080.000 7.465 1080.000 C 14.195 1080.000,15.044 1079.778,16.093 1077.750 C 17.675 1074.693,35.372 1043.940,39.815 1036.530 C 41.783 1033.247,45.031 1027.622,47.031 1024.030 C 50.679 1017.479,60.008 1001.358,71.187 982.284 L 77.175 972.067 72.253 963.784 C 69.546 959.228,66.296 953.700,65.031 951.500 C 63.766 949.300,58.590 940.300,53.530 931.500 C 48.469 922.700,40.939 909.650,36.796 902.500 C 32.654 895.350,24.224 880.725,18.063 870.000 C 11.903 859.275,6.549 850.178,6.165 849.784 C 5.782 849.390,4.238 851.256,2.734 853.931 "/>
</svg>