<svg viewBox="-5 0 1920 1080" xmlns="http://www.w3.org/2000/svg">
 <defs>
  <filter height="200%" width="200%" y="-50%" x="-50%" id="svg_1_blur">
   <feGaussianBlur stdDeviation="10" in="SourceGraphic"/>
  </filter>
 </defs>
 <g>
  <title>background</title>
  <rect fill="none" id="canvas_background" height="402" width="582" y="-1" x="-1"/>
 </g>
 <g>
  <title>Layer 1</title>
  <path fill="rgba(128,128,128,0.2)" filter="url(#svg_1_blur)" id="svg_1" d="m24.989,3.25c-1.09,1.788 -1.983,3.588 -1.985,4c-0.002,0.412 31.69,0.75 70.428,0.75l70.432,0l1.904,-2.75c1.047,-1.512 2.229,-3.312 2.627,-4c0.576,-0.995 -13.773,-1.25 -70.351,-1.25l-71.073,0l-1.982,3.25m152.224,1c-1.203,2.338 -2.855,5.161 -3.672,6.275c-1.362,1.856 -1.17,2.562 2.312,8.5c2.089,3.561 8.209,14.125 13.6,23.475c5.39,9.35 11.27,19.475 13.065,22.5c3.763,6.339 11.722,20.098 21.982,38c11.207,19.554 18.689,32.471 19.007,32.816c0.16,0.174 2.543,-3.651 5.296,-8.5c2.752,-4.849 7.225,-12.641 9.938,-17.316c5.22,-8.991 20.301,-35.097 29.463,-51c3.01,-5.225 9.011,-15.575 13.335,-23c4.325,-7.425 9.01,-15.629 10.412,-18.23l2.549,-4.731l-2.899,-5.269c-1.594,-2.899 -3.337,-5.832 -3.872,-6.52c-0.761,-0.977 -14.896,-1.25 -64.652,-1.25l-63.678,0l-2.186,4.25m323.42,-0.271c-1.448,2.188 -2.633,4.216 -2.633,4.506c0,0.291 31.991,0.413 71.092,0.272l71.091,-0.257l2.51,-4.25l2.51,-4.25l-70.969,0l-70.968,0l-2.633,3.979m153.03,-0.229c-5.828,9.251 -6.016,9.989 -3.592,14.066c1.204,2.026 7.247,12.459 13.427,23.184c6.181,10.725 13.608,23.55 16.506,28.5c2.898,4.95 6.41,11.025 7.805,13.5c2.323,4.123 10.668,18.504 24.952,43c6.656,11.416 6.178,10.827 7.304,8.992c2.849,-4.645 25.421,-43.497 35.435,-60.992c3.935,-6.875 10.682,-18.575 14.993,-26c4.31,-7.425 10.503,-18.132 13.761,-23.792l5.924,-10.292l-4.134,-6.958l-4.133,-6.958l-62.943,0l-62.943,0l-2.362,3.75m-630.663,14.673c0,0.416 9.356,16.918 20.17,35.577c3.029,5.225 9.028,15.575 13.333,23c13.291,22.927 26.671,46.193 30.48,53c2.001,3.575 4.281,7.512 5.068,8.75l1.43,2.25l70.76,0c38.917,0 70.759,-0.23 70.759,-0.511c0,-0.448 -8.928,-16.057 -24.016,-41.989c-2.561,-4.4 -8.037,-13.85 -12.17,-21c-4.133,-7.15 -11.939,-20.65 -17.347,-30c-5.409,-9.35 -11.41,-19.812 -13.336,-23.25l-3.503,-6.25l-70.814,0c-38.948,0 -70.814,0.19 -70.814,0.423m476.823,3.827c1.093,1.788 6.377,10.9 11.742,20.25c27.862,48.553 50.866,88.511 54.115,94l2.96,5l70.68,0.233c50.633,0.166 70.68,-0.078 70.68,-0.862c0,-0.601 -2.174,-4.756 -4.83,-9.232c-2.657,-4.477 -7.683,-13.089 -11.17,-19.139c-3.487,-6.05 -8.444,-14.6 -11.015,-19c-2.571,-4.4 -9.323,-16.1 -15.003,-26c-10.195,-17.766 -16.457,-28.554 -24.233,-41.75l-3.978,-6.75l-70.967,0l-70.967,0l1.986,3.25m-169.581,2c-0.551,0.688 -6.315,10.475 -12.808,21.75c-18.285,31.751 -28.413,49.302 -36.932,64c-12.141,20.945 -18.086,31.297 -19.383,33.75l-1.189,2.25l70.785,-0.042l70.785,-0.043l2.425,-3.707c3.219,-4.922 13.789,-23.076 47.279,-81.208c3.01,-5.225 8.978,-15.575 13.262,-23c4.284,-7.425 7.983,-13.837 8.221,-14.25c0.237,-0.413 -31.49,-0.75 -70.506,-0.75c-55.547,0 -71.154,0.271 -71.939,1.25m473.139,4.5c-1.487,2.613 -4.166,7.225 -5.953,10.25c-1.787,3.025 -6.587,11.35 -10.666,18.5c-4.079,7.15 -10.944,19.075 -15.254,26.5c-15.464,26.639 -17.815,30.714 -26.6,46.109c-4.9,8.585 -8.908,15.897 -8.908,16.25c0,0.353 31.862,0.641 70.805,0.641l70.805,0l4.094,-7.25c2.252,-3.988 6.318,-11.075 9.036,-15.75c5.006,-8.609 21.48,-37.107 37.287,-64.5c4.761,-8.25 11.202,-19.403 14.314,-24.785c3.113,-5.382 5.659,-9.995 5.659,-10.25c0,-0.256 -31.931,-0.465 -70.958,-0.465l-70.958,0l-2.703,4.75m-800.661,3.024l-2.72,4.997l0,112.717l0,112.717l2.75,4.897c1.512,2.693 2.975,4.893 3.25,4.888c0.449,-0.006 4.459,-6.804 19.122,-32.417c5.223,-9.124 18.847,-32.701 30.089,-52.073c4.149,-7.15 8.574,-14.8 9.832,-17c1.259,-2.2 4.501,-7.724 7.206,-12.277l4.917,-8.276l-2.218,-3.724c-1.219,-2.047 -6.36,-10.923 -11.423,-19.723c-5.063,-8.8 -11.812,-20.5 -14.998,-26c-3.185,-5.5 -10.854,-18.775 -17.041,-29.5c-18.584,-32.213 -22.913,-39.626 -24.516,-41.978c-1.521,-2.232 -1.547,-2.215 -4.25,2.752m477.529,-2.524c-0.548,0.688 -2.776,4.4 -4.951,8.25c-2.176,3.85 -6.437,11.275 -9.47,16.5c-3.033,5.225 -15.529,26.825 -27.768,48c-12.24,21.175 -23.595,40.617 -25.233,43.205l-2.978,4.706l8.225,14.294c14.912,25.918 22.199,38.523 40.929,70.795c6.224,10.725 13.52,23.325 16.214,28c2.693,4.675 5.264,8.871 5.713,9.323c0.449,0.453 1.916,-1.122 3.259,-3.5c1.343,-2.377 5.973,-10.398 10.288,-17.823c11.055,-19.021 17.473,-30.118 28.046,-48.5c5.062,-8.8 11.559,-20.05 14.437,-25c9.182,-15.793 15.04,-26.256 15.04,-26.866c0,-0.571 -10.154,-18.443 -26.497,-46.634c-4.305,-7.425 -10.289,-17.775 -13.299,-23c-3.01,-5.225 -9.775,-16.925 -15.032,-26c-5.257,-9.075 -10.856,-18.862 -12.441,-21.75c-1.584,-2.888 -3.017,-5.25 -3.184,-5.25c-0.166,0 -0.75,0.563 -1.298,1.25m469.287,11.344c-3.765,6.548 -9.083,15.731 -11.818,20.406c-6.228,10.646 -8.096,13.867 -32.115,55.377c-10.782,18.632 -19.603,34.373 -19.603,34.98c0,0.607 1.503,3.587 3.34,6.623c1.837,3.036 7.982,13.62 13.655,23.52c5.673,9.9 12.419,21.6 14.99,26c2.571,4.4 7.528,12.95 11.015,19c3.487,6.05 8.444,14.6 11.015,19c2.571,4.4 7.306,12.585 10.523,18.19c3.216,5.604 6.19,9.978 6.608,9.72c0.418,-0.259 3.079,-4.619 5.912,-9.69c2.834,-5.071 6.384,-11.245 7.889,-13.72c2.728,-4.485 6.6,-11.166 24.053,-41.5c11.868,-20.627 19.303,-33.469 26.883,-46.432l6.1,-10.432l-2.114,-3.568c-3.429,-5.787 -21.383,-36.843 -41.375,-71.568c-16.632,-28.887 -25.176,-43.543 -26.554,-45.545c-1.529,-2.223 -1.693,-2.034 -8.404,9.639m-688.536,115.683c0,0.703 0.609,2.166 1.353,3.25c1.19,1.734 14.512,24.706 30.142,51.973c2.838,4.95 12.254,21.375 20.925,36.5c8.672,15.125 16.306,28.066 16.966,28.757c0.945,0.99 16.158,1.202 71.843,1l70.644,-0.257l-3.272,-5.5c-1.799,-3.025 -6.122,-10.45 -9.606,-16.5c-3.484,-6.05 -8.432,-14.6 -10.995,-19c-4.652,-7.987 -8.61,-14.829 -26.03,-45c-5.081,-8.8 -11.956,-20.612 -15.278,-26.25l-6.041,-10.25l-70.325,0c-56.401,0 -70.326,0.253 -70.326,1.277m475,0.254c0,0.711 1.079,2.601 34.813,60.969c18.37,31.783 25.738,44.585 30.36,52.75l4.954,8.75l70.937,0c39.015,0 70.936,-0.209 70.936,-0.465c0,-0.411 -2.7,-5.153 -14.54,-25.535c-1.758,-3.025 -5.73,-9.887 -8.828,-15.25c-3.097,-5.363 -8.167,-14.137 -11.264,-19.5c-3.098,-5.363 -7.07,-12.225 -8.828,-15.25c-10.148,-17.469 -15.119,-26.048 -20.137,-34.756c-3.089,-5.359 -6.074,-10.306 -6.632,-10.994c-0.795,-0.979 -16.3,-1.25 -71.393,-1.25c-38.708,0 -70.378,0.239 -70.378,0.531m-648.236,12.219c-3.074,5.363 -7.94,13.8 -10.813,18.75c-2.873,4.95 -9.364,16.2 -14.423,25c-5.06,8.8 -12.721,22.075 -17.025,29.5c-4.305,7.425 -10.166,17.55 -13.026,22.5c-2.86,4.95 -6.161,10.575 -7.335,12.5c-1.174,1.925 -2.136,3.837 -2.138,4.25c-0.002,0.413 31.645,0.75 70.326,0.75l70.331,0l2.995,-4.25c1.647,-2.337 7.643,-12.35 13.325,-22.25c5.681,-9.9 12.443,-21.6 15.026,-26c12.549,-21.373 39.059,-67.509 39.598,-68.913c0.553,-1.44 -5.962,-1.587 -70.321,-1.587l-70.93,0l-5.59,9.75m955.92,-7c-0.238,0.412 -4.704,8.175 -9.924,17.25c-11.662,20.274 -18.772,32.607 -25.944,45c-3.023,5.225 -9.907,17.15 -15.296,26.5c-5.389,9.35 -11.978,20.712 -14.641,25.25l-4.843,8.25l71.514,0c67.187,0 71.553,-0.106 72.179,-1.75c0.366,-0.962 9.282,-16.6 19.812,-34.75c10.53,-18.15 20.945,-36.15 23.144,-40c2.199,-3.85 6.549,-11.385 9.666,-16.744c12.891,-22.164 16.649,-28.765 16.649,-29.247c0,-0.823 -141.84,-0.582 -142.316,0.241m-803.38,7.435c-1.605,2.923 -7.219,12.74 -12.476,21.815c-5.257,9.075 -12.154,21 -15.325,26.5c-3.171,5.5 -8.11,14.05 -10.975,19c-20.529,35.47 -24.679,42.757 -26.601,46.713l-2.169,4.464l11.489,19.912c12.844,22.262 20.429,35.372 28.588,49.411c8.857,15.243 18.412,31.74 24.615,42.5c3.171,5.5 5.897,10.142 6.057,10.316c0.16,0.174 2.543,-3.651 5.296,-8.5c2.752,-4.849 7.224,-12.641 9.936,-17.316c2.713,-4.675 8.459,-14.575 12.769,-22c7.171,-12.352 15.195,-26.254 26.55,-46c2.372,-4.125 6.723,-11.546 9.669,-16.491c2.946,-4.944 5.593,-9.937 5.884,-11.094c0.353,-1.406 -1.363,-5.388 -5.176,-12.009c-7.701,-13.374 -23.508,-40.755 -30.254,-52.406c-8.79,-15.182 -24.159,-41.89 -28.483,-49.5c-6.679,-11.753 -6.055,-11.4 -9.394,-5.315m936.158,27.52c-9.781,16.937 -20.142,34.845 -23.026,39.795c-2.884,4.95 -10.866,18.675 -17.737,30.5l-12.492,21.5l3.047,5.5c1.677,3.025 5.287,9.325 8.024,14c2.737,4.675 6.661,11.425 8.72,15c6.917,12.008 14.689,25.43 20.266,35c3.046,5.225 11.252,19.4 18.237,31.5c6.985,12.1 12.826,22.134 12.981,22.298c0.155,0.164 2.757,-4.111 5.783,-9.5c3.025,-5.389 9.679,-16.998 14.785,-25.798c5.106,-8.8 11.753,-20.275 14.771,-25.5c3.018,-5.225 7.828,-13.55 10.69,-18.5c17.134,-29.643 24.489,-42.712 24.489,-43.517c0,-0.502 -2.416,-5.091 -5.368,-10.198c-2.953,-5.107 -7.964,-13.785 -11.135,-19.285c-10.132,-17.572 -24.644,-42.703 -30.315,-52.5c-3.025,-5.225 -9.517,-16.475 -14.427,-25c-4.91,-8.525 -9.059,-15.633 -9.219,-15.795c-0.161,-0.162 -8.294,13.563 -18.074,30.5m-1153.462,95.718c0,0.433 10.086,18.202 20.478,36.077c8.474,14.575 35.841,62.171 43.269,75.25l6.389,11.25l70.932,0c39.013,0 70.932,-0.181 70.932,-0.403c0,-0.455 -12.147,-21.612 -36.511,-63.597c-4.309,-7.425 -11.051,-19.125 -14.983,-26c-3.932,-6.875 -8.278,-14.3 -9.658,-16.5c-1.38,-2.2 -3.998,-6.812 -5.818,-10.25l-3.309,-6.25l-70.86,0c-38.974,0 -70.861,0.19 -70.861,0.423m951.424,3.239c0.351,0.914 2.804,5.302 5.452,9.75c2.647,4.449 9.453,16.188 15.124,26.088c5.671,9.9 12.421,21.6 15,26c2.579,4.4 9.328,16.1 14.998,26c5.67,9.9 12.35,21.488 14.846,25.75l4.537,7.75l70.143,0c38.578,0 70.444,-0.302 70.813,-0.67c0.368,-0.369 -0.007,-1.704 -0.834,-2.966c-1.613,-2.461 -8.478,-14.255 -20.003,-34.364c-3.94,-6.875 -9.642,-16.775 -12.67,-22c-11.106,-19.161 -21.275,-36.662 -24.984,-43c-2.093,-3.575 -5.502,-9.534 -7.575,-13.243l-3.771,-6.744l-70.857,-0.006c-65.648,-0.007 -70.81,0.115 -70.219,1.655m-644.183,2.588c-0.552,0.688 -3.827,6.2 -7.279,12.25c-5.97,10.465 -13.451,23.454 -20.445,35.5c-2.809,4.838 -15.125,26.164 -32.34,56c-3.015,5.225 -6.578,11.416 -7.919,13.757l-2.436,4.256l71.257,-0.256l71.258,-0.257l4.944,-8.5c2.72,-4.675 7.67,-13.225 11.002,-19c3.331,-5.775 8.163,-14.1 10.737,-18.5c3.752,-6.414 42.1,-72.917 43.68,-75.75c0.23,-0.413 -31.503,-0.75 -70.519,-0.75c-55.547,0 -71.154,0.271 -71.94,1.25m473.991,3c-1.062,1.788 -6.567,11.35 -12.234,21.25c-10.394,18.16 -16.14,28.119 -26.253,45.5c-19.811,34.047 -29.745,51.539 -29.745,52.378c0,0.35 31.837,0.52 70.75,0.379l70.75,-0.257l5.094,-8.5c2.801,-4.675 10.41,-17.725 16.907,-29c6.498,-11.275 16.1,-27.925 21.339,-37c23.685,-41.03 27.16,-47.112 27.16,-47.542c0,-0.252 -31.913,-0.458 -70.918,-0.458l-70.919,0l-1.931,3.25m-323.983,2c-0.548,0.688 -2.775,4.4 -4.949,8.25c-2.174,3.85 -8.374,14.65 -13.777,24c-5.402,9.35 -13.203,22.85 -17.335,30c-4.131,7.15 -9.918,17.16 -12.859,22.244c-2.942,5.085 -7.862,13.635 -10.935,19c-3.072,5.366 -6.715,11.422 -8.093,13.458l-2.507,3.703l8.522,14.797c9.678,16.805 15.015,26.038 26.184,45.298c10.853,18.714 25.979,44.993 31.207,54.216c2.406,4.244 4.766,7.958 5.245,8.255c0.48,0.296 1.953,-1.376 3.275,-3.716c1.322,-2.34 5.935,-10.33 10.25,-17.755c11.055,-19.021 17.473,-30.118 28.046,-48.5c5.062,-8.8 11.559,-20.05 14.437,-25c8.67,-14.911 15.04,-26.245 15.04,-26.759c0,-0.266 -2.41,-4.705 -5.356,-9.863c-4.746,-8.308 -9.238,-16.108 -30.164,-52.378c-2.856,-4.95 -9.358,-16.2 -14.45,-25c-5.091,-8.8 -11.738,-20.387 -14.771,-25.75c-3.032,-5.363 -5.626,-9.75 -5.764,-9.75c-0.137,0 -0.698,0.563 -1.246,1.25m473.556,3.927c-1.346,2.377 -7.785,13.548 -14.31,24.823c-50.383,87.069 -53.715,92.983 -53.179,94.381c0.28,0.729 5.562,10.054 11.739,20.722c6.176,10.668 13.565,23.447 16.418,28.397c2.854,4.95 7.811,13.5 11.016,19c3.206,5.5 9.854,16.975 14.773,25.5c4.919,8.525 10.555,18.288 12.523,21.696c1.969,3.408 3.903,5.997 4.298,5.753c0.395,-0.244 4.658,-7.308 9.474,-15.697c8.513,-14.827 14.87,-25.805 24.469,-42.252c19.916,-34.127 36.301,-62.996 36.271,-63.908c-0.02,-0.601 -3.172,-6.492 -7.004,-13.092c-7.487,-12.891 -16.222,-27.999 -31.802,-55c-5.396,-9.35 -12.285,-21.275 -15.31,-26.5c-3.025,-5.225 -7.704,-13.325 -10.398,-18c-2.693,-4.675 -5.264,-8.871 -5.713,-9.323c-0.449,-0.453 -1.918,1.122 -3.265,3.5m-692.805,122.872c0,0.907 11.373,20.992 32.532,57.451c3.192,5.5 9.026,15.625 12.963,22.5c14.687,25.641 22.786,39.536 23.754,40.75c0.78,0.979 16.392,1.25 71.988,1.25l70.993,0l-1.458,-2.25c-0.802,-1.237 -6.781,-11.475 -13.287,-22.75c-6.505,-11.275 -13.266,-22.975 -15.024,-26c-1.758,-3.025 -5.662,-9.775 -8.675,-15c-6.153,-10.669 -16.943,-29.273 -26.097,-45c-3.362,-5.775 -6.58,-10.831 -7.151,-11.235c-1.715,-1.213 -140.538,-0.933 -140.538,0.284m475,0.538c0,0.611 10.969,19.818 34.503,60.413c11.052,19.065 26.051,45.125 31.223,54.25l4.393,7.75l70.961,0l70.961,0l-2.165,-4.25c-1.191,-2.337 -4.051,-7.4 -6.355,-11.25c-2.305,-3.85 -11.308,-19.375 -20.008,-34.5c-8.7,-15.125 -17.923,-31.1 -20.496,-35.5c-2.572,-4.4 -7.52,-12.95 -10.994,-19c-3.475,-6.05 -7.383,-12.687 -8.685,-14.75l-2.366,-3.75l-70.486,0c-38.767,0 -70.486,0.264 -70.486,0.587m-648.236,12.163c-3.074,5.363 -7.932,13.8 -10.794,18.75c-13.297,22.996 -28.606,49.511 -31.467,54.5c-1.734,3.025 -7.507,13.018 -12.828,22.208c-5.321,9.189 -9.675,16.951 -9.675,17.25c0,0.298 31.655,0.542 70.345,0.542c65.743,0 70.446,-0.114 71.882,-1.75c1.313,-1.494 13.611,-22.43 36.566,-62.25c3.012,-5.225 9.771,-16.925 15.019,-26c13.423,-23.207 18.188,-31.694 18.188,-32.394c0,-0.333 -31.87,-0.606 -70.823,-0.606l-70.823,0l-5.59,9.75m479.861,-6.5c-0.782,1.238 -8.035,13.725 -16.12,27.75c-8.084,14.025 -17.314,30 -20.511,35.5c-3.196,5.5 -11.915,20.575 -19.373,33.5l-13.561,23.5l70.554,0.257l70.555,0.256l1.828,-2.256c1.006,-1.241 5.313,-8.332 9.573,-15.757c4.259,-7.425 10.108,-17.55 12.998,-22.5c2.889,-4.95 11.862,-20.475 19.939,-34.5c8.077,-14.025 17.342,-30.031 20.589,-35.569c3.247,-5.538 5.904,-10.6 5.904,-11.25c0,-0.897 -16.953,-1.181 -70.477,-1.181l-70.477,0l-1.421,2.25m-335.569,21.571c-6.245,10.824 -13.47,23.279 -16.055,27.679c-2.584,4.4 -12.7,21.95 -22.478,39c-9.778,17.05 -18.631,32.232 -19.672,33.739c-1.879,2.716 -1.875,2.769 0.48,6.5c1.306,2.068 5.217,8.711 8.692,14.761c3.474,6.05 8.414,14.6 10.977,19c5.993,10.289 14.455,24.934 26,45c7.995,13.895 16.296,28.152 22.018,37.815l1.667,2.815l8.28,-14.315c4.555,-7.873 9.752,-16.79 11.549,-19.815c3.402,-5.725 8.495,-14.529 24.008,-41.5c5.062,-8.8 11.98,-20.725 15.375,-26.5c3.395,-5.775 7.345,-12.8 8.778,-15.612l2.606,-5.111l-3.457,-6.389c-3.139,-5.8 -10.043,-17.808 -30.12,-52.388c-3.832,-6.6 -8.634,-14.925 -10.672,-18.5c-11.747,-20.611 -24.505,-42.725 -25.486,-44.179c-0.956,-1.414 -2.927,1.427 -12.49,18m480.973,-8.571c-31.16,53.294 -60.125,103.735 -61.616,107.304c-0.792,1.895 -1.936,3.446 -2.543,3.446c-0.608,0 -0.87,0.891 -0.585,1.983c0.436,1.666 16.369,29.559 35.71,62.517c2.582,4.4 9.334,16.1 15.005,26c5.671,9.9 12.539,21.743 15.263,26.317l4.952,8.317l5.044,-8.817c4.81,-8.409 9.671,-16.812 21.295,-36.817c2.876,-4.95 9.374,-16.2 14.44,-25c16.332,-28.368 21.252,-36.853 25.8,-44.495c4.19,-7.04 4.373,-7.648 3.014,-10c-16.823,-29.129 -26.878,-46.551 -34.633,-60.005c-5.231,-9.075 -11.722,-20.325 -14.426,-25c-2.704,-4.675 -8.344,-14.462 -12.535,-21.75c-4.191,-7.288 -7.879,-13.25 -8.198,-13.25c-0.318,0 -3.012,4.163 -5.987,9.25m-690.029,117.339c0,0.324 3.676,6.962 8.17,14.75c4.493,7.789 10.49,18.211 13.326,23.161c2.836,4.95 8.542,14.85 12.68,22c19.854,34.305 27.532,47.622 31.561,54.75l4.382,7.75l70.941,0c39.017,0 70.94,-0.151 70.94,-0.335c0,-0.49 -16.547,-29.313 -38.273,-66.665c-12.218,-21.007 -24.391,-42.094 -28.142,-48.75l-4.085,-7.249l-70.75,-0.001c-38.913,0 -70.75,0.265 -70.75,0.589m475.307,1.161c1.887,3.334 24.645,42.848 29.228,50.75c3.191,5.5 9.023,15.625 12.96,22.5c7.366,12.86 19.996,34.661 25.201,43.5l2.944,5l70.68,0.257c46.286,0.168 70.68,-0.086 70.68,-0.736c0,-0.546 -2.208,-4.712 -4.906,-9.257c-2.699,-4.545 -16.467,-28.289 -30.597,-52.764c-14.131,-24.475 -27.716,-47.987 -30.189,-52.25l-4.498,-7.75l-70.964,0c-39.03,0 -70.773,0.337 -70.539,0.75m-172.074,11.5c-2.696,4.538 -5.932,10.05 -7.192,12.25c-3.352,5.855 -19.854,34.42 -26.576,46c-6.821,11.753 -13.27,22.934 -23.937,41.5c-4.266,7.425 -7.957,13.837 -8.201,14.25c-0.245,0.413 31.766,0.75 71.135,0.75l71.581,0l1.191,-2.75c1.39,-3.209 51.441,-90.25 64.424,-112.035c2.388,-4.007 4.342,-7.495 4.342,-7.75c0,-0.256 -31.92,-0.465 -70.933,-0.465l-70.933,0l-4.901,8.25m-323.499,0.681l-2.734,4.864l0,112.705l0,112.705l2.75,4.897c1.512,2.693 2.975,4.892 3.25,4.887c0.275,-0.006 4.956,-7.768 10.403,-17.249c5.446,-9.482 12.007,-20.84 14.58,-25.24c5.167,-8.838 12.128,-20.874 26.026,-45c5.069,-8.8 11.682,-20.197 14.695,-25.326l5.478,-9.325l-5.46,-9.175c-3.003,-5.046 -9.843,-16.824 -15.202,-26.174c-5.358,-9.35 -12.1,-21.05 -14.983,-26c-2.882,-4.95 -7.961,-13.725 -11.287,-19.5c-17.275,-30 -23.45,-40.567 -24.083,-41.216c-0.385,-0.394 -1.929,1.472 -3.433,4.147m476.961,-1.768c-0.806,1.285 -6.762,11.562 -13.236,22.837c-6.474,11.275 -13.874,24.1 -16.445,28.5c-5.561,9.518 -13.48,23.216 -26.015,45c-5.064,8.8 -10.338,17.675 -11.72,19.723l-2.513,3.722l8.5,14.778c4.675,8.127 10.73,18.602 13.455,23.277c2.725,4.675 9.37,16.15 14.767,25.5c9.989,17.306 21.179,36.666 29.429,50.915c2.521,4.353 5.004,7.888 5.518,7.856c0.803,-0.051 9.682,-14.879 23.515,-39.271c3.496,-6.164 8.242,-14.36 20.847,-36c3.043,-5.225 7.538,-13.1 9.989,-17.5c2.451,-4.4 5.23,-9.125 6.175,-10.5c0.945,-1.375 3.631,-6.1 5.969,-10.5l4.25,-8l-5.207,-9c-2.864,-4.95 -10.27,-17.775 -16.458,-28.5c-6.187,-10.725 -13.86,-24 -17.05,-29.5c-3.191,-5.5 -9.025,-15.625 -12.965,-22.5c-11.447,-19.973 -18.691,-32.474 -19.028,-32.837c-0.172,-0.185 -0.972,0.715 -1.777,2m-218.695,125.949c0,1.032 2.639,5.777 17.18,30.888c3.026,5.225 9.915,17.15 15.311,26.5c5.395,9.35 13.189,22.85 17.321,30c4.131,7.15 9.968,17.275 12.971,22.5c3.002,5.225 5.91,10.063 6.46,10.75c0.785,0.979 16.401,1.25 71.994,1.25l70.993,0l-1.804,-2.75c-0.992,-1.513 -5.031,-8.375 -8.974,-15.25c-7.463,-13.012 -18.484,-32.066 -27.474,-47.5c-7.915,-13.587 -28.068,-48.514 -30.345,-52.589l-2.005,-3.589l-49.478,-0.661c-72.355,-0.967 -92.15,-0.87 -92.15,0.451m-258.266,149.819l-2.734,4.864l0,110.602l0,110.603l7.465,0c6.73,0 7.579,-0.222 8.628,-2.25c1.582,-3.057 19.279,-33.81 23.722,-41.22c1.968,-3.283 5.216,-8.908 7.216,-12.5c3.648,-6.551 12.977,-22.672 24.156,-41.746l5.988,-10.217l-4.922,-8.283c-2.707,-4.556 -5.957,-10.084 -7.222,-12.284c-1.265,-2.2 -6.441,-11.2 -11.501,-20c-5.061,-8.8 -12.591,-21.85 -16.734,-29c-4.142,-7.15 -12.572,-21.775 -18.733,-32.5c-6.16,-10.725 -11.514,-19.822 -11.898,-20.216c-0.383,-0.394 -1.927,1.472 -3.431,4.147"/>
 </g>
</svg>
