<svg width="198" height="133" xmlns="http://www.w3.org/2000/svg">
 <!-- Created with Method Draw - http://github.com/duopixel/Method-Draw/ -->
  <path id="svg_2" d="m46.44806,22.3393l18.69354,29.27428l-7.70811,3.45483l23.53874,25.08164l-7.70465,4.18873l29.0988,42.00052l-49.35676,-32.18648l9.41411,-4.4698l-30.66667,-20.61574l10.98889,-6.37093l-32.37958,-21.62682l36.08168,-18.73023z" stroke-width="2" stroke="#ffffff" fill="#000000"/>
  <path id="svg_3" d="m55.02321,96.09541l-11.38462,3.18035c-1.04313,-2.79957 -2.6137,-5.22626 -4.51439,-7.15775l6.02048,-10.73268c0.52938,-0.947 0.20316,-2.15443 -0.74231,-2.69303c-0.9357,-0.53466 -2.12924,-0.20124 -2.65667,0.74379l-5.71184,10.18421c-1.17987,-0.75563 -2.42226,-1.35934 -3.71153,-1.76774c-0.81263,-2.83508 -3.22707,-4.75671 -5.9736,-5.05462c-0.00195,-0.00789 -0.00391,-0.01578 -0.00586,-0.02368c-0.11916,-0.47745 -0.18167,-0.90754 -0.19144,-1.2824c-0.00977,-0.37288 0.02344,-0.69249 0.08986,-0.94503c0.07228,-0.25648 0.15432,-0.46364 0.24418,-0.62542c0.2852,-0.51296 0.66417,-0.84836 1.12713,-1.00422c0.04493,0.55439 0.27739,0.95095 0.68761,1.18572c0.30278,0.17362 0.65635,0.22689 1.06658,0.16967c0.41217,-0.06116 0.73449,-0.29988 0.9689,-0.71617c0.20511,-0.36696 0.24809,-0.76747 0.12502,-1.19756c-0.12502,-0.43207 -0.39655,-0.76549 -0.80872,-1.00027c-0.30083,-0.17164 -0.61338,-0.25845 -0.94156,-0.25451c-0.32622,0.00197 -0.63877,0.06708 -0.9396,0.19137c-0.29888,0.12429 -0.57822,0.31567 -0.83802,0.57017c-0.25785,0.25451 -0.47078,0.53466 -0.64463,0.84046c-0.25785,0.46166 -0.42194,0.97857 -0.48836,1.5448c-0.06446,0.56425 -0.07228,1.1147 -0.01758,1.65725c0.03321,0.31567 0.11916,0.59385 0.18362,0.88584c-0.73254,-0.04143 -1.4807,0.00395 -2.22692,0.21308c-0.94156,0.2624 -1.78349,0.71025 -2.5004,1.28832c-0.10158,-0.33934 -0.19144,-0.67868 -0.35162,-1.02197c-0.2266,-0.49126 -0.51375,-0.95884 -0.8556,-1.41261c-0.34771,-0.4518 -0.75012,-0.8089 -1.20722,-1.07129c-0.30083,-0.16967 -0.62705,-0.29791 -0.97867,-0.38275c-0.35162,-0.08484 -0.68761,-0.10259 -1.00797,-0.05327s-0.62119,0.15783 -0.90444,0.32356c-0.2852,0.16573 -0.50789,0.40445 -0.6798,0.70433c-0.23246,0.41629 -0.29302,0.84441 -0.18362,1.27648c0.1133,0.43602 0.35357,0.7576 0.71691,0.96673c0.41022,0.23478 0.81068,0.27226 1.19355,0.11048c0.38287,-0.16178 0.65831,-0.39261 0.83021,-0.70039c0.23246,-0.41431 0.23051,-0.874 -0.01367,-1.37118c0.47664,-0.10851 0.97086,-0.01578 1.47875,0.27818c0.15823,0.08878 0.33404,0.22689 0.52743,0.41037c0.18948,0.18151 0.37701,0.43799 0.55868,0.76549c0.18362,0.3275 0.34966,0.72603 0.49031,1.19953c0.02539,0.08681 0.04493,0.19335 0.06837,0.28805c-1.77958,1.63358 -2.65081,4.11945 -2.14487,6.62309c-1.1369,1.15218 -2.09408,2.50561 -2.84615,4.01489l-10.07972,-5.77276c-0.93765,-0.53466 -2.13315,-0.20124 -2.66448,0.74379c-0.52938,0.95095 -0.19925,2.15837 0.7384,2.69698l10.62864,6.08054c-0.64659,2.64371 -0.75598,5.53798 -0.22855,8.47763l-11.38462,3.18232c-1.04313,0.29002 -1.65261,1.37907 -1.3635,2.42866c0.28715,1.04565 1.36154,1.66317 2.40468,1.36921l11.48424,-3.20994c0.98258,2.08538 2.66253,4.49826 4.63159,6.79276l-6.23927,11.12529c-0.53133,0.94897 -0.20316,2.15443 0.7384,2.68909c0.46687,0.27029 1.00016,0.31961 1.4807,0.18545c0.48445,-0.13416 0.91616,-0.4518 1.17987,-0.92924l5.65519,-10.07964c5.27427,5.11775 11.10332,8.13434 11.28694,2.07748c3.12159,5.05067 6.7413,-0.66685 8.79436,-7.84433l10.16372,5.81419c0.46882,0.27226 1.00407,0.31961 1.48852,0.18545c0.48054,-0.13219 0.91225,-0.4518 1.17792,-0.92924c0.53133,-0.94503 0.20316,-2.15245 -0.73644,-2.68712l-11.13653,-6.37056c0.56845,-2.96924 0.82435,-5.88522 0.62315,-8.16394l11.49791,-3.20994c1.03532,-0.29002 1.65456,-1.37512 1.35959,-2.42472c-0.28911,-1.04959 -1.3674,-1.66514 -2.40663,-1.37512z" fill-opacity="null" stroke-opacity="null" stroke-width="2" stroke="#ffffff" fill="#000000"/>
  <path id="svg_4" d="m142.9731,86.43608l-3.50256,-12.46851c1.02646,-0.91579 1.98989,-1.89569 2.8993,-2.94427l12.24997,3.56243c1.29208,-1.91401 2.40407,-3.94706 3.39902,-6.05796l-9.11657,-8.97476c0.4367,-1.31874 0.81486,-2.66038 1.08498,-4.04322l12.28599,-3.13201c0.09004,-1.1539 0.17558,-2.31237 0.17558,-3.49375s-0.09004,-2.33527 -0.17558,-3.48917l-12.28599,-3.13201c-0.27462,-1.38285 -0.65279,-2.72448 -1.08498,-4.04322l9.12108,-8.97476c-0.99945,-2.10632 -2.11144,-4.14396 -3.40352,-6.05796l-12.24997,3.55785c-0.9049,-1.044 -1.87284,-2.0239 -2.8993,-2.94427l3.50256,-12.46393c-1.88184,-1.30958 -3.88524,-2.44516 -5.96066,-3.45711l-8.82394,9.27697c-1.29208,-0.44416 -2.61567,-0.82421 -3.97528,-1.10353l-3.07487,-12.50056c-1.13901,-0.087 -2.27352,-0.17858 -3.43503,-0.17858s-2.29603,0.09158 -3.43053,0.17858l-3.07938,12.50056c-1.35961,0.27932 -2.6787,0.65937 -3.97528,1.10353l-8.82394,-9.27697c-2.07093,1.02569 -4.06982,2.15669 -5.95166,3.47085l3.50256,12.46393c-1.02646,0.91579 -1.99439,1.90027 -2.89479,2.93969l-12.25448,-3.56243c-1.29208,1.91401 -2.40407,3.95164 -3.39902,6.06254l9.12108,8.97476c-0.43219,1.31874 -0.81036,2.66038 -1.08498,4.04322l-12.29049,3.13201c-0.08554,1.1539 -0.17558,2.31237 -0.17558,3.48917s0.09004,2.33527 0.17558,3.49375l12.29049,3.13201c0.27462,1.38285 0.65279,2.72448 1.08498,4.04322l-9.12108,8.97476c0.99494,2.10632 2.10694,4.14396 3.39902,6.05796l12.25448,-3.56243c0.9004,1.04858 1.86833,2.0239 2.89479,2.94427l-3.50256,12.46851c1.88184,1.30958 3.88524,2.44059 5.95616,3.45711l8.82394,-9.27697c1.29658,0.44416 2.61567,0.82879 3.97528,1.10353l3.07938,12.49598c1.13451,0.09158 2.27352,0.17858 3.43503,0.17858s2.29603,-0.09158 3.43503,-0.17858l3.07487,-12.49598c1.35961,-0.27932 2.6832,-0.66395 3.97528,-1.10353l8.82394,9.27697c2.06642,-1.02569 4.06982,-2.15669 5.95166,-3.46627zm-25.26529,-21.98358c-8.45028,0 -15.30234,-6.96918 -15.30234,-15.56388s6.85206,-15.5593 15.30234,-15.5593s15.29783,6.9646 15.29783,15.5593s-6.84756,15.56388 -15.29783,15.56388zm69.74516,32.53351c0.08554,-2.50469 -0.27012,-5.05517 -1.03546,-7.5736l5.6005,-8.1185c-0.84638,-1.60264 -1.8008,-3.12285 -2.88579,-4.5057l-9.55327,2.03764c-1.92686,-1.66674 -4.11934,-2.96717 -6.46489,-3.89669l-2.75073,-9.51966c-1.73778,-0.31137 -3.49806,-0.48079 -5.28086,-0.48537l-4.38496,8.86487c-1.25606,0.24726 -2.51212,0.58611 -3.74567,1.0669c-1.15702,0.44874 -2.2375,1.00737 -3.27296,1.61637l-9.03103,-3.75017c-1.3371,1.19969 -2.55714,2.49553 -3.66014,3.90127l4.08332,9.01139c-1.16602,2.26658 -1.96738,4.70717 -2.33654,7.25765l-8.5133,4.8537c0.08554,1.77664 0.34215,3.55327 0.73833,5.33449l9.47223,2.37648c1.03996,2.39937 2.43559,4.54691 4.12384,6.37849l-1.58471,9.78982c1.44064,1.05316 2.97133,1.95979 4.56054,2.74738l7.72095,-6.04423c2.41308,0.64563 4.93871,0.8929 7.48234,0.68684l6.53692,7.35839c0.9004,-0.261 1.7963,-0.54032 2.6832,-0.88374c0.78785,-0.30221 1.53068,-0.65937 2.27352,-1.02111l0.16657,-9.91345c2.04842,-1.55227 3.7952,-3.42048 5.18632,-5.52223l9.72885,-0.61358c0.68431,-1.64385 1.25606,-3.3518 1.65674,-5.10554l-7.51386,-6.32812zm-18.74187,9.18997c-5.40692,2.09716 -11.45762,-0.65937 -13.52404,-6.1587s0.64379,-11.65803 6.0507,-13.75977c5.40692,-2.09716 11.46662,0.65937 13.53305,6.1587c2.06192,5.49933 -0.65279,11.65803 -6.05971,13.75977z" fill-opacity="null" stroke-opacity="null" stroke-width="2" stroke="#ffffff" fill="#000000"/>
</svg>