<svg width="198" height="133" xmlns="http://www.w3.org/2000/svg">
 <!-- Created with Method Draw - http://github.com/duopixel/Method-Draw/ -->
  <path stroke="#3a3a3a" filter="url(#svg_12_blur)" id="svg_12" d="m67.35361,48.20384l0,-6.11124l-0.00159,0c-0.00226,-7.54255 -5.75475,-13.6538 -12.85163,-13.6538s-12.8525,6.11452 -12.8525,13.65707l0,0l0,6.10797l-4.64789,0l0,26.23495l34.99999,0l0,-26.23495l-4.64638,0zm-21.64519,-6.10797c0,0 0,0 0,0c0,-5.15385 3.94433,-9.34545 8.79197,-9.34545c4.85074,0 8.79507,4.1916 8.79507,9.34218c0,0 0,0 0,0l0,6.11124l-17.58704,0l0,-6.10797z" stroke-width="2" fill="#ffffff"/>
  <path id="svg_17" d="m133.38365,114.43892l-34.06361,-34.05977c4.58897,-7.56618 7.28022,-16.41809 7.285,-25.91047c-0.00478,-27.68849 -22.42864,-50.1146 -50.10592,-50.12416c-27.68206,0.00956 -50.11548,22.43567 -50.11548,50.11938c0,27.66938 22.43342,50.09549 50.11548,50.09549c9.49823,0 18.35114,-2.69095 25.91818,-7.27941l34.07317,34.06455l16.89318,-16.90561zm-107.88404,-59.97502c0.02868,-17.12069 13.87688,-30.96255 30.99473,-31.00079c17.10829,0.03824 30.96605,13.8801 30.99473,31.00079c-0.03346,17.11114 -13.88644,30.953 -30.99473,30.99124c-17.11785,-0.03824 -30.96605,-13.8801 -30.99473,-30.99124z" fill-opacity="null" stroke-opacity="null" stroke-width="0" stroke="#000" fill="#000000"/>
  <path stroke="#ffffff" id="svg_20" d="m161.1393,47.93688l-6.3615,-12.14263c-1.91797,-3.65976 -5.05507,-9.65107 -6.97305,-13.31153l-6.36091,-12.14189c-1.91987,-3.6619 -5.05697,-3.6619 -6.97431,0l-6.35962,12.14189c-1.91797,3.66046 -5.05698,9.65317 -6.97432,13.31153l-6.36027,12.14263c-1.91797,3.66329 -0.34813,6.65752 3.48717,6.65752l39.38584,0c3.83913,0 5.40702,-2.99424 3.49097,-6.65752l0,0zm-21.36613,1.87977l-3.77299,0l0,-3.99251l3.77299,0l0,3.99251zm-0.18177,-6.93435l-3.40622,0l-0.33851,-17.0825l4.05303,0l-0.3083,17.0825l0,0z" stroke-width="2" fill="#000000"/>
  <path stroke="#ffffff" id="svg_21" d="m192.39478,87.20327l-4.37353,-8.00897c-1.3186,-2.41388 -3.47536,-6.3656 -4.79397,-8.77995l-4.37312,-8.00848c-1.31991,-2.4153 -3.47667,-2.4153 -4.79484,0l-4.37224,8.00848c-1.3186,2.41435 -3.47667,6.36698 -4.79484,8.77995l-4.37268,8.00897c-1.3186,2.41621 -0.23934,4.39113 2.39742,4.39113l27.07776,0c2.6394,0 3.71733,-1.97492 2.40004,-4.39113l0,0zm-14.68921,1.23985l-2.59393,0l0,-2.63336l2.59393,0l0,2.63336zm-0.12497,-4.57372l-2.34178,0l-0.23273,-11.26718l2.78646,0l-0.21196,11.26718l0,0z" stroke-width="2" fill="#000000"/>
  <path stroke="#ffffff" id="svg_22" d="m82.59917,128.47811l-2.78315,-5.68379c-0.83911,-1.71308 -2.21159,-4.51752 -3.05071,-6.23093l-2.7829,-5.68344c-0.83994,-1.71408 -2.21242,-1.71408 -3.05125,0l-2.78233,5.68344c-0.83911,1.71341 -2.21243,4.51851 -3.05126,6.23093l-2.78261,5.68379c-0.83911,1.71473 -0.15231,3.11629 1.52563,3.11629l17.2313,0c1.67962,0 2.36557,-1.40156 1.5273,-3.11629l0,0zm-9.34768,0.87989l-1.65068,0l0,-1.86884l1.65068,0l0,1.86884zm-0.07953,-3.24587l-1.49022,0l-0.1481,-7.99606l1.7732,0l-0.13488,7.99606l0,0z" stroke-width="2" fill="#000000"/>
</svg>