<svg width="760" height="143" xmlns="http://www.w3.org/2000/svg">
 <!-- Created with Method Draw - http://github.com/duopixel/Method-Draw/ -->
 <defs>
  <filter id="svg_6_blur" x="-50%" y="-50%" width="200%" height="200%">
   <feGaussianBlur stdDeviation="3.4"/>
  </filter>
 </defs>
 <g>
  <title>background</title>
  <rect fill="none" id="canvas_background" height="402" width="582" y="-1" x="-1"/>
 </g>
 <g>
  <title>Layer 1</title>
  <text fill="#000000" stroke-width="0" x="121.5" y="301" id="svg_1" font-size="24" font-family="Helvetica, Arial, sans-serif" text-anchor="start" xml:space="preserve" transform="matrix(7.594847679138184,0,0,6.662398338317871,-889.2739917337894,-1733.313216343522) " stroke="#000"/>
  <path fill="#000000" stroke-width="0" fill-opacity="null" d="m433.77494,66.36791c9.68662,-10.73905 11.63369,-25.39416 6.36418,-37.719l-19.44671,21.86715l-19.16967,-3.59386l-6.35185,-17.80599l19.39752,-21.81636c-13.34276,-3.23689 -28.04241,0.6709 -37.68636,11.36745c-10.17075,11.27678 -11.8352,26.89292 -5.54004,39.56279l-50.68959,56.2078c-5.39363,5.97587 -4.73655,15.03947 1.46084,20.23832c6.19738,5.19519 15.59499,4.56728 20.98675,-1.40866l50.6302,-56.15235c13.93698,4.33159 29.82692,0.58077 40.04473,-10.74729l0,0z" id="svg_5" stroke="#000"/>
  <path fill="#000000" stroke="#000" stroke-width="0" stroke-opacity="null" d="m69.79691,24.83629c2.11898,-3.45042 5.99586,-7.94515 -0.66507,-9.02949c-1.85548,-0.85648 -3.71156,-2.37201 -5.56464,-0.68374c-4.12305,1.46454 -7.69723,3.51264 -3.36057,7.34569c1.92309,2.47539 3.67221,7.87644 5.85059,8.47128c1.30013,-2.00748 2.51807,-4.05713 3.73969,-6.10376l0,0l0,0.00002zm-9.10846,9.52704c-3.78501,-6.07438 -6.8309,-12.59108 -11.46357,-18.1948c-5.63449,-5.40934 -16.73647,-2.99804 -19.25942,3.97927c-3.35144,6.89827 3.87987,15.13457 12.06608,14.27116c6.21206,0.09355 12.45948,0.34508 18.65692,-0.05563l-0.00001,0zm31.45243,0.20506c8.05029,-0.97032 12.67975,-10.08314 8.09623,-16.13383c-4.06177,-6.45716 -15.7473,-6.68226 -19.82678,-0.12037c-3.53241,5.30499 -6.59835,10.84847 -9.83985,16.29889c7.16631,0.36843 14.40003,0.28249 21.57041,-0.0447l0,0l-0.00001,0.00001zm13.33208,7.76954c2.74439,-2.17134 13.37182,-4.73117 5.32313,-6.79332c-1.99384,-0.50875 -4.31838,-2.84265 -6.11033,-2.20396c-3.89116,4.35017 -9.87417,6.90219 -16.12097,6.63489c-1.22288,0.36144 -7.46016,-0.54972 -5.77491,0.4852c4.4069,2.25947 8.70281,4.71326 13.2611,6.71876c3.19272,-1.52895 6.29134,-3.21319 9.42198,-4.84158l0,0l0,0.00001zm-62.70002,1.22933c2.34691,-1.22933 4.69381,-2.45866 7.04071,-3.68799c-7.17372,-0.32051 -15.38341,0.60924 -20.8049,-4.57891c-1.52854,-1.53898 -2.99429,-3.30095 -5.11278,-1.36343c-2.5375,1.57193 -10.34256,3.18278 -4.33309,5.10168c5.2329,2.77954 10.42899,5.62691 15.79123,8.20081c2.55516,-1.07744 4.96377,-2.42402 7.41884,-3.67215l0,0l-0.00001,-0.00001zm34.39447,13.71673c3.04133,-2.19727 10.40789,-4.29066 10.65399,-6.64853c-6.87613,-3.55793 -13.55198,-7.5193 -20.74578,-10.5266c-2.47566,-0.84455 -4.48283,0.45496 -6.47556,1.58365c-5.89256,3.15163 -11.92689,6.10766 -17.62771,9.53434c7.45563,4.14549 15.00087,8.1684 22.61951,12.06692c3.88592,-1.95981 7.7216,-3.99973 11.57555,-6.00977l0,0l0,-0.00001zm30.51181,6.85836c3.1552,-1.79007 6.3104,-3.58015 9.46562,-5.37023c-0.02583,-5.99554 0.08066,-11.99358 -0.10176,-17.98703c-6.36809,3.19506 -12.64562,6.54964 -18.8172,10.0427c-0.67499,6.18379 -0.33267,12.46984 -0.18596,18.68479c3.25655,-1.72517 6.43398,-3.57035 9.6393,-5.37023zm-73.99845,-3.77728c0.32045,-5.1107 1.01123,-10.93662 -5.84316,-12.45055c-4.32858,-1.81529 -10.32837,-6.46644 -13.6631,-6.41978c-0.1039,5.75861 -0.04891,11.51827 -0.06015,17.27738c6.39404,3.58792 12.67461,7.34857 19.20664,10.73077c0.63337,-2.96849 0.21933,-6.11525 0.35978,-9.13782l-0.00001,0zm45.7876,19.788c3.78196,-2.14691 7.56391,-4.29382 11.34587,-6.44074c-0.01751,-6.18969 0.26713,-12.38828 -0.04395,-18.57133c-4.15639,1.07174 -8.91029,4.38451 -13.28928,6.44219c-3.27891,1.72702 -6.55784,3.45405 -9.83676,5.18108c0.06466,6.60908 -0.17676,13.23023 0.23912,19.82952c3.91982,-2.05941 7.73545,-4.27741 11.585,-6.44072l0,0zm-15.85368,-3.47404c0,-3.30492 0,-6.60984 0,-9.91475c-7.5922,-3.98952 -15.1601,-8.01685 -22.7819,-11.9605c-0.42149,6.31994 -0.18062,12.66364 -0.24418,18.99449c7.59051,4.2732 15.10236,8.6631 22.78889,12.79552c0.2991,-3.29321 0.18989,-6.6127 0.23719,-9.91476zm44.25325,13.28568c3.09413,-1.85263 6.18825,-3.70527 9.28239,-5.55791c-0.1291,-5.87372 0.31873,-11.82693 -0.3326,-17.63584c-6.43461,3.30105 -12.64466,7.05922 -18.96459,10.5832c0.15182,6.07736 -0.31174,12.2243 0.38643,18.24973c3.26435,-1.80161 6.42925,-3.74618 9.62837,-5.63919l0,0.00001zm-74.25548,-3.29291c-0.02519,-3.07967 -0.0504,-6.15934 -0.07559,-9.23901c-6.39236,-3.59606 -12.70419,-7.31241 -19.19258,-10.76707c-0.40605,5.90018 -0.17461,11.82336 -0.23568,17.73408c6.44867,3.83827 12.8248,7.77826 19.35993,11.49672c0.25039,-3.06574 0.12613,-6.15221 0.14391,-9.22471l0.00001,-0.00001zm46.01935,20.23829c3.756,-2.24299 7.51201,-4.48598 11.26801,-6.72896c-0.00872,-6.2543 0.13259,-12.51129 -0.05431,-18.76346c-7.64573,4.23897 -15.24031,8.55597 -22.77888,12.94729c-0.85197,6.03914 -0.29956,12.26568 -0.30081,18.37083c2.33975,1.28146 8.32206,-4.39781 11.86599,-5.82571l0,0l0,0.00001zm-16.01713,-2.67735c-0.45419,-4.31255 1.95339,-10.38271 -4.14228,-12.05455c-6.14726,-3.50098 -12.2698,-7.04016 -18.49795,-10.42395c-0.90778,5.92069 0.04164,12.08868 -0.6557,18.08181c7.46873,4.85477 15.13262,9.49582 22.93614,13.90342c0.62587,-3.08874 0.2366,-6.36052 0.35978,-9.50673l0,0l0.00001,0zm-26.12034,-1.14004c-9.09047,-5.4565 -18.18093,-10.913 -27.27139,-16.36949c0.01031,-16.83951 -0.24844,-33.68307 0.08394,-50.51942c4.55207,-2.52553 9.3962,-4.59586 14.08094,-6.91298c-3.02586,-7.78862 1.33986,-17.25345 10.11377,-20.16881c7.35501,-2.71357 16.22087,-0.26477 20.91004,5.44777c3.40594,-1.57067 6.81188,-3.14133 10.21783,-4.712c3.42423,1.58487 6.84848,3.16975 10.2727,4.75462c4.90661,-5.23339 13.31293,-8.21995 20.59775,-5.28702c8.74427,2.76364 13.51051,12.20731 10.37466,19.98371c4.71921,2.39575 9.85009,4.26788 14.17707,7.19131c0.19182,16.73978 0.00172,33.48202 -0.01568,50.22282c-18.08782,10.76338 -35.88253,21.93762 -54.26401,32.29177c-5.34503,-0.00129 -9.95855,-5.21971 -14.91836,-7.33547c-4.79508,-2.85055 -9.57806,-5.71753 -14.35927,-8.58681l0.00002,0l-0.00001,0z" id="svg_7"/>
  <path fill="#000000" stroke="#000" stroke-width="0" stroke-opacity="null" fill-opacity="null" d="m659.79691,35.83629c2.11897,-3.45042 5.99586,-7.94515 -0.66508,-9.02949c-1.85547,-0.85648 -3.71155,-2.37201 -5.56464,-0.68373c-4.12304,1.46454 -7.69723,3.51264 -3.36057,7.34569c1.92309,2.47539 3.67221,7.87644 5.85059,8.47128c1.30014,-2.00748 2.51808,-4.05713 3.7397,-6.10376l0,0.00001zm-9.10847,9.52704c-3.785,-6.07439 -6.83089,-12.59108 -11.46357,-18.1948c-5.63449,-5.40935 -16.73647,-2.99804 -19.25942,3.97927c-3.35144,6.89827 3.87986,15.13457 12.06608,14.27115c6.21206,0.09356 12.45947,0.34509 18.65691,-0.05562zm31.45244,0.20506c8.05028,-0.97032 12.67975,-10.08314 8.09622,-16.13383c-4.06177,-6.45716 -15.74729,-6.68227 -19.82678,-0.12037c-3.53241,5.30499 -6.59835,10.84847 -9.83985,16.29889c7.16631,0.36844 14.40002,0.2825 21.57041,-0.04469l0,0zm13.33207,7.76954c2.74439,-2.17134 13.37182,-4.73117 5.32313,-6.79331c-1.99384,-0.50875 -4.31838,-2.84265 -6.11033,-2.20396c-3.89115,4.35017 -9.87417,6.90219 -16.12097,6.63488c-1.22288,0.36145 -7.46017,-0.54971 -5.77491,0.48521c4.4069,2.25947 8.70281,4.71326 13.2611,6.71876c3.19272,-1.52895 6.29134,-3.21319 9.42198,-4.84158l0,0zm-62.70002,1.22933c2.34691,-1.22933 4.69382,-2.45866 7.04072,-3.68798c-7.17373,-0.32052 -15.38342,0.60924 -20.80491,-4.57892c-1.52854,-1.53898 -2.99429,-3.30094 -5.11278,-1.36343c-2.5375,1.57193 -10.34256,3.18279 -4.33308,5.10168c5.23289,2.77954 10.42899,5.62691 15.79122,8.20081c2.55517,-1.07744 4.96377,-2.42402 7.41884,-3.67215l-0.00001,-0.00001zm34.39448,13.71674c3.04132,-2.19728 10.40788,-4.29066 10.65399,-6.64853c-6.87614,-3.55794 -13.55199,-7.51931 -20.74578,-10.52661c-2.47566,-0.84454 -4.48284,0.45496 -6.47556,1.58366c-5.89256,3.15163 -11.9269,6.10766 -17.62771,9.53433c7.45562,4.14549 15.00087,8.1684 22.61951,12.06692c3.88592,-1.95981 7.7216,-3.99973 11.57555,-6.00977l0,0zm30.5118,6.85836c3.1552,-1.79008 6.3104,-3.58015 9.46562,-5.37023c-0.02583,-5.99554 0.08066,-11.99359 -0.10176,-17.98703c-6.36809,3.19505 -12.64561,6.54964 -18.81719,10.04269c-0.67499,6.18379 -0.33267,12.46985 -0.18596,18.6848c3.25655,-1.72518 6.43398,-3.57035 9.63929,-5.37023zm-73.99845,-3.77729c0.32045,-5.1107 1.01123,-10.93661 -5.84316,-12.45055c-4.32858,-1.81529 -10.32837,-6.46644 -13.6631,-6.41978c-0.1039,5.7586 -0.04891,11.51827 -0.06016,17.27738c6.39404,3.58792 12.67461,7.34857 19.20665,10.73077c0.63337,-2.96849 0.21932,-6.11525 0.35977,-9.13782zm45.7876,19.788c3.78196,-2.14691 7.56391,-4.29383 11.34587,-6.44074c-0.01751,-6.18969 0.26713,-12.38828 -0.04396,-18.57133c-4.15639,1.07174 -8.91029,4.38451 -13.28928,6.4422c-3.27891,1.72702 -6.55784,3.45405 -9.83676,5.18107c0.06466,6.60908 -0.17676,13.23023 0.23912,19.82952c3.91982,-2.05941 7.73546,-4.2774 11.585,-6.44072l0.00001,0zm-15.85369,-3.47404c0,-3.30492 0,-6.60985 0,-9.91476c-7.5922,-3.98951 -15.1601,-8.01685 -22.7819,-11.9605c-0.42149,6.31994 -0.18062,12.66364 -0.24418,18.9945c7.59051,4.27319 15.10236,8.66309 22.78889,12.79552c0.2991,-3.29321 0.18989,-6.6127 0.23719,-9.91476zm44.25325,13.28568c3.09413,-1.85264 6.18826,-3.70527 9.2824,-5.55791c-0.1291,-5.87372 0.31872,-11.82693 -0.33261,-17.63584c-6.43461,3.30105 -12.64466,7.05923 -18.96459,10.58321c0.15183,6.07736 -0.31174,12.2243 0.38644,18.24973c3.26434,-1.80162 6.42925,-3.74619 9.62836,-5.63919zm-74.25548,-3.29291c-0.02518,-3.07967 -0.0504,-6.15934 -0.07559,-9.23901c-6.39236,-3.59605 -12.70418,-7.3124 -19.19258,-10.76707c-0.40605,5.90018 -0.17461,11.82336 -0.23568,17.73408c6.44868,3.83827 12.8248,7.77825 19.35994,11.49672c0.25039,-3.06574 0.12612,-6.15221 0.14391,-9.22472zm46.01936,20.23829c3.756,-2.24299 7.51201,-4.48598 11.26801,-6.72896c-0.00873,-6.2543 0.13259,-12.51129 -0.05431,-18.76346c-7.64572,4.23898 -15.2403,8.55597 -22.77888,12.9473c-0.85197,6.03914 -0.29956,12.26568 -0.30081,18.37083c2.33975,1.28145 8.32206,-4.39781 11.86599,-5.82571l0,0zm-16.01713,-2.67735c-0.45419,-4.31255 1.95339,-10.3827 -4.14228,-12.05455c-6.14726,-3.50097 -12.2698,-7.04016 -18.49795,-10.42395c-0.90777,5.9207 0.04164,12.08869 -0.65569,18.08181c7.46872,4.85477 15.13262,9.49582 22.93614,13.90342c0.62586,-3.08874 0.2366,-6.36052 0.35978,-9.50673l0,0zm-26.12034,-1.14004c-9.09047,-5.4565 -18.18093,-10.913 -27.27139,-16.36949c0.0103,-16.83951 -0.24844,-33.68307 0.08394,-50.51942c4.55207,-2.52554 9.3962,-4.59586 14.08094,-6.91298c-3.02586,-7.78862 1.33986,-17.25345 10.11377,-20.16881c7.355,-2.71358 16.22087,-0.26478 20.91004,5.44777c3.40593,-1.57067 6.81188,-3.14133 10.21782,-4.712c3.42423,1.58488 6.84848,3.16975 10.2727,4.75462c4.90661,-5.23338 13.31293,-8.21995 20.59775,-5.28701c8.74427,2.76364 13.51051,12.20731 10.37466,19.9837c4.71921,2.39576 9.85009,4.26788 14.17707,7.19131c0.19182,16.73978 0.00172,33.48202 -0.01568,50.22283c-18.08782,10.76338 -35.88253,21.93762 -54.26401,32.29176c-5.34502,-0.00129 -9.95855,-5.2197 -14.91836,-7.33547c-4.79508,-2.85055 -9.57805,-5.71753 -14.35927,-8.58681l0.00002,0z" id="svg_9"/>
  <path fill="#000000" stroke-width="0" d="m163.55708,77.64123l0,-7.17406l-0.00186,0c-0.00264,-8.8543 -6.74127,-16.02837 -15.05476,-16.02837s-15.05579,7.17792 -15.05579,16.03221l0,0l0,7.17023l-5.44467,0l0,30.79756l40.99999,0l0,-30.79756l-5.4429,0l-0.00001,-0.00001zm-25.35579,-7.17023c0,0 0,0 0,0c0,-6.05017 4.6205,-10.97074 10.29917,-10.97074c5.68229,0 10.3028,4.92057 10.3028,10.9669c0,0 0,0 0,0l0,7.17406l-20.60196,0l0,-7.17023l-0.00001,0.00001z" id="svg_12" stroke="#3a3a3a"/>
  <path fill="#ffffff" stroke-width="29" d="m733.173,84.9457l0,-9.43257l-0.00255,0c-0.00361,-11.64176 -9.20759,-21.07433 -20.5626,-21.07433s-20.564,9.43763 -20.564,21.07938l0,0l0,9.42752l-7.43662,0l0,40.49308l55.99997,0l0,-40.49308l-7.4342,0zm-34.6323,-9.42752c0,0 0,0 0,0c0,-7.95485 6.31093,-14.42449 14.06716,-14.42449c7.76118,0 14.0721,6.46964 14.0721,14.41944c0,0 0,0 0,0l0,9.43257l-28.13926,0l0,-9.42752z" id="svg_6" filter="url(#svg_6_blur)" stroke="#ffffff"/>
  <path fill="#000000" stroke-width="4" stroke-opacity="null" d="m734.77475,83.67213l0,-10.89395l-0.00268,0c-0.0038,-13.44542 -9.70085,-24.33938 -21.66417,-24.33938s-21.66565,10.8998 -21.66565,24.3452l0,0l0,10.88812l-7.83502,0l0,46.76666l58.99999,0l0,-46.76666l-7.83247,0l0,0.00001zm-36.48761,-10.88812c0,0 0,0 0,0c0,-9.18729 6.64902,-16.65927 14.82075,-16.65927c8.17696,0 14.82598,7.47198 14.82598,16.65344c0,0 0,0 0,0l0,10.89395l-29.64673,0l0,-10.88812z" id="svg_13" stroke="#000"/>
  <path fill="#000000" stroke-width="0" fill-opacity="null" d="m225.30449,91.21851l20.06324,-19.72332l-20.06324,-19.72346l11.46716,-11.27172l31.53283,30.99518l-31.53283,31.0048" id="svg_15" stroke="#000"/>
  <path fill="#000000" stroke-width="0" fill-opacity="null" d="m514.30449,91.21851l20.06324,-19.72332l-20.06324,-19.72346l11.46715,-11.27172l31.53283,30.99518l-31.53283,31.0048" id="svg_16" stroke="#000"/>
  <path stroke="#ffffff" transform="rotate(9.093282699584961 714.7114257812498,105.88926696777341) " id="svg_2" d="m711.64332,85.66408l5.78271,11.38611l-2.38445,1.34374l7.28154,9.75541l-2.38338,1.62919l9.0015,16.33594l-15.26816,-12.5188l2.91219,-1.73851l-9.48651,-8.01841l3.39933,-2.47795l-10.01639,-8.41166l11.16161,-7.28505z" stroke-opacity="null" stroke-width="0" fill="#ffffff"/>
 </g>
</svg>