<?xml version="1.0" encoding="UTF-8" standalone="no"?>
<!-- Generator: Adobe Illustrator 21.1.0, SVG Export Plug-In . SVG Version: 6.00 Build 0)  -->

<svg
   xmlns:dc="http://purl.org/dc/elements/1.1/"
   xmlns:cc="http://creativecommons.org/ns#"
   xmlns:rdf="http://www.w3.org/1999/02/22-rdf-syntax-ns#"
   xmlns:svg="http://www.w3.org/2000/svg"
   xmlns="http://www.w3.org/2000/svg"
   xmlns:xlink="http://www.w3.org/1999/xlink"
   xmlns:sodipodi="http://sodipodi.sourceforge.net/DTD/sodipodi-0.dtd"
   xmlns:inkscape="http://www.inkscape.org/namespaces/inkscape"
   version="1.1"
   id="Layer_1"
   x="0px"
   y="0px"
   viewBox="0 0 595.3 841.9"
   style="enable-background:new 0 0 595.3 841.9;"
   xml:space="preserve"
   sodipodi:docname="logo_czarne.svg"
   inkscape:version="0.92.2 (5c3e80d, 2017-08-06)"><metadata
     id="metadata3895"><rdf:RDF><cc:Work
         rdf:about=""><dc:format>image/svg+xml</dc:format><dc:type
           rdf:resource="http://purl.org/dc/dcmitype/StillImage" /></cc:Work></rdf:RDF></metadata><defs
     id="defs3893" /><sodipodi:namedview
     pagecolor="#ffffff"
     bordercolor="#666666"
     borderopacity="1"
     objecttolerance="10"
     gridtolerance="10"
     guidetolerance="10"
     inkscape:pageopacity="0"
     inkscape:pageshadow="2"
     inkscape:window-width="1920"
     inkscape:window-height="1018"
     id="namedview3891"
     showgrid="false"
     inkscape:zoom="1.0084333"
     inkscape:cx="297.64999"
     inkscape:cy="420.95001"
     inkscape:window-x="-8"
     inkscape:window-y="-8"
     inkscape:window-maximized="1"
     inkscape:current-layer="Layer_1" /><style
     type="text/css"
     id="style3798">
	.st0{stroke:#1A1315;stroke-miterlimit:10;}
	.st1{clip-path:url(#SVGID_4_);}
	.st2{clip-path:url(#SVGID_5_);}
	.st3{clip-path:url(#SVGID_6_);}
	.st4{font-family:'ProximaNova-Semibold';}
	.st5{font-size:95px;}
</style><path
     id="XMLID_1_"
     d="M184.4,262.2c12.7,53.2,21.7,90.7,7.1,111.1c-1.9,2.7-7.5,10.4-16.9,12.9c-8.9,2.3-16.7-1.3-19.5-2.7  c-23.8-11.3-34.7-55.1-45.6-99.5c-0.9-3.8-6-24.8-8.5-53c-1.5-17.4-1-25.6,0.2-33c1.7-10.5,5.7-34.4,18.1-38  c12-3.5,25.7,13.8,32.5,22.4c4.3,5.5,9,12.7,16.1,29.6C178.2,236.5,183.1,256.7,184.4,262.2z" /><path
     class="st0"
     d="M258.4,273.3"
     id="path3801" /><g
     id="g3855"><g
       id="g3853"><defs
         id="defs3804"><rect
           id="SVGID_1_"
           x="58.4"
           y="739.1"
           width="487.1"
           height="91.6" /></defs><defs
         id="defs3807"><path
           id="SVGID_2_"
           d="M16.3,582.6h571.1v403.8H16.3V582.6L16.3,582.6z M16.3,582.6" /></defs><defs
         id="defs3810"><rect
           id="SVGID_3_"
           x="58.4"
           y="739.2"
           width="487"
           height="92.2" /></defs><clipPath
         id="SVGID_4_"><use
           xlink:href="#SVGID_1_"
           style="overflow:visible;"
           id="use3812" /></clipPath><clipPath
         id="SVGID_5_"
         class="st1"
         clip-path="url(#SVGID_4_)"><use
           xlink:href="#SVGID_2_"
           style="overflow:visible;"
           id="use3815" /></clipPath><clipPath
         id="SVGID_6_"
         class="st2"
         clip-path="url(#SVGID_5_)"><use
           xlink:href="#SVGID_3_"
           style="overflow:visible;"
           id="use3818" /></clipPath><path
         class="st3"
         d="M206.1,770.6v31.4H196l-9-17.2c-0.4-0.9-1.1-2.4-2.1-4.5l-1-2.3l-1-2.3h-0.2l0.1,2.1l0.1,2l0,4.1v18H177    v-31.4h10.1l8.2,15.9c0.7,1.4,1.6,3.1,2.5,5.1l1.2,2.5l1.2,2.6h0.2l-0.1-2l-0.1-2l0-4v-18.1H206.1L206.1,770.6z M206.1,770.6"
         clip-path="url(#SVGID_6_)"
         id="path3821" /><path
         class="st3"
         d="M216.9,775.6v8.1h14.7v4.4h-14.7v8.9h15.6v5H211v-31.4h21.4v5H216.9L216.9,775.6z M216.9,775.6"
         clip-path="url(#SVGID_6_)"
         id="path3823" /><path
         class="st3"
         d="M281,770.6l-8.4,31.4h-8.8l-4.4-16.1c-0.4-1.5-0.9-3.4-1.4-5.8l-0.4-1.9h-0.2l-0.5,2l-0.4,1.9    c-0.3,1.3-0.7,2.6-1,3.9l-4.5,16.1h-8.7l-8.1-31.4h6.1l4.5,17.2c0.3,1.1,0.6,2.6,1,4.6l0.5,2.3l0.5,2.3h0.2c0.2-1,0.4-1.8,0.5-2.3    l0.6-2.3c0.3-1.2,0.7-2.7,1.2-4.6l4.8-17.2h7l4.7,17.2c0.4,1.5,0.8,3,1.2,4.6l0.5,2.3l0.6,2.3h0.2l0.5-2.3l0.5-2.3    c0.4-1.9,0.8-3.4,1.1-4.6l4.6-17.2H281L281,770.6z M281,770.6"
         clip-path="url(#SVGID_6_)"
         id="path3825" /><path
         class="st3"
         d="M303.8,770.6h6.3L300,801.9h-9.1l-10-31.4h6.2l5.9,17.8c0.6,1.7,1.4,4.5,2.5,8.5h0.2l0.6-2.1    c0.7-2.7,1.4-4.8,1.9-6.4L303.8,770.6L303.8,770.6z M303.8,770.6"
         clip-path="url(#SVGID_6_)"
         id="path3827" /><path
         class="st3"
         d="M325.2,775.4c-4,0-6.3,0.5-7,1.5c-0.7,1-1,4.6-1,10.6c0,4.5,0.4,7.2,1.2,8.1c0.8,0.9,3.1,1.4,6.9,1.4    c3.7,0,5.9-0.5,6.6-1.5c0.7-1,1.1-4.2,1.1-9.4c0-5.2-0.3-8.3-1-9.3C331.3,775.9,329.1,775.4,325.2,775.4 M325.7,770.3    c5.7,0,9.4,0.9,11,2.8c1.6,1.9,2.5,6.1,2.5,12.7c0,7.2-0.8,11.7-2.5,13.6c-1.6,1.9-5.6,2.8-11.9,2.8c-5.7,0-9.4-0.9-11-2.8    c-1.7-1.8-2.5-5.9-2.5-12.2c0-7.5,0.8-12.1,2.5-14.1C315.3,771.3,319.3,770.3,325.7,770.3"
         clip-path="url(#SVGID_6_)"
         id="path3829" /><path
         class="st3"
         d="M349.1,801.9h-5.9v-31.4h5.9V801.9L349.1,801.9z M349.1,801.9"
         clip-path="url(#SVGID_6_)"
         id="path3831" /><path
         class="st3"
         d="M374,790.8h6v1.1c0,4.3-0.8,7.2-2.4,8.4c-1.6,1.3-5.1,1.9-10.6,1.9c-6.2,0-10-1-11.4-3    c-1.4-2-2.1-7.4-2.1-16.2c0-5.2,1-8.6,2.9-10.2c1.9-1.6,6-2.4,12.1-2.4c4.5,0,7.5,0.7,9,2c1.5,1.3,2.2,4,2.2,8l0,0.7h-6v-0.8    c0-2-0.4-3.4-1.2-3.9c-0.8-0.6-2.5-0.9-5.3-0.9c-3.7,0-5.9,0.4-6.6,1.4c-0.7,0.9-1.1,3.6-1.1,8c0,6,0.3,9.5,1,10.6    c0.7,1.1,2.8,1.7,6.5,1.7c3,0,4.9-0.3,5.7-0.9c0.9-0.6,1.3-1.9,1.3-4L374,790.8L374,790.8z M374,790.8"
         clip-path="url(#SVGID_6_)"
         id="path3833" /><path
         class="st3"
         d="M389,775.6v8.1h14.7v4.4H389v8.9h15.7v5h-21.6v-31.4h21.4v5H389L389,775.6z M389,775.6"
         clip-path="url(#SVGID_6_)"
         id="path3835" /><path
         class="st3"
         d="M444.1,770.6v31.4h-5.9v-17.1c0-1.4,0-2.9,0.1-4.6l0.1-2.3l0.1-2.3h-0.2l-0.7,2.2l-0.7,2.2    c-0.6,2-1.1,3.4-1.5,4.3l-6.9,17.7h-5.4l-7-17.5c-0.4-1-0.9-2.4-1.5-4.3l-0.7-2.2l-0.7-2.2H413l0.1,2.3l0.1,2.3    c0.1,1.8,0.1,3.3,0.1,4.6v17.1h-5.9v-31.4h9.7l5.6,14.5c0.4,1,0.9,2.5,1.5,4.3l0.7,2.2l0.7,2.2h0.2l0.7-2.2l0.7-2.2    c0.6-1.8,1.1-3.3,1.5-4.3l5.5-14.6H444.1L444.1,770.6z M444.1,770.6"
         clip-path="url(#SVGID_6_)"
         id="path3837" /><path
         class="st3"
         d="M454.9,775.6v8.1h14.7v4.4h-14.7v8.9h15.6v5H449v-31.4h21.4v5H454.9L454.9,775.6z M454.9,775.6"
         clip-path="url(#SVGID_6_)"
         id="path3839" /><path
         class="st3"
         d="M480.9,796.9h8.5c2.9,0,4.7-0.7,5.5-2c0.8-1.3,1.3-4.2,1.3-8.7c0-4.6-0.4-7.6-1.1-8.8    c-0.8-1.3-2.5-1.9-5.3-1.9h-8.8V796.9L480.9,796.9z M475,801.9v-31.4h15.4c4.4,0,7.5,1,9.2,2.9c1.8,1.9,2.6,5.3,2.6,10.1    c0,7.8-0.7,12.9-2.1,15.1c-1.4,2.2-4.6,3.3-9.6,3.3H475L475,801.9z M475,801.9"
         clip-path="url(#SVGID_6_)"
         id="path3841" /><path
         class="st3"
         d="M512.4,801.9h-5.9v-31.4h5.9V801.9L512.4,801.9z M512.4,801.9"
         clip-path="url(#SVGID_6_)"
         id="path3843" /><path
         class="st3"
         d="M535.5,791.6l-5.4-16.4l-5.3,16.4H535.5L535.5,791.6z M536.9,796h-13.5l-2,6h-6.3l10.4-31.4h8.9l10.6,31.4    h-6.2L536.9,796L536.9,796z M536.9,796"
         clip-path="url(#SVGID_6_)"
         id="path3845" /><path
         class="st3"
         d="M96.1,754c-1.6,0.8-3.7,2.1-6.6,4.1c-0.4,0.3-7.6,5-15,11.3c-10.6,8.9-15.9,16-16.1,21.6c0,0.1,0,0.3,0,0.4    c0,2.6,1.1,4.8,3.2,6.5l0,0c1.1,0.9,27.8,23.2,45.2,30c3.1,1.2,5.3,2,6.9,2.4c1.2,0.3,4.1,1.1,5.3-1.4c0.2-0.5,0.3-0.9,0.3-1.3    c0-2.1-2.3-3.7-4.4-5.1c-2.1-1.4-4.5-2.9-5.8-3.7c-0.1-0.1-9.5-5.6-18.8-12.2c-17.2-12.2-17.5-16.1-17.5-16.3c0,0,0-0.6,0.1-1.1    c0.9-1.8,5.2-8,23.8-24.7l0.1-0.1l0.1-0.1c0.1-0.1,1.4-1.5,2.7-3c1.2-1.4,2.8-3.3,2.8-5.2c0-0.7-0.2-1.3-0.7-1.9    C99.9,752,97.2,753.4,96.1,754"
         clip-path="url(#SVGID_6_)"
         id="path3847" /><path
         class="st3"
         d="M125.5,816.1c1.6-0.8,3.7-2.1,6.6-4.1c0.4-0.3,7.6-5,15-11.3c10.6-8.9,15.9-16,16.1-21.6c0-0.1,0-0.3,0-0.4    c0-2.6-1.1-4.8-3.2-6.5l0,0c-1.1-0.9-27.8-23.2-45.2-30c-3.1-1.2-5.3-2-6.9-2.4c-1.2-0.3-4.1-1.1-5.3,1.4    c-0.2,0.5-0.3,0.9-0.3,1.3c0,2.1,2.3,3.7,4.4,5.1c2.1,1.4,4.5,2.9,5.8,3.7c0.1,0.1,9.5,5.6,18.8,12.2    c17.2,12.2,17.5,16.1,17.5,16.3c0,0,0,0.6,0,1.1c-0.9,1.8-5.1,8-23.8,24.7l-0.1,0.1l-0.1,0.1c-0.1,0.1-1.4,1.5-2.7,3    c-1.2,1.4-2.8,3.3-2.8,5.2c0,0.7,0.2,1.3,0.7,1.9C121.7,818,124.4,816.6,125.5,816.1"
         clip-path="url(#SVGID_6_)"
         id="path3849" /><path
         class="st3"
         d="M102.2,793c-3.4,3.9-5,7.8-3.8,9.8c1.1,1.8,4,2.1,7.8,0.1c2.8-1.4,6.1-4.3,8.8-7.3    c7.5-8.1,10.6-18.5,6.9-23.2c-3.6-4.6-12.5-2-20,5.7c-0.6,0.4-1.2,0.7-2,0.8c-1.8,0.2-3.2-0.7-3.1-2.1c0-0.6,0.4-1,0.8-1.4    c9.5-12.2,22.6-17.4,29.2-11c6.6,6.5,3.2,17.9-7,29.8c-4.4,5.2-9.6,9.1-14.3,11c-4.6,1.9-8,1.3-10.4-1.9c-3.6-5-1.8-10.8,4.7-17.3    c0.7-0.7,3.3-2.7,3.9-3.2c3.2-2.2,11.4-1,12.4,1.6c1,2.6-0.4,5.4-3.9,5.5C104.8,790.3,103.4,792.1,102.2,793"
         clip-path="url(#SVGID_6_)"
         id="path3851" /></g></g><path
     id="XMLID_2_"
     d="M353.4,258.7c12.7,53.2,21.7,90.7,7.1,111.1c-1.9,2.7-7.5,10.4-16.9,12.9c-9.6,2.5-17.8-1.8-19.5-2.7  c-1-0.6-10.5-5.9-13-15.2c-1-3.9-2-8.9-2-8.9c-0.5-2.9-0.7-4.7-1.7-7.6c-1-3-2.6-4.9-3.6-6.1c-0.7-0.8-1.4-1.4-2.2-1.8  c-0.9-0.6-1.7-0.8-1.9-0.9c-0.9-0.3-1.5-0.3-2.3-0.3c-0.7,0-1.5-0.1-2.3,0.1c-0.7,0.1-2,0.5-3.4,1.6c-1.5-8.7-3.3-17.6-5.2-26.8  c-2.5-11.7-5.2-22.9-8.1-33.6c0,0-6.1-28.1-8.3-50.8c-0.1-0.8-0.1-1.5-0.2-2.1c-1.5-17.4-1-25.6,0.2-33c1.4-8.2,4.9-34.4,18.1-38  c2.7-0.8,5.3-0.4,6.5-0.2c7,1,11.6,5.8,17.8,12.4c3.9,4.2,6.5,7.6,8.2,10.2c5.4,8,10.9,17.2,16.1,29.6  C347.2,233,352.1,253.1,353.4,258.7z" /><path
     id="XMLID_3_"
     d="M310.3,279.5c-0.4,1.9-5.4,61.6-7.4,61.6c-0.2,0-0.2-0.2-1.1-0.8c0,0-1-0.6-2.1-0.9c-1.9-0.6-3.9-0.2-4.6,0  c-0.8,0.2-2,0.5-3.2,1.4c-1,0.7-1.6,1.5-2.2,2.3c-2.6,4-3.3,8.7-3.3,8.7s-1.2,4.8-4.3,13.7c-0.6,1.6-2.8,7.8-7.8,12.6  c-5.7,5.5-15.1,9.2-23.9,7.3c-8.8-1.9-13.9-8.8-16.3-11.9c-16.6-21.8-8.2-66.2,0.4-111.3c0.7-3.8,4.9-25.1,14.3-51.5  c5.4-15,8.8-22.3,13.8-29.4c5.3-7.6,19.5-27.9,32.4-25.1c11.9,2.6,16.5,23.6,19.3,36.1c2.5,11.3,2.7,19.6,2.2,34.3  c-0.8,23.6-4,42.3-5.5,50.2c0,0,0,0,0,0C310.5,278.4,310.3,279.5,310.3,279.5z" /><path
     d="M291.8,351.8"
     id="path3859" /><path
     d="M303.3,352.2"
     id="path3861" /><path
     id="XMLID_4_"
     d="M402.6,258.7c-12.7,53.2-21.7,90.7-7.1,111.1c1.9,2.7,7.5,10.4,16.9,12.9c8.9,2.3,16.7-1.3,19.5-2.7  c23.8-11.3,34.7-55.1,45.6-99.5c0.9-3.8,6-24.8,8.5-53c1.5-17.4,1-25.6-0.2-33c-1.7-10.5-5.7-34.4-18.1-38  c-12-3.5-25.7,13.8-32.5,22.4c-4.3,5.5-9,12.7-16.1,29.6C408.8,233,403.9,253.1,402.6,258.7z" /><path
     d="M303.8,342.1"
     id="path3864" /><path
     d="M300.6,341.6"
     id="path3866" /><path
     d="M298.1,339.2"
     id="path3868" /><path
     d="M303.5,340.9"
     id="path3870" /><path
     d="M297.6,345.3"
     id="path3872" /><ellipse
     transform="matrix(0.977 -0.2132 0.2132 0.977 -19.4719 24.9033)"
     cx="105.8"
     cy="102.8"
     rx="33.8"
     ry="46.3"
     id="ellipse3874" /><ellipse
     transform="matrix(0.1612 -0.9869 0.9869 0.1612 314.3699 560.6233)"
     cx="487"
     cy="95.4"
     rx="46.3"
     ry="33.8"
     id="ellipse3876" /><ellipse
     cx="291.8"
     cy="95.4"
     rx="33.8"
     ry="46.3"
     id="ellipse3878" /><path
     d="M536.7,396.2c-1.1-7.4-146.4-0.7-178.5,0.8c-85.7,4-39.7,4.6-150.7,11.8c0,0-51.3,3.3-112.6,22.6  c-26.2,8.2-28.1,13.4-27.9,15.4c1,7.9,42.6,8.3,45,8.3c17.6,0.1,28.2-2,49.7-5.2c41.6-6.2,34.6-3.4,70.3-9  c22.7-3.6,48.3-8.3,67.5-10c11.7-1,23.1-1.9,23.1-1.9c6-0.4,8.6-0.6,15.2-1.1c5.9-0.4,14.1-1,27.4-2.1c36.8-2.9,55.2-4.3,65.9-5.7  c31.1-4.2,53.5-9.7,73.8-14.7C526.3,400.3,536.9,397.7,536.7,396.2z"
     id="path3880" /><g
     aria-label="WrocławAgile Day"
     transform="matrix(1.1332 0 0 1 91.3333 543.225)"
     style="font-style:normal;font-variant:normal;font-weight:600;font-stretch:normal;font-family:'Proxima Nova';-inkscape-font-specification:'Proxima Nova Semi-Bold'"
     id="text3886"><path
       d="M 42.845,-46.74 30.59,0 H 18.715 L 0.57,-63.365 h 12.445 l 12.35,48.83 13.11,-48.83 h 8.835 l 13.11,48.83 12.255,-48.83 H 85.12 L 67.07,0 H 55.195 Z"
       style="font-style:normal;font-variant:normal;font-weight:600;font-stretch:normal;font-size:95px;font-family:'Proxima Nova';-inkscape-font-specification:'Proxima Nova Semi-Bold'"
       id="path3897" /><path
       d="m 89.399453,-45.885 h 9.975 v 6.745 q 2.659997,-3.42 6.649997,-5.605 3.99,-2.185 8.265,-2.185 v 9.88 q -1.33,-0.285 -3.135,-0.285 -3.135,0 -6.745,1.9 -3.515,1.805 -5.034997,4.18 V 0 h -9.975 z"
       style="font-style:normal;font-variant:normal;font-weight:600;font-stretch:normal;font-size:95px;font-family:'Proxima Nova';-inkscape-font-specification:'Proxima Nova Semi-Bold'"
       id="path3899" /><path
       d="m 143.1368,1.14 q -7.03,0 -12.445,-3.23 -5.32,-3.23 -8.265,-8.74 -2.85,-5.51 -2.85,-12.16 0,-6.555 2.85,-12.065 2.945,-5.51 8.265,-8.74 5.415,-3.23 12.445,-3.23 7.125,0 12.445,3.23 5.415,3.23 8.265,8.74 2.945,5.415 2.945,12.065 0,6.65 -2.945,12.16 -2.85,5.51 -8.265,8.74 -5.32,3.23 -12.445,3.23 z m 0,-8.835 q 6.175,0 9.69,-4.37 3.61,-4.465 3.61,-10.925 0,-6.365 -3.61,-10.735 -3.515,-4.465 -9.69,-4.465 -6.08,0 -9.69,4.465 -3.515,4.37 -3.515,10.735 0,6.46 3.515,10.925 3.61,4.37 9.69,4.37 z"
       style="font-style:normal;font-variant:normal;font-weight:600;font-stretch:normal;font-size:95px;font-family:'Proxima Nova';-inkscape-font-specification:'Proxima Nova Semi-Bold'"
       id="path3901" /><path
       d="m 173.94203,-22.99 q 0,-6.84 3.04,-12.35 3.04,-5.51 8.455,-8.55 5.415,-3.135 12.255,-3.135 11.495,0 17.575,8.17 l -6.555,6.08 q -3.8,-5.415 -10.545,-5.415 -6.27,0 -10.07,4.275 -3.8,4.18 -3.8,10.925 0,6.745 3.8,11.02 3.8,4.275 10.07,4.275 6.555,0 10.545,-5.415 l 6.555,6.08 q -6.08,8.17 -17.575,8.17 -6.84,0 -12.255,-3.04 -5.415,-3.135 -8.455,-8.645 -3.04,-5.51 -3.04,-12.445 z"
       style="font-style:normal;font-variant:normal;font-weight:600;font-stretch:normal;font-size:95px;font-family:'Proxima Nova';-inkscape-font-specification:'Proxima Nova Semi-Bold'"
       id="path3903" /><path
       d="m 244.91594,-35.625 -8.265,4.75 V 0 h -9.975 v -25.175 l -8.36,4.845 v -7.505 l 8.36,-4.845 v -30.685 h 9.975 v 24.985 l 8.265,-4.75 z"
       style="font-style:normal;font-variant:normal;font-weight:600;font-stretch:normal;font-size:95px;font-family:'Proxima Nova';-inkscape-font-specification:'Proxima Nova Semi-Bold'"
       id="path3905" /><path
       d="m 280.33461,-4.94 q -2.565,2.945 -6.46,4.56 -3.8,1.52 -8.36,1.52 -3.895,0 -7.6,-1.71 -3.705,-1.805 -6.08,-5.225 -2.28,-3.42 -2.28,-8.265 0,-5.035 2.28,-8.36 2.375,-3.325 5.985,-4.94 3.705,-1.615 7.695,-1.615 4.655,0 8.455,1.52 3.895,1.52 6.365,4.37 v -6.84 q 0,-3.99 -2.945,-6.27 -2.945,-2.28 -7.79,-2.28 -7.695,0 -13.585,5.795 l -4.085,-6.935 q 7.79,-7.41 19.285,-7.41 8.455,0 13.775,3.99 5.32,3.99 5.32,12.635 V 0 h -9.975 z m 0,-12.445 q -1.71,-2.28 -4.655,-3.515 -2.85,-1.235 -6.27,-1.235 -4.275,0 -7.03,2.28 -2.755,2.28 -2.755,5.985 0,3.705 2.755,5.985 2.755,2.185 7.03,2.185 3.42,0 6.27,-1.235 2.945,-1.235 4.655,-3.515 z"
       style="font-style:normal;font-variant:normal;font-weight:600;font-stretch:normal;font-size:95px;font-family:'Proxima Nova';-inkscape-font-specification:'Proxima Nova Semi-Bold'"
       id="path3907" /><path
       d="M 332.50445,-33.63 321.86445,0 h -10.45 l -14.25,-45.885 h 10.355 l 9.69,33.345 10.925,-33.345 h 8.74 l 10.925,33.345 9.69,-33.345 h 10.355 L 353.59445,0 h -10.45 z"
       style="font-style:normal;font-variant:normal;font-weight:600;font-stretch:normal;font-size:95px;font-family:'Proxima Nova';-inkscape-font-specification:'Proxima Nova Semi-Bold'"
       id="path3909" /><path
       d="m 27.955,66.240002 h -29.07 l -4.655,12.16 h -12.635 l 24.89,-63.365 h 13.87 l 24.89,63.365 H 32.61 Z m -25.935,-9.785 h 22.8 l -11.4,-30.21 z"
       style="font-style:normal;font-variant:normal;font-weight:600;font-stretch:normal;font-size:95px;font-family:'Proxima Nova';-inkscape-font-specification:'Proxima Nova Semi-Bold'"
       id="path3911" /><path
       d="m 56.058672,82.960002 q 2.66,3.135 6.175,4.465 3.61,1.425 8.36,1.425 5.7,0 9.595,-3.04 3.99,-2.945 3.99,-9.405 v -5.51 q -2.755,3.515 -6.555,5.605 -3.8,1.995 -8.17,1.995 -5.89,0 -10.545,-2.755 -4.56,-2.755 -7.22,-8.075 -2.565,-5.32 -2.565,-12.73 0,-7.22 2.565,-12.54 2.66,-5.415 7.22,-8.17 4.655,-2.85 10.545,-2.85 4.37,0 8.17,1.995 3.8,1.9 6.555,5.51 v -6.365 h 9.975 v 43.51 q 0,11.305 -6.84,16.15 -6.745,4.845 -16.72,4.845 -6.08,0 -10.64,-1.615 -4.465,-1.52 -8.55,-5.225 z m 28.12,-36.575 q -1.71,-2.565 -5.035,-4.37 -3.325,-1.805 -6.745,-1.805 -5.89,0 -9.405,4.085 -3.515,3.99 -3.515,10.64 0,6.65 3.515,10.735 3.515,3.99 9.405,3.99 3.42,0 6.745,-1.805 3.325,-1.805 5.035,-4.37 z"
       style="font-style:normal;font-variant:normal;font-weight:600;font-stretch:normal;font-size:95px;font-family:'Proxima Nova';-inkscape-font-specification:'Proxima Nova Semi-Bold'"
       id="path3913" /><path
       d="m 112.02109,26.910002 q -2.47,0 -4.37,-1.805 -1.805,-1.805 -1.805,-4.37 0,-2.565 1.805,-4.37 1.9,-1.805 4.37,-1.805 2.565,0 4.37,1.805 1.805,1.805 1.805,4.37 0,2.565 -1.805,4.37 -1.805,1.805 -4.37,1.805 z m -4.94,5.605 h 9.975 v 45.885 h -9.975 z"
       style="font-style:normal;font-variant:normal;font-weight:600;font-stretch:normal;font-size:95px;font-family:'Proxima Nova';-inkscape-font-specification:'Proxima Nova Semi-Bold'"
       id="path3915" /><path
       d="m 129.90336,15.035002 h 9.975 v 63.365 h -9.975 z"
       style="font-style:normal;font-variant:normal;font-weight:600;font-stretch:normal;font-size:95px;font-family:'Proxima Nova';-inkscape-font-specification:'Proxima Nova Semi-Bold'"
       id="path3917" /><path
       d="m 149.87563,55.410002 q 0,-6.65 2.94499,-12.065 3.04,-5.51 8.36,-8.74 5.32001,-3.23 11.97,-3.23 6.745,0 11.875,3.23 5.13,3.23 7.885,8.93 2.85,5.605 2.85,12.825 v 2.375 h -35.435 q 0.57,5.415 4.465,9.025 3.89501,3.61 10.165,3.61 3.515,0 7.03,-1.33 3.61,-1.33 5.985,-3.705 l 4.56,6.555 q -3.42,3.23 -8.265,4.94 -4.845,1.71 -10.355,1.71 -6.84,0 -12.35,-2.945 -5.415,-3.04 -8.55,-8.55 -3.13499,-5.51 -3.13499,-12.635 z m 23.27499,-15.865 q -5.89,0 -9.215,3.705 -3.325,3.61 -3.705,8.455 h 25.84 q -0.095,-2.945 -1.52,-5.7 -1.42499,-2.85 -4.275,-4.655 -2.85,-1.805 -7.125,-1.805 z"
       style="font-style:normal;font-variant:normal;font-weight:600;font-stretch:normal;font-size:95px;font-family:'Proxima Nova';-inkscape-font-specification:'Proxima Nova Semi-Bold'"
       id="path3919" /><path
       d="m 230.38367,15.035002 h 23.56 q 9.785,0 17.29,4.085 7.505,3.99 11.685,11.21 4.18,7.22 4.18,16.435 0,9.215 -4.18,16.435 -4.18,7.125 -11.685,11.21 -7.505,3.99 -17.29,3.99 h -23.56 z m 23.56,53.58 q 6.65,0 11.59,-2.85 4.94,-2.945 7.505,-7.885 2.66,-5.035 2.66,-11.115 0,-6.175 -2.565,-11.115 -2.47,-5.035 -7.41,-7.885 -4.94,-2.945 -11.78,-2.945 h -12.445 v 43.795 z"
       style="font-style:normal;font-variant:normal;font-weight:600;font-stretch:normal;font-size:95px;font-family:'Proxima Nova';-inkscape-font-specification:'Proxima Nova Semi-Bold'"
       id="path3921" /><path
       d="m 325.66273,73.460002 q -2.565,2.945 -6.46,4.56 -3.8,1.52 -8.36,1.52 -3.895,0 -7.6,-1.71 -3.705,-1.805 -6.08,-5.225 -2.28,-3.42 -2.28,-8.265 0,-5.035 2.28,-8.36 2.375,-3.325 5.985,-4.94 3.705,-1.615 7.695,-1.615 4.655,0 8.455,1.52 3.895,1.52 6.365,4.37 v -6.84 q 0,-3.99 -2.945,-6.27 -2.945,-2.28 -7.79,-2.28 -7.695,0 -13.585,5.795 l -4.085,-6.935 q 7.79,-7.41 19.285,-7.41 8.455,0 13.775,3.99 5.32,3.99 5.32,12.635 v 30.4 h -9.975 z m 0,-12.445 q -1.71,-2.28 -4.655,-3.515 -2.85,-1.235 -6.27,-1.235 -4.275,0 -7.03,2.28 -2.755,2.28 -2.755,5.985 0,3.705 2.755,5.985 2.755,2.185 7.03,2.185 3.42,0 6.27,-1.235 2.945,-1.235 4.655,-3.515 z"
       style="font-style:normal;font-variant:normal;font-weight:600;font-stretch:normal;font-size:95px;font-family:'Proxima Nova';-inkscape-font-specification:'Proxima Nova Semi-Bold'"
       id="path3923" /><path
       d="m 348.00258,87.425002 q 1.71,0.76 3.8,0.76 2.47,0 3.99,-0.95 1.615,-0.855 2.565,-3.04 l 2.28,-5.225 -18.81,-46.455 h 10.64 l 13.395,34.39 13.395,-34.39 h 10.735 l -22.135,54.15 q -2.28,5.605 -6.175,7.885 -3.895,2.375 -9.595,2.47 -1.235,0 -2.945,-0.19 -1.615,-0.19 -2.66,-0.475 z"
       style="font-style:normal;font-variant:normal;font-weight:600;font-stretch:normal;font-size:95px;font-family:'Proxima Nova';-inkscape-font-specification:'Proxima Nova Semi-Bold'"
       id="path3925" /></g><path
     d="M295.5,340.7"
     id="path3888" /></svg>