<!DOCTYPE svg PUBLIC "-//W3C//DTD SVG 20010904//EN" "http://www.w3.org/TR/2001/REC-SVG-20010904/DTD/svg10.dtd">
<svg version="1.0" xmlns="http://www.w3.org/2000/svg" width="1529px" height="1600px" viewBox="0 0 15290 16000" preserveAspectRatio="xMidYMid meet">
<g id="layer1" fill="black" stroke="none">
 <path d="M5470 14700 l0 -240 63 1 62 0 125 144 125 144 3 -144 3 -145 64 0 65 0 -2 238 -3 237 -55 3 c-52 3 -58 1 -85 -30 -51 -59 -159 -182 -190 -216 -16 -19 -34 -41 -40 -50 -7 -12 -11 28 -15 138 l-5 155 -57 3 -58 3 0 -241z"/>
 <path d="M6090 14700 l0 -240 200 0 200 0 0 40 0 40 -140 0 -140 0 0 55 0 55 135 0 135 0 0 40 0 40 -135 0 -135 0 0 60 0 60 140 0 140 0 0 45 0 45 -200 0 -200 0 0 -240z"/>
 <path d="M6689 14913 c-6 -15 -44 -124 -84 -240 l-72 -213 67 0 67 0 11 38 c27 88 63 211 76 257 l13 50 38 -120 c20 -66 45 -144 54 -173 l16 -53 49 3 48 3 30 90 c16 50 31 99 33 110 11 51 43 129 48 115 15 -41 37 -113 52 -171 9 -35 22 -82 30 -104 l13 -40 66 -3 c36 -2 66 -1 66 2 0 5 -144 432 -155 459 -6 13 -19 17 -69 17 l-61 0 -23 -77 c-13 -43 -36 -118 -51 -167 l-28 -90 -23 75 c-12 41 -24 81 -26 89 -2 8 -14 49 -28 90 l-24 75 -61 3 c-59 3 -62 2 -72 -25z"/>
 <path d="M8135 14930 c-116 -30 -205 -128 -205 -227 0 -107 72 -198 185 -232 78 -24 130 -26 200 -7 133 35 203 114 206 234 2 74 -30 137 -93 183 -72 52 -200 73 -293 49z m186 -93 c105 -56 106 -219 2 -279 -109 -64 -245 -8 -267 111 -13 69 28 150 88 177 44 20 133 15 177 -9z"/>
 <path d="M9003 14922 c-99 -35 -157 -96 -175 -184 -27 -132 59 -240 221 -278 98 -23 227 8 285 69 l27 28 -50 21 c-48 20 -50 20 -66 1 -29 -31 -98 -52 -149 -45 -164 25 -208 235 -62 305 71 35 166 24 205 -23 17 -20 35 -19 85 3 l39 17 -24 23 c-61 59 -99 74 -194 78 -70 3 -102 -1 -142 -15z"/>
 <path d="M7427 14702 c-59 -125 -107 -231 -107 -235 0 -4 30 -7 66 -5 l66 3 76 177 c42 98 80 174 84 170 3 -4 40 -83 80 -177 l74 -170 67 -3 c37 -2 67 -1 67 2 0 4 -41 94 -132 286 -28 58 -57 122 -65 143 l-15 37 -78 0 -77 0 -106 -228z"/>
 <path d="M8610 14695 l0 -235 60 0 60 0 0 235 0 235 -60 0 -60 0 0 -235z"/>
 <path d="M9430 14695 l0 -235 205 0 205 0 0 40 0 40 -140 0 -140 0 0 55 0 55 135 0 135 0 0 40 0 40 -135 0 -135 0 0 60 0 60 140 0 140 0 0 40 0 40 -205 0 -205 0 0 -235z"/>
 <path d="M2600 2386 c-107 -33 -162 -59 -245 -117 -232 -160 -406 -429 -484 -749 -28 -115 -36 -184 -36 -320 0 -167 14 -258 60 -397 75 -225 270 -431 460 -485 22 -6 47 -13 55 -16 8 -2 60 -6 115 -8 126 -4 226 20 342 81 383 203 632 671 618 1160 -2 77 -7 154 -10 170 -29 141 -59 228 -118 339 -46 86 -159 216 -232 265 -39 27 -150 76 -199 88 -11 3 -73 7 -136 9 -99 3 -125 1 -190 -20z"/>
 <path d="M7341 2139 c-158 -40 -329 -164 -437 -315 -147 -205 -225 -479 -219 -764 7 -351 115 -632 324 -841 88 -88 190 -152 294 -184 93 -28 244 -33 332 -10 333 87 590 437 646 881 15 119 7 350 -15 453 -61 279 -191 508 -370 647 -169 133 -368 181 -555 133z"/>
 </g>
<g id="layer2" fill="black" stroke="none">
 <path d="M5076 14965 c14 -25 28 -45 30 -45 7 0 -35 78 -45 85 -6 3 2 -15 15 -40z"/>
 <path d="M4628 14933 c12 -2 32 -2 45 0 12 2 2 4 -23 4 -25 0 -35 -2 -22 -4z"/>
 <path d="M5464 14700 c0 -135 2 -190 3 -122 2 67 2 177 0 245 -1 67 -3 12 -3 -123z"/>
 <path d="M6084 14700 c0 -135 2 -190 3 -122 2 67 2 177 0 245 -1 67 -3 12 -3 -123z"/>
 <path d="M7520 14919 c-7 -11 -9 -23 -7 -26 3 -2 8 5 12 16 5 18 16 21 88 24 l82 3 -82 2 c-74 2 -83 0 -93 -19z"/>
 <path d="M8667 14933 l63 -4 3 -237 2 -237 3 243 2 242 -67 -2 -68 -2 62 -3z"/>
 <path d="M9533 14933 c59 -2 154 -2 210 0 56 1 8 3 -108 3 -115 0 -161 -2 -102 -3z"/>
 <path d="M9930 14700 l0 -240 90 0 90 0 66 138 66 137 66 -137 66 -138 93 0 93 0 0 240 0 240 -65 0 -65 0 -1 -162 0 -163 -79 163 c-75 154 -80 162 -108 162 -27 0 -33 -8 -105 -157 l-76 -158 -1 158 0 157 -65 0 -65 0 0 -240z"/>
 <path d="M10660 14700 l0 -240 205 0 205 0 0 40 0 40 -140 0 -140 0 0 50 0 50 140 0 140 0 0 45 0 45 -140 0 -140 0 0 60 0 60 140 0 140 0 0 45 0 45 -205 0 -205 0 0 -240z"/>
 <path d="M11160 14701 l0 -241 153 0 c167 0 218 10 281 53 65 44 90 91 94 177 4 71 2 78 -30 125 -26 40 -48 57 -102 85 -69 34 -70 34 -233 38 l-163 4 0 -241z m291 138 c59 -18 101 -68 107 -127 10 -107 -66 -172 -200 -172 l-68 0 0 155 0 155 61 0 c34 0 79 -5 100 -11z"/>
 <path d="M11770 14700 l0 -240 65 0 65 0 0 240 0 240 -65 0 -65 0 0 -240z"/>
 <path d="M11950 14934 c0 -8 55 -131 119 -269 29 -60 62 -131 74 -157 l22 -48 80 0 81 0 46 98 c107 222 159 336 164 358 6 24 5 24 -65 24 l-71 0 -16 -40 -16 -40 -122 0 -121 0 -17 40 -17 40 -70 0 c-39 0 -71 -3 -71 -6z m370 -190 c-6 -14 -21 -50 -35 -80 -14 -30 -25 -59 -25 -64 0 -19 -21 -10 -29 13 -10 24 -61 137 -68 150 -2 4 34 7 81 7 l86 0 -10 -26z"/>
 <path d="M5111 14905 c0 -5 6 -21 14 -35 8 -14 14 -20 14 -15 0 6 -6 21 -14 35 -8 14 -14 21 -14 15z"/>
 <path d="M8895 14869 c-20 -18 -40 -41 -46 -53 -6 -11 1 -7 15 11 15 17 39 41 54 52 15 11 24 21 20 21 -4 0 -23 -14 -43 -31z"/>
 <path d="M7989 14853 l-34 -38 38 34 c20 19 37 36 37 38 0 8 -8 0 -41 -34z"/>
 <path d="M8460 14855 c40 -48 43 -51 32 -30 -6 11 -21 29 -34 40 -22 19 -22 19 2 -10z"/>
 <path d="M8112 14823 c-15 -16 -19 -21 -7 -12 11 9 29 21 40 27 11 6 14 12 8 12 -7 0 -25 -12 -41 -27z"/>
 <path d="M9229 14818 c14 -16 32 -28 40 -27 14 0 14 1 1 6 -8 3 -26 15 -40 27 l-25 21 24 -27z"/>
 <path d="M6480 14690 l0 -39 -137 -4 -138 -3 143 -2 142 -2 0 45 c0 25 -2 45 -5 45 -3 0 -5 -18 -5 -40z"/>
 <path d="M8523 14685 c0 -27 2 -38 4 -22 2 15 2 37 0 50 -2 12 -4 0 -4 -28z"/>
 <path d="M9830 14690 l0 -39 -137 -4 -138 -3 143 -2 142 -2 0 45 c0 25 -2 45 -5 45 -3 0 -5 -18 -5 -40z"/>
 <path d="M5127 14708 c2 -5 22 -8 44 -8 21 0 39 3 39 8 0 4 -20 7 -44 7 -24 0 -42 -3 -39 -7z"/>
 <path d="M4923 14703 c15 -2 37 -2 50 0 12 2 0 4 -28 4 -27 0 -38 -2 -22 -4z"/>
 <path d="M5775 14668 l-40 -43 43 40 c39 36 47 45 39 45 -2 0 -21 -19 -42 -42z"/>
 <path d="M8061 14649 c-1 -8 6 -24 15 -35 15 -19 15 -19 6 1 -5 11 -12 27 -15 35 -5 13 -6 13 -6 -1z"/>
 <path d="M4628 14613 c12 -2 32 -2 45 0 12 2 2 4 -23 4 -25 0 -35 -2 -22 -4z"/>
 <path d="M8489 14583 c-22 -46 -22 -50 1 -15 13 18 20 35 18 37 -3 3 -11 -7 -19 -22z"/>
 <path d="M8105 14575 c11 -9 29 -21 40 -26 l20 -10 -20 16 c-11 9 -29 21 -40 26 l-20 10 20 -16z"/>
 <path d="M9348 14561 c10 -6 4 -16 -22 -39 -19 -16 -44 -33 -56 -37 -12 -4 -19 -9 -17 -12 8 -8 49 17 84 50 31 29 35 47 10 47 -8 0 -8 -3 1 -9z"/>
 <path d="M4153 14523 c9 -2 25 -2 35 0 9 3 1 5 -18 5 -19 0 -27 -2 -17 -5z"/>
 <path d="M8920 14505 c0 -7 61 -37 66 -33 2 3 -12 12 -31 21 -19 9 -35 15 -35 12z"/>
 <path d="M7300 14495 c0 -5 4 -16 9 -23 6 -11 10 -10 15 4 3 9 4 19 1 22 -3 3 -5 -1 -5 -9 0 -11 -2 -11 -10 1 -5 8 -10 11 -10 5z"/>
 <path d="M3638 14420 c-20 -11 -39 -24 -43 -29 -3 -6 15 2 40 15 25 14 45 28 45 30 0 6 -1 5 -42 -16z"/>
 <path d="M13087 14406 c23 -20 57 -59 74 -86 36 -55 48 -65 25 -22 -19 37 -93 120 -120 133 -11 6 -2 -5 21 -25z"/>
 <path d="M4710 14328 c41 -45 50 -53 50 -45 0 2 -21 23 -47 47 l-48 45 45 -47z"/>
 <path d="M3818 14184 c-38 -20 -36 -28 2 -9 17 9 30 18 30 20 0 7 -1 6 -32 -11z"/>
 <path d="M5595 13280 c0 -382 1 -539 2 -347 2 191 2 503 0 695 -1 191 -2 34 -2 -348z"/>
 <path d="M6315 13020 c0 -525 1 -740 2 -477 2 262 2 692 0 955 -1 262 -2 47 -2 -478z"/>
 <path d="M8985 13020 c0 -525 1 -740 2 -477 2 262 2 692 0 955 -1 262 -2 47 -2 -478z"/>
 <path d="M11852 13906 l-2 -70 -37 34 -38 35 37 -40 c21 -21 40 -36 43 -33 3 3 4 37 2 74 l-3 69 -2 -69z"/>
 <path d="M12215 13515 c0 -253 1 -355 2 -227 2 128 2 335 0 460 -1 125 -2 20 -2 -233z"/>
 <path d="M4865 13270 c0 -377 1 -531 2 -342 2 188 2 496 0 685 -1 188 -2 34 -2 -343z"/>
 <path d="M3778 13894 c-38 -20 -36 -28 2 -9 17 9 30 18 30 20 0 7 -1 6 -32 -11z"/>
 <path d="M4370 13868 c3 -2 34 -31 70 -63 l65 -59 -50 53 c-27 29 -59 57 -70 63 -11 6 -18 9 -15 6z"/>
 <path d="M7854 13847 l30 -24 -23 -31 c-12 -18 -20 -32 -17 -32 2 0 14 14 26 30 24 33 18 50 -24 71 -13 7 -9 1 8 -14z"/>
 <path d="M10985 13759 c-9 -17 -15 -33 -13 -35 3 -2 12 12 21 31 21 43 13 47 -8 4z"/>
 <path d="M10475 13692 c38 -40 71 -72 73 -72 8 0 -46 58 -93 100 -35 31 -30 23 20 -28z"/>
 <path d="M11823 13644 c27 -30 28 -36 25 -112 -2 -44 0 -78 5 -75 4 2 7 39 7 82 0 75 -1 78 -32 107 l-33 29 28 -31z"/>
 <path d="M1997 13648 c2 -5 186 -8 408 -8 222 0 406 3 408 8 3 4 -181 7 -408 7 -227 0 -411 -3 -408 -7z"/>
 <path d="M7064 13618 l-29 -33 33 29 c30 28 37 36 29 36 -2 0 -16 -15 -33 -32z"/>
 <path d="M9483 13643 c53 -2 141 -2 195 0 53 1 9 3 -98 3 -107 0 -151 -2 -97 -3z"/>
 <path d="M3955 13590 c-16 -16 -27 -31 -24 -33 2 -1 18 12 36 30 17 18 28 33 24 33 -4 0 -20 -13 -36 -30z"/>
 <path d="M4420 13597 c0 -2 15 -16 33 -33 l32 -29 -29 33 c-28 30 -36 37 -36 29z"/>
 <path d="M10933 13530 c0 -25 2 -35 4 -22 2 12 2 32 0 45 -2 12 -4 2 -4 -23z"/>
 <path d="M11302 13540 c0 -19 2 -27 5 -17 2 9 2 25 0 35 -3 9 -5 1 -5 -18z"/>
 <path d="M10150 13475 c30 -30 57 -55 59 -55 3 0 -19 25 -49 55 -30 30 -57 55 -59 55 -3 0 19 -25 49 -55z"/>
 <path d="M10242 13353 c18 -34 34 -60 36 -58 5 4 -33 76 -52 100 -9 11 -2 -8 16 -42z"/>
 <path d="M7983 13330 c0 -41 2 -58 4 -37 2 20 2 54 0 75 -2 20 -4 3 -4 -38z"/>
 <path d="M10970 13334 c0 -11 38 -74 45 -74 2 0 -5 17 -17 38 -27 46 -28 48 -28 36z"/>
 <path d="M6583 13280 c0 -25 2 -35 4 -22 2 12 2 32 0 45 -2 12 -4 2 -4 -23z"/>
 <path d="M3843 13255 c0 -22 2 -30 4 -17 2 12 2 30 0 40 -3 9 -5 -1 -4 -23z"/>
 <path d="M11060 13208 c24 -27 45 -48 47 -48 8 0 0 9 -44 50 l-48 45 45 -47z"/>
 <path d="M11839 13223 c-9 -10 -9 -14 -2 -10 9 6 13 -16 16 -85 l3 -93 2 103 c1 56 0 102 -2 102 -2 0 -10 -8 -17 -17z"/>
 <path d="M10743 13020 c0 -41 2 -58 4 -37 2 20 2 54 0 75 -2 20 -4 3 -4 -38z"/>
 <path d="M11398 13073 c12 -2 30 -2 40 0 9 3 -1 5 -23 4 -22 0 -30 -2 -17 -4z"/>
 <path d="M3880 13046 c0 -11 30 -66 36 -66 2 0 -3 15 -12 33 -19 36 -24 44 -24 33z"/>
 <path d="M4430 12938 c-30 -28 -46 -46 -35 -40 19 10 104 92 95 92 -3 -1 -30 -24 -60 -52z"/>
 <path d="M7912 12955 c-17 -37 -14 -45 4 -12 9 16 14 31 11 33 -2 2 -9 -7 -15 -21z"/>
 <path d="M3945 12941 c31 -35 111 -91 129 -91 6 0 -9 12 -34 26 -25 14 -63 42 -85 62 -39 36 -39 37 -10 3z"/>
 <path d="M7057 12920 c18 -19 34 -32 36 -29 2 2 -12 17 -32 33 l-36 30 32 -34z"/>
 <path d="M7534 12918 l-29 -33 33 29 c30 28 37 36 29 36 -2 0 -16 -15 -33 -32z"/>
 <path d="M7840 12828 c-15 -21 -17 -28 -6 -19 16 13 41 51 33 51 -2 0 -14 -15 -27 -32z"/>
 <path d="M4168 12833 c12 -2 32 -2 45 0 12 2 2 4 -23 4 -25 0 -35 -2 -22 -4z"/>
 <path d="M12155 12810 c-9 -16 -13 -30 -11 -30 3 0 12 14 21 30 9 17 13 30 11 30 -3 0 -12 -13 -21 -30z"/>
 <path d="M6785 12760 c21 -22 41 -40 44 -40 3 0 -13 18 -34 40 -21 22 -41 40 -44 40 -3 0 13 -18 34 -40z"/>
 <path d="M7770 12745 c-24 -25 -42 -45 -39 -45 3 0 25 20 49 45 24 25 42 45 39 45 -3 0 -25 -20 -49 -45z"/>
 <path d="M11010 12763 c0 -11 26 -36 50 -47 8 -4 6 0 -5 8 -11 9 -26 24 -32 33 -7 9 -13 12 -13 6z"/>
 <path d="M4450 12715 c-24 -25 -42 -45 -39 -45 3 0 25 20 49 45 24 25 42 45 39 45 -3 0 -25 -20 -49 -45z"/>
 <path d="M3665 12710 c21 -22 41 -40 44 -40 3 0 -13 18 -34 40 -21 22 -41 40 -44 40 -3 0 13 -18 34 -40z"/>
 <path d="M1895 12708 c4 -13 11 -27 16 -33 5 -5 4 5 -2 23 -12 36 -24 44 -14 10z"/>
 <path d="M11110 12685 c0 -7 61 -37 66 -33 2 3 -12 12 -31 21 -19 9 -35 15 -35 12z"/>
 <path d="M4320 12620 c-19 -11 -31 -19 -27 -20 11 0 67 29 67 35 0 7 -1 7 -40 -15z"/>
 <path d="M10196 12602 c-22 -27 -24 -32 -7 -17 20 17 47 55 39 55 -2 0 -16 -17 -32 -38z"/>
 <path d="M11593 12553 c9 -2 25 -2 35 0 9 3 1 5 -18 5 -19 0 -27 -2 -17 -5z"/>
 <path d="M10580 12468 c-15 -21 -17 -28 -6 -19 16 13 41 51 33 51 -2 0 -14 -15 -27 -32z"/>
 <path d="M5393 12443 c9 -2 25 -2 35 0 9 3 1 5 -18 5 -19 0 -27 -2 -17 -5z"/>
 <path d="M5561 12375 c15 -16 31 -39 37 -50 6 -11 12 -14 12 -7 0 7 -17 30 -37 50 -21 21 -26 24 -12 7z"/>
 <path d="M9498 12393 c61 -2 163 -2 225 0 61 1 11 3 -113 3 -124 0 -174 -2 -112 -3z"/>
 <path d="M10469 12333 l-34 -38 38 34 c34 33 42 41 34 41 -2 0 -19 -17 -38 -37z"/>
 <path d="M5623 12225 c0 -22 2 -30 4 -17 2 12 2 30 0 40 -3 9 -5 -1 -4 -23z"/>
 <path d="M10288 12204 c-38 -20 -36 -28 2 -9 17 9 30 18 30 20 0 7 -1 6 -32 -11z"/>
 <path d="M6763 11493 c15 -2 39 -2 55 0 15 2 2 4 -28 4 -30 0 -43 -2 -27 -4z"/>
 <path d="M7948 11493 c18 -2 45 -2 60 0 15 2 0 4 -33 4 -33 0 -45 -2 -27 -4z"/>
 <path d="M9423 11493 c15 -2 37 -2 50 0 12 2 0 4 -28 4 -27 0 -38 -2 -22 -4z"/>
 <path d="M4030 11461 c-5 -11 -10 -26 -9 -33 0 -7 5 -1 11 14 l9 27 132 4 132 3 -132 2 c-122 2 -133 0 -143 -17z"/>
 <path d="M4827 11473 c-4 -3 -7 -11 -7 -17 0 -7 3 -6 8 1 5 8 49 13 137 16 l130 3 -131 2 c-72 1 -134 -1 -137 -5z"/>
 <path d="M5620 11060 l0 -420 115 0 115 0 0 56 c0 52 1 55 18 43 12 -10 12 -8 -3 10 l-20 23 -3 -61 -3 -61 -104 0 -105 0 0 410 0 410 105 0 105 0 3 -287 2 -288 3 293 2 292 -115 0 -115 0 0 -420z"/>
 <path d="M8703 11473 l107 -4 0 -274 c0 -150 3 -276 8 -278 4 -3 6 123 4 279 l-3 284 -112 -2 -112 -2 108 -3z"/>
 <path d="M9750 11439 c0 -38 -1 -40 -17 -28 -16 13 -17 12 -4 -3 21 -28 31 -21 31 22 l0 40 105 0 105 0 3 -277 2 -278 3 283 2 282 -115 0 -115 0 0 -41z"/>
 <path d="M10425 11470 c-4 -6 -4 -14 -1 -17 3 -4 6 -1 6 5 0 15 226 17 233 2 3 -6 4 -5 3 2 -3 17 -231 24 -241 8z"/>
 <path d="M11112 11468 c-7 -7 -12 -16 -12 -22 0 -5 6 -2 13 8 11 15 27 17 125 14 62 -2 112 0 112 5 0 13 -225 8 -238 -5z"/>
 <path d="M6400 11355 c-24 -25 -42 -45 -39 -45 3 0 25 20 49 45 24 25 42 45 39 45 -3 0 -25 -20 -49 -45z"/>
 <path d="M7170 11358 c41 -45 50 -53 50 -45 0 2 -21 23 -47 47 l-48 45 45 -47z"/>
 <path d="M7575 11348 l-50 -53 53 50 c48 46 57 55 49 55 -1 0 -25 -24 -52 -52z"/>
 <path d="M9124 11345 c-9 -14 -15 -27 -13 -30 3 -2 12 10 21 26 21 36 15 39 -8 4z"/>
 <path d="M9711 11297 c31 -21 34 -27 37 -81 2 -36 -2 -64 -10 -74 -12 -15 -11 -16 5 -3 13 10 17 28 17 75 0 58 -2 62 -33 84 -18 12 -37 22 -42 22 -4 0 7 -10 26 -23z"/>
 <path d="M6985 11270 c21 -22 41 -40 44 -40 3 0 -13 18 -34 40 -21 22 -41 40 -44 40 -3 0 13 -18 34 -40z"/>
 <path d="M6579 11263 l-34 -38 38 34 c34 33 42 41 34 41 -2 0 -19 -17 -38 -37z"/>
 <path d="M7231 11295 c0 -5 8 -26 19 -45 11 -19 19 -30 19 -25 0 6 -8 26 -19 45 -11 19 -19 31 -19 25z"/>
 <path d="M7759 11263 l-34 -38 38 34 c34 33 42 41 34 41 -2 0 -19 -17 -38 -37z"/>
 <path d="M8182 11275 c23 -24 30 -27 40 -16 11 11 10 13 0 6 -8 -4 -24 2 -40 16 l-27 23 27 -29z"/>
 <path d="M6325 11260 c-9 -16 -13 -30 -11 -30 3 0 12 14 21 30 9 17 13 30 11 30 -3 0 -12 -13 -21 -30z"/>
 <path d="M9312 11220 c0 -19 2 -27 5 -17 2 9 2 25 0 35 -3 9 -5 1 -5 -18z"/>
 <path d="M10547 11229 c-7 -28 -6 -31 10 -14 6 6 8 18 3 24 -5 9 -9 5 -13 -10z"/>
 <path d="M9320 11163 c0 -5 12 -20 28 -34 l27 -24 -25 30 c-14 17 -26 32 -27 34 -2 2 -3 0 -3 -6z"/>
 <path d="M8410 11040 c0 -68 1 -70 31 -85 17 -9 33 -14 35 -12 3 2 -9 10 -26 17 -31 13 -32 13 -28 82 2 37 0 68 -4 68 -5 0 -8 -31 -8 -70z"/>
 <path d="M6503 11060 c0 -25 2 -35 4 -22 2 12 2 32 0 45 -2 12 -4 2 -4 -23z"/>
 <path d="M7073 11060 c0 -25 2 -35 4 -22 2 12 2 32 0 45 -2 12 -4 2 -4 -23z"/>
 <path d="M7683 11060 c0 -25 2 -35 4 -22 2 12 2 32 0 45 -2 12 -4 2 -4 -23z"/>
 <path d="M9513 11073 c9 -2 25 -2 35 0 9 3 1 5 -18 5 -19 0 -27 -2 -17 -5z"/>
 <path d="M9729 11013 c-13 -16 -12 -17 3 -5 16 13 17 8 21 -60 l3 -73 2 78 c2 78 -4 91 -29 60z"/>
 <path d="M5281 10900 c0 -8 4 -24 9 -35 5 -13 9 -14 9 -5 0 8 -4 24 -9 35 -5 13 -9 14 -9 5z"/>
 <path d="M7243 10859 c-12 -21 -17 -37 -12 -33 11 6 42 64 37 69 -2 2 -13 -14 -25 -36z"/>
 <path d="M7730 10887 c0 -2 15 -16 33 -33 l32 -29 -29 33 c-28 30 -36 37 -36 29z"/>
 <path d="M6560 10877 c0 -2 15 -16 33 -33 l32 -29 -29 33 c-28 30 -36 37 -36 29z"/>
 <path d="M6984 10848 l-29 -33 33 29 c30 28 37 36 29 36 -2 0 -16 -15 -33 -32z"/>
 <path d="M8179 10843 l-24 -28 30 25 c17 14 32 26 34 28 2 1 0 2 -6 2 -5 0 -20 -12 -34 -27z"/>
 <path d="M5890 10855 c0 -7 61 -37 66 -33 2 3 -12 12 -31 21 -19 9 -35 15 -35 12z"/>
 <path d="M7570 10778 c41 -45 50 -53 50 -45 0 2 -21 23 -47 47 l-48 45 45 -47z"/>
 <path d="M6395 10770 c21 -22 41 -40 44 -40 3 0 -13 18 -34 40 -21 22 -41 40 -44 40 -3 0 13 -18 34 -40z"/>
 <path d="M7175 10768 l-40 -43 43 40 c39 36 47 45 39 45 -2 0 -21 -19 -42 -42z"/>
 <path d="M9939 10788 c-6 -13 -25 -39 -43 -58 l-31 -35 33 30 c31 27 70 85 58 85 -3 0 -10 -10 -17 -22z"/>
 <path d="M6158 10710 c-2 -50 0 -90 5 -90 4 0 7 41 7 90 0 50 -2 90 -4 90 -3 0 -6 -41 -8 -90z"/>
 <path d="M8330 10777 c11 -15 10 -21 -11 -45 l-23 -27 29 27 c29 27 29 28 10 45 -18 17 -18 17 -5 0z"/>
 <path d="M6773 10773 c9 -2 25 -2 35 0 9 3 1 5 -18 5 -19 0 -27 -2 -17 -5z"/>
 <path d="M7973 10773 c15 -2 37 -2 50 0 12 2 0 4 -28 4 -27 0 -38 -2 -22 -4z"/>
 <path d="M8812 10553 c2 -231 6 -204 10 75 2 83 0 152 -4 152 -5 0 -7 -102 -6 -227z"/>
 <path d="M9508 10773 c12 -2 30 -2 40 0 9 3 -1 5 -23 4 -22 0 -30 -2 -17 -4z"/>
 <path d="M7097 10711 c-41 -26 -46 -36 -10 -17 17 9 35 20 38 26 8 13 6 12 -28 -9z"/>
 <path d="M8930 10725 c0 -7 61 -37 66 -33 2 3 -12 12 -31 21 -19 9 -35 15 -35 12z"/>
 <path d="M8258 10694 c-38 -20 -36 -28 2 -9 17 9 30 18 30 20 0 7 -1 6 -32 -11z"/>
 <path d="M10783 10660 c3 -12 25 -16 105 -18 56 -1 102 1 102 5 0 4 -43 7 -96 5 -72 -3 -99 0 -106 10 -8 10 -9 10 -5 -2z"/>
 <path d="M10235 10650 l-120 -6 117 -2 c69 -1 119 2 123 8 3 6 5 9 3 8 -2 -1 -57 -5 -123 -8z"/>
 <path d="M11429 10647 c4 -4 57 -6 117 -5 l109 3 -117 5 c-64 3 -114 1 -109 -3z"/>
 <path d="M6768 10623 c12 -2 32 -2 45 0 12 2 2 4 -23 4 -25 0 -35 -2 -22 -4z"/>
 <path d="M7948 10623 c12 -2 30 -2 40 0 9 3 -1 5 -23 4 -22 0 -30 -2 -17 -4z"/>
 <path d="M9548 10623 c12 -2 30 -2 40 0 9 3 -1 5 -23 4 -22 0 -30 -2 -17 -4z"/>
 <path d="M2394 9569 c-412 -16 -682 -65 -729 -133 -34 -48 -10 -98 74 -155 164 -109 461 -204 826 -265 353 -59 696 -89 1510 -131 264 -13 536 -29 605 -35 69 -5 224 -17 345 -25 121 -8 267 -20 325 -25 98 -9 503 -38 860 -60 160 -10 613 -33 990 -50 240 -11 944 -35 1530 -52 532 -15 2461 -16 2805 0 937 41 1401 87 1750 172 176 43 321 105 344 148 8 16 -3 16 -142 10 -462 -21 -775 -28 -1342 -28 -879 1 -1313 20 -2165 95 -319 28 -456 43 -1545 161 -952 103 -1928 192 -2720 248 -192 14 -404 30 -470 36 -66 5 -244 17 -395 25 -151 8 -342 20 -425 25 -587 39 -1556 58 -2031 39z"/>
 <path d="M8593 8393 c15 -2 39 -2 55 0 15 2 2 4 -28 4 -30 0 -43 -2 -27 -4z"/>
 <path d="M4253 8343 c9 -2 25 -2 35 0 9 3 1 5 -18 5 -19 0 -27 -2 -17 -5z"/>
 <path d="M6443 8333 c9 -2 25 -2 35 0 9 3 1 5 -18 5 -19 0 -27 -2 -17 -5z"/>
 <path d="M6715 8230 c21 -22 41 -40 44 -40 3 0 -13 18 -34 40 -21 22 -41 40 -44 40 -3 0 13 -18 34 -40z"/>
 <path d="M8210 8225 c-24 -25 -42 -45 -39 -45 3 0 25 20 49 45 24 25 42 45 39 45 -3 0 -25 -20 -49 -45z"/>
 <path d="M3868 8244 c-39 -21 -35 -28 5 -8 37 19 44 24 31 24 -5 -1 -21 -8 -36 -16z"/>
 <path d="M9035 8220 c21 -22 41 -40 44 -40 3 0 -13 18 -34 40 -21 22 -41 40 -44 40 -3 0 13 -18 34 -40z"/>
 <path d="M11232 8155 c15 -16 29 -27 31 -24 3 2 -10 15 -27 28 l-31 24 27 -28z"/>
 <path d="M3667 8098 l-74 -73 71 64 c39 36 75 69 81 73 5 4 6 8 2 8 -4 0 -40 -33 -80 -72z"/>
 <path d="M5985 8118 l-40 -43 43 40 c39 36 47 45 39 45 -2 0 -21 -19 -42 -42z"/>
 <path d="M10014 8048 c-48 -51 -116 -130 -78 -93 42 42 146 155 143 155 -3 0 -32 -28 -65 -62z"/>
 <path d="M8095 8060 c-9 -16 -13 -30 -11 -30 3 0 12 14 21 30 9 17 13 30 11 30 -3 0 -12 -13 -21 -30z"/>
 <path d="M11320 8067 c0 -2 15 -16 33 -33 l32 -29 -29 33 c-28 30 -36 37 -36 29z"/>
 <path d="M11525 7780 c9 -16 18 -30 21 -30 2 0 -2 14 -11 30 -9 17 -18 30 -21 30 -2 0 2 -13 11 -30z"/>
 <path d="M3390 7709 c-12 -23 -20 -43 -18 -45 3 -2 14 17 26 41 27 56 20 60 -8 4z"/>
 <path d="M9282 7270 c0 -19 2 -27 5 -17 2 9 2 25 0 35 -3 9 -5 1 -5 -18z"/>
 <path d="M7835 7240 c-9 -16 -13 -30 -11 -30 3 0 12 14 21 30 9 17 13 30 11 30 -3 0 -12 -13 -21 -30z"/>
 <path d="M7710 7078 c-36 -34 -47 -47 -25 -31 38 30 104 94 94 93 -2 -1 -33 -28 -69 -62z"/>
 <path d="M9252 6920 c0 -19 2 -27 5 -17 2 9 2 25 0 35 -3 9 -5 1 -5 -18z"/>
 <path d="M2573 4515 c0 -22 2 -30 4 -17 2 12 2 30 0 40 -3 9 -5 -1 -4 -23z"/>
 <path d="M8636 4294 c-4 -14 -5 -28 -3 -31 3 -2 8 8 11 23 4 14 5 28 3 31 -3 2 -8 -8 -11 -23z"/>
 <path d="M2554 4120 c0 -52 1 -74 3 -47 2 26 2 68 0 95 -2 26 -3 4 -3 -48z"/>
 <path d="M10610 3836 c0 -11 30 -66 36 -66 2 0 -3 15 -12 33 -19 36 -24 44 -24 33z"/>
 <path d="M4250 3760 c-11 -22 -18 -40 -15 -40 2 0 14 18 25 40 11 22 18 40 15 40 -2 0 -14 -18 -25 -40z"/>
 <path d="M4205 3680 c-9 -16 -13 -30 -11 -30 3 0 12 14 21 30 9 17 13 30 11 30 -3 0 -12 -13 -21 -30z"/>
 <path d="M10725 3610 c9 -16 18 -30 21 -30 2 0 -2 14 -11 30 -9 17 -18 30 -21 30 -2 0 2 -13 11 -30z"/>
 <path d="M8327 3535 c-9 -19 -15 -35 -12 -35 7 0 37 61 33 66 -3 2 -12 -12 -21 -31z"/>
 <path d="M4085 3488 c-16 -24 -22 -38 -14 -31 15 12 53 73 46 73 -2 0 -17 -19 -32 -42z"/>
 <path d="M8225 3350 c-9 -16 -13 -30 -11 -30 3 0 12 14 21 30 9 17 13 30 11 30 -3 0 -12 -13 -21 -30z"/>
 <path d="M10879 3362 c5 -10 18 -25 27 -33 11 -9 9 -2 -6 19 -26 35 -36 42 -21 14z"/>
 <path d="M3810 3153 c-52 -53 -70 -75 -40 -48 56 51 146 145 139 145 -3 0 -47 -44 -99 -97z"/>
 <path d="M8110 3178 c-15 -21 -17 -28 -6 -19 16 13 41 51 33 51 -2 0 -14 -15 -27 -32z"/>
 <path d="M11120 3075 c47 -47 87 -85 90 -85 2 0 -33 38 -80 85 -47 47 -87 85 -90 85 -2 0 33 -38 80 -85z"/>
 <path d="M8050 3098 c-19 -24 -26 -37 -17 -29 19 15 61 71 54 71 -2 0 -19 -19 -37 -42z"/>
 <path d="M6900 3040 c12 -16 24 -30 26 -30 3 0 -4 14 -16 30 -12 17 -24 30 -26 30 -3 0 4 -13 16 -30z"/>
 <path d="M7920 2955 c-41 -41 -72 -75 -69 -75 2 0 38 34 79 75 41 41 72 75 69 75 -2 0 -38 -34 -79 -75z"/>
 <path d="M2895 2930 c21 -22 41 -40 44 -40 3 0 -13 18 -34 40 -21 22 -41 40 -44 40 -3 0 13 -18 34 -40z"/>
 <path d="M11975 2898 l-50 -53 53 50 c28 27 52 51 52 52 0 8 -9 -1 -55 -49z"/>
 <path d="M7045 2870 c38 -38 72 -70 74 -70 3 0 -26 32 -64 70 -38 39 -72 70 -74 70 -3 0 26 -31 64 -70z"/>
 <path d="M2763 2413 c9 -2 25 -2 35 0 9 3 1 5 -18 5 -19 0 -27 -2 -17 -5z"/>
 <path d="M11897 2409 c-260 -34 -485 -260 -573 -575 -98 -351 -23 -789 188 -1102 141 -209 307 -343 513 -413 60 -21 89 -24 205 -24 161 0 224 17 342 95 165 108 271 268 336 505 30 111 42 364 22 497 -44 305 -179 580 -382 773 -114 109 -193 161 -323 210 -56 21 -212 48 -250 44 -5 -1 -41 -5 -78 -10z"/>
 <path d="M3225 2220 c27 -27 51 -50 54 -50 3 0 -17 23 -44 50 -27 28 -51 50 -54 50 -3 0 17 -22 44 -50z"/>
 <path d="M7188 2089 c-21 -11 -38 -22 -38 -24 0 -5 79 32 89 41 12 11 -18 1 -51 -17z"/>
 <path d="M7850 2047 c0 -2 19 -19 43 -37 23 -19 36 -26 28 -17 -15 19 -71 61 -71 54z"/>
 <path d="M6995 1938 l-70 -73 73 70 c39 38 72 71 72 72 0 8 -11 -2 -75 -69z"/>
 <path d="M7940 1977 c0 -2 15 -16 33 -33 l32 -29 -29 33 c-28 30 -36 37 -36 29z"/>
 <path d="M6792 1645 c-17 -37 -14 -45 4 -12 9 16 14 31 11 33 -2 2 -9 -7 -15 -21z"/>
 <path d="M8282 1250 c0 -19 2 -27 5 -17 2 9 2 25 0 35 -3 9 -5 1 -5 -18z"/>
 <path d="M8294 1085 c0 -49 1 -71 3 -48 2 23 2 64 0 90 -2 26 -3 8 -3 -42z"/>
 <path d="M3105 548 l-60 -63 63 60 c58 55 67 65 59 65 -1 0 -29 -28 -62 -62z"/>
 <path d="M6790 526 c0 -11 30 -66 36 -66 2 0 -3 15 -12 33 -19 36 -24 44 -24 33z"/>
 <path d="M2090 475 c19 -19 36 -35 39 -35 3 0 -10 16 -29 35 -19 19 -36 35 -39 35 -3 0 10 -16 29 -35z"/>
 <path d="M8111 404 c-12 -19 -16 -32 -11 -29 11 7 43 65 36 65 -2 0 -13 -16 -25 -36z"/>
 <path d="M6867 379 c10 -17 24 -36 32 -42 8 -7 2 7 -14 31 -32 49 -45 57 -18 11z"/>
 <path d="M8060 328 c-15 -21 -17 -28 -6 -19 16 13 41 51 33 51 -2 0 -14 -15 -27 -32z"/>
 <path d="M7965 218 c-39 -39 -54 -58 -35 -42 36 30 116 114 109 114 -3 0 -36 -32 -74 -72z"/>
 <path d="M6995 220 c27 -27 51 -50 54 -50 3 0 -17 23 -44 50 -27 28 -51 50 -54 50 -3 0 17 -22 44 -50z"/>
 <path d="M7458 3 c17 -2 47 -2 65 0 17 2 3 4 -33 4 -36 0 -50 -2 -32 -4z"/>
 </g>
<g id="layer3" fill="black" stroke="none">
 <path d="M4958 15022 c-32 -6 -16 -38 21 -43 48 -8 47 -28 -12 -152 l-56 -117 38 0 c37 0 38 1 73 78 l35 77 36 -77 c35 -76 38 -78 72 -78 19 0 35 2 35 5 0 11 -132 271 -144 283 -15 16 -73 30 -98 24z"/>
 <path d="M4718 14924 c-16 -8 -28 -10 -28 -4 0 5 -18 10 -40 10 l-40 0 0 -155 0 -155 40 0 40 0 0 57 c0 52 1 55 18 41 24 -20 85 -22 121 -4 84 44 80 176 -6 212 -41 18 -71 17 -105 -2z m79 -46 c7 -6 15 -25 19 -44 12 -63 -35 -102 -98 -81 -24 7 -27 14 -30 64 -3 54 -2 57 27 69 30 13 59 10 82 -8z"/>
 <path d="M4027 14524 c-1 -1 -29 -4 -62 -8 -140 -14 -250 -54 -375 -138 l-61 -40 17 -27 c10 -14 45 -69 77 -121 33 -52 61 -97 63 -98 1 -2 32 19 68 46 97 74 171 99 327 109 139 9 249 -26 331 -104 63 -61 82 -118 86 -268 l4 -129 -66 62 c-117 109 -230 153 -384 147 -167 -6 -283 -54 -392 -164 -83 -84 -138 -187 -167 -311 -18 -79 -25 -288 -12 -375 43 -281 215 -480 461 -531 190 -40 361 6 497 132 l61 56 0 -86 0 -86 180 0 180 0 2 683 c2 480 0 703 -9 752 -31 188 -120 315 -279 395 -38 19 -72 40 -76 45 -4 6 -8 7 -8 2 0 -4 -16 -1 -36 8 -60 25 -200 46 -316 49 -60 1 -110 1 -111 0z m284 -864 c60 -22 132 -72 164 -114 l25 -33 0 -257 0 -256 -41 -45 c-53 -57 -113 -92 -195 -112 -56 -14 -75 -14 -132 -4 -192 35 -298 201 -287 446 5 93 10 121 32 178 72 183 252 265 434 197z"/>
 <path d="M12587 14519 c-27 -4 -51 -9 -53 -12 -2 -2 8 -65 23 -141 23 -114 30 -135 43 -130 8 4 46 9 83 12 125 8 180 -29 231 -158 l26 -65 -35 -90 c-20 -49 -81 -206 -136 -349 -55 -142 -104 -266 -109 -275 -4 -9 -63 -160 -131 -336 -67 -176 -129 -335 -136 -352 l-13 -33 193 0 193 0 179 479 c99 264 183 475 186 468 9 -16 141 -368 143 -382 1 -5 7 -19 13 -30 8 -16 30 -74 39 -105 0 -3 6 -18 13 -35 6 -16 42 -111 80 -210 l67 -180 192 -3 c106 -1 192 1 192 6 0 4 -26 73 -59 152 -90 222 -293 725 -456 1130 -152 378 -165 406 -223 478 -59 74 -176 137 -292 157 -54 10 -202 12 -253 4z"/>
 <path d="M7175 13989 c-110 -19 -175 -42 -255 -89 -59 -35 -159 -111 -159 -122 -1 -4 -17 -29 -38 -55 -87 -114 -135 -268 -135 -438 0 -134 22 -230 79 -344 116 -235 357 -381 628 -381 287 0 522 157 628 420 49 122 60 187 58 348 l-1 72 -510 -2 -509 -3 5 25 c33 152 130 259 265 295 147 39 345 0 465 -92 l32 -24 44 63 c25 35 60 85 78 112 l33 49 -29 24 c-47 39 -157 91 -246 117 -146 42 -291 50 -433 25z m458 -901 c-15 -81 -78 -171 -147 -212 -58 -34 -94 -41 -201 -41 -79 1 -99 4 -148 28 -86 42 -152 129 -172 225 l-7 32 341 0 341 0 -7 -32z"/>
 <path d="M11321 13994 c-247 -51 -393 -245 -378 -502 7 -113 41 -195 113 -272 91 -98 209 -142 374 -142 156 1 284 43 383 124 l47 40 0 -91 c0 -171 -30 -234 -137 -286 -50 -25 -69 -29 -153 -29 -166 -2 -260 29 -376 121 -32 25 -44 30 -52 20 -17 -22 -122 -208 -122 -217 0 -15 82 -67 171 -109 115 -54 229 -81 374 -88 358 -16 601 132 640 392 7 52 8 90 6 558 l-1 457 -175 0 -175 0 0 -70 c0 -38 -3 -70 -6 -70 -4 0 -26 18 -50 39 -114 106 -317 159 -483 125z m413 -290 c26 -11 66 -34 87 -52 l39 -34 0 -78 0 -78 -41 -36 c-63 -53 -158 -79 -273 -74 -100 5 -139 19 -194 71 -56 53 -65 142 -22 212 19 30 77 69 128 86 45 14 221 3 276 -17z"/>
 <path d="M1424 13954 c3 -9 9 -28 12 -42 4 -15 10 -31 14 -37 4 -5 65 -158 134 -340 70 -181 138 -357 151 -390 13 -33 71 -184 130 -335 109 -282 146 -378 235 -607 l52 -133 253 0 c232 0 253 1 260 18 4 9 53 139 110 287 127 329 272 705 324 840 32 80 128 330 282 733 l9 22 -229 0 -229 0 -60 -162 -60 -163 -408 0 -408 0 -61 162 -60 163 -229 0 c-205 0 -228 -2 -222 -16z m1276 -638 c0 -2 -13 -40 -29 -83 -28 -73 -229 -627 -255 -702 l-12 -34 -31 84 c-16 46 -45 122 -63 169 -17 47 -44 119 -60 160 -15 41 -32 86 -37 100 -26 63 -113 297 -113 303 0 4 135 7 300 7 165 0 300 -2 300 -4z"/>
 <path d="M5230 13280 l0 -690 180 0 180 0 0 690 0 690 -180 0 -180 0 0 -690z"/>
 <path d="M5950 13020 l0 -950 180 0 180 0 0 950 0 950 -180 0 -180 0 0 -950z"/>
 <path d="M8990 13020 l0 -950 433 0 c416 0 491 4 622 34 179 42 406 183 498 312 90 124 134 211 167 334 54 195 40 458 -33 638 -49 122 -98 195 -201 297 -116 115 -204 170 -354 221 -158 54 -254 62 -719 63 l-413 1 0 -950z m915 605 c152 -42 293 -159 359 -297 53 -111 69 -197 63 -348 -4 -100 -10 -140 -30 -198 -68 -191 -180 -305 -361 -365 -52 -17 -95 -21 -303 -24 l-243 -5 0 632 0 633 228 -6 c168 -4 243 -10 287 -22z"/>
 <path d="M5322 12423 c-104 -51 -155 -173 -114 -274 69 -172 325 -177 397 -7 45 109 -8 237 -117 282 -48 21 -124 20 -166 -1z"/>
 <path d="M6605 11466 c-91 -29 -149 -64 -207 -123 -196 -203 -134 -529 124 -655 169 -83 416 -75 568 17 76 46 135 111 173 193 29 61 32 76 32 162 0 87 -3 101 -33 165 -57 121 -154 201 -296 244 -98 30 -264 29 -361 -3z m282 -129 c110 -28 187 -142 187 -277 0 -167 -104 -279 -265 -286 -132 -6 -223 45 -276 154 -23 47 -28 69 -27 132 1 142 65 232 204 284 17 6 144 1 177 -7z"/>
 <path d="M7835 11483 c-217 -50 -367 -214 -374 -408 -5 -167 87 -312 249 -390 91 -43 188 -59 310 -52 106 7 109 8 164 26 66 23 156 81 156 101 0 9 -116 100 -128 100 -5 0 -17 -9 -27 -20 -10 -11 -22 -17 -26 -14 -5 3 -9 1 -9 -4 0 -19 -78 -45 -147 -48 -136 -6 -235 45 -287 150 -34 68 -41 158 -17 241 20 69 96 144 170 168 105 34 229 16 303 -43 l39 -32 37 26 c20 14 52 38 70 53 l32 28 -51 37 c-29 22 -86 49 -131 63 -67 21 -97 25 -196 24 -64 -1 -126 -3 -137 -6z"/>
 <path d="M9293 11466 c-127 -47 -197 -140 -197 -260 0 -203 226 -322 485 -257 50 13 101 33 127 51 23 17 45 30 47 30 3 0 5 -33 5 -72 0 -92 -21 -131 -87 -160 -57 -25 -178 -32 -253 -14 -57 13 -154 58 -165 76 -12 19 -24 10 -64 -47 -32 -43 -38 -59 -30 -70 11 -12 132 -75 154 -79 6 -1 35 -8 65 -16 82 -22 263 -23 340 -3 145 38 225 107 246 215 5 25 8 172 6 328 l-3 282 -104 0 -105 0 0 -40 c0 -22 -3 -40 -6 -40 -3 0 -21 12 -39 26 -96 73 -296 97 -422 50z m348 -132 c30 -9 69 -25 86 -37 31 -21 33 -25 33 -84 0 -57 -2 -63 -29 -83 -52 -36 -112 -52 -201 -53 -136 -1 -204 39 -216 125 -6 40 -3 48 26 81 55 63 185 85 301 51z"/>
 <path d="M4022 11413 c-64 -188 -263 -762 -309 -893 -30 -85 -57 -163 -60 -172 -5 -17 6 -18 129 -18 l135 0 15 53 c83 277 236 779 245 805 8 20 14 9 40 -75 126 -393 236 -732 245 -755 10 -28 11 -28 102 -28 l91 0 52 158 c28 86 90 279 138 427 47 149 89 277 92 285 3 9 13 -11 23 -45 31 -104 219 -728 234 -775 l13 -45 132 -3 c72 -1 131 1 131 6 0 7 -150 454 -201 597 -94 267 -157 460 -153 467 3 4 1 8 -5 8 -5 0 -12 14 -16 30 l-7 30 -128 0 -128 0 -10 -27 c-6 -16 -38 -116 -72 -223 -34 -107 -74 -235 -90 -285 -16 -49 -45 -139 -64 -199 l-34 -108 -50 158 c-28 88 -88 277 -133 422 l-83 262 -127 0 -127 0 -20 -57z"/>
 <path d="M5630 11060 l0 -410 105 0 105 0 0 62 0 62 28 -26 c64 -60 160 -105 245 -115 l47 -5 0 81 0 81 -57 1 c-70 1 -73 1 -143 28 -30 11 -70 34 -88 50 l-32 30 0 285 0 286 -105 0 -105 0 0 -410z"/>
 <path d="M8598 11246 l-3 -225 -84 40 c-46 21 -85 39 -87 39 -2 0 -4 -28 -4 -63 l0 -63 90 -44 90 -44 0 -278 0 -278 105 0 105 0 0 225 c0 124 3 225 6 225 3 0 43 -18 90 -40 47 -22 87 -40 90 -40 2 0 4 28 4 63 l0 63 -95 47 -95 48 0 274 0 275 -105 0 -105 0 -2 -224z"/>
 <path d="M10320 11168 c-125 -334 -190 -510 -190 -515 0 -2 50 -2 110 -1 l110 3 61 175 c34 96 80 231 104 299 l42 123 90 -228 c50 -126 103 -262 118 -301 l29 -73 93 0 93 0 19 43 c11 23 24 59 31 79 6 21 16 40 21 43 5 4 9 13 9 21 0 8 7 31 17 52 9 20 17 39 17 42 3 19 122 310 126 310 3 0 30 -73 60 -162 30 -90 76 -221 102 -293 l46 -130 111 -3 111 -3 -26 68 c-14 37 -57 154 -95 258 -39 105 -79 213 -90 240 -10 28 -36 95 -57 150 l-38 100 -114 0 -114 0 -28 -75 c-15 -41 -32 -84 -37 -95 -5 -11 -42 -109 -82 -217 -41 -109 -77 -198 -81 -198 -3 0 -16 26 -28 58 -12 31 -62 164 -112 295 l-91 237 -112 0 -112 0 -113 -302z"/>
 <path d="M8480 8374 c-187 -49 -339 -196 -413 -399 -10 -27 -47 -163 -82 -300 -92 -360 -156 -502 -272 -605 -77 -68 -251 -141 -302 -126 -9 3 -32 8 -51 11 -147 24 -270 164 -343 390 -28 86 -82 298 -91 355 -10 63 -56 233 -88 320 -78 215 -197 311 -387 310 -266 -2 -552 -231 -686 -550 -57 -135 -98 -311 -113 -480 -13 -149 -6 -428 14 -590 9 -74 25 -187 34 -235 5 -27 12 -61 14 -75 32 -173 148 -638 257 -1025 153 -546 311 -1027 463 -1408 36 -89 66 -169 68 -177 2 -8 6 -17 9 -20 4 -3 21 -39 39 -80 55 -128 197 -400 263 -506 140 -222 281 -376 398 -432 244 -118 464 -50 735 230 205 211 383 511 548 920 59 147 193 528 202 573 1 6 18 64 38 130 36 122 142 509 152 555 2 14 7 33 10 42 3 10 7 30 10 45 3 14 14 60 25 100 11 41 22 85 25 98 2 12 25 108 50 212 25 103 48 199 50 213 3 14 14 61 24 105 20 86 109 521 116 570 6 44 23 147 28 171 4 18 22 156 40 304 19 152 26 455 14 595 -16 179 -63 350 -129 462 -47 80 -170 202 -244 240 -130 68 -298 91 -425 57z"/>
 <path d="M4230 8339 c-242 -27 -449 -126 -601 -286 -187 -199 -359 -573 -538 -1168 -45 -151 -92 -311 -96 -325 -2 -8 -17 -69 -35 -135 -17 -66 -33 -127 -35 -136 -2 -9 -20 -83 -40 -165 -89 -363 -190 -809 -211 -934 -12 -74 -15 -87 -19 -110 -14 -62 -65 -428 -77 -545 -14 -139 -18 -628 -6 -735 6 -53 26 -170 52 -305 10 -52 72 -229 107 -303 77 -168 174 -284 290 -347 47 -25 66 -30 145 -32 143 -4 273 44 443 165 81 57 401 375 401 398 0 2 28 43 62 91 79 113 197 319 261 453 27 58 52 107 56 110 3 3 8 14 9 25 2 11 11 33 19 48 75 145 316 845 450 1307 13 47 31 108 39 135 8 28 17 57 19 65 43 149 173 682 191 780 2 14 6 34 9 46 3 12 7 39 10 60 3 21 10 59 15 84 5 25 14 80 20 123 7 43 13 88 15 100 6 34 15 122 25 247 26 309 -1 579 -77 769 -92 231 -275 402 -508 477 -70 22 -263 56 -305 53 -8 -1 -49 -5 -90 -10z"/>
 <path d="M10555 8338 c-222 -53 -404 -155 -546 -306 -139 -147 -203 -282 -244 -512 -22 -120 -11 -489 20 -670 2 -14 11 -72 20 -130 18 -113 44 -258 75 -410 11 -52 22 -108 25 -125 15 -93 98 -432 206 -850 317 -1217 622 -1882 1049 -2289 193 -183 378 -277 539 -273 316 9 568 433 646 1087 14 120 17 523 4 650 -5 47 -16 144 -24 215 -8 72 -17 150 -20 175 -8 72 -12 101 -24 165 -5 33 -12 76 -15 95 -3 19 -19 109 -35 200 -16 91 -32 179 -34 195 -3 17 -10 53 -16 80 -6 28 -13 61 -15 75 -24 145 -153 716 -202 898 -14 51 -27 100 -29 110 -13 57 -124 406 -165 516 -242 656 -487 975 -830 1081 -82 26 -112 30 -220 31 -69 1 -143 -3 -165 -8z"/>
 </g>

</svg>