<svg width="138" height="244" xmlns="http://www.w3.org/2000/svg">
 <!-- Created with Method Draw - http://github.com/duopixel/Method-Draw/ -->

 <g>
  <title>background</title>
  <rect fill="none" id="canvas_background" height="246" width="140" y="-1" x="-1"/>
 </g>
 <g>
  <title>Layer 1</title>
  <path fill="#ffffff" stroke-width="2" d="m67.35361,48.20384l0,-6.11124l-0.00159,0c-0.00226,-7.54255 -5.75475,-13.6538 -12.85163,-13.6538s-12.8525,6.11452 -12.8525,13.65707l0,0l0,6.10797l-4.64789,0l0,26.23495l34.99999,0l0,-26.23495l-4.64638,0zm-21.64519,-6.10797c0,0 0,0 0,0c0,-5.15385 3.94433,-9.34545 8.79197,-9.34545c4.85074,0 8.79507,4.1916 8.79507,9.34218c0,0 0,0 0,0l0,6.11124l-17.58704,0l0,-6.10797z" id="svg_12" filter="url(#svg_12_blur)" stroke="#3a3a3a"/>
  <path fill="#000000" stroke="#000" stroke-width="0" stroke-opacity="null" fill-opacity="null" d="m133.38365,114.43892l-34.06361,-34.05977c4.58897,-7.56618 7.28022,-16.41809 7.285,-25.91047c-0.00478,-27.68849 -22.42864,-50.1146 -50.10592,-50.12416c-27.68206,0.00956 -50.11548,22.43567 -50.11548,50.11938c0,27.66938 22.43342,50.09549 50.11548,50.09549c9.49823,0 18.35114,-2.69095 25.91818,-7.27941l34.07317,34.06455l16.89318,-16.90561zm-117.217373,-60.419464c0.473124,-26.898468 18.775328,-40.372364 41.661396,-40.334124c22.886068,0.03824 39.410495,16.546767 39.439175,40.778568c0.02868,24.231801 -21.87688,40.362813 -40.772508,40.324573c-18.895628,-0.03824 -40.801187,-13.870549 -40.328063,-40.769017z" id="svg_17"/>
  <path fill="#000000" stroke-width="0" d="m70.138891,154.93736l-6.3615,-12.14263c-1.91797,-3.65976 -5.05507,-9.65107 -6.97305,-13.31153l-6.36091,-12.14189c-1.91987,-3.6619 -5.05697,-3.6619 -6.97431,0l-6.35962,12.14189c-1.91797,3.66046 -5.05698,9.65317 -6.97432,13.31153l-6.36027,12.14263c-1.91797,3.66329 -0.34813,6.65752 3.48717,6.65752l39.38584,0c3.83913,0 5.40702,-2.99424 3.49097,-6.65752l0,0zm-21.36613,1.87977l-3.77299,0l0,-3.99251l3.77299,0l0,3.99251zm-0.18177,-6.93435l-3.40622,0l-0.33851,-17.0825l4.05303,0l-0.3083,17.0825l0,0z" id="svg_20" stroke="#ffffff"/>
  <path fill="#000000" stroke-width="0" d="m127.894489,192.703743l-4.37353,-8.00897c-1.3186,-2.41388 -3.47536,-6.3656 -4.79397,-8.77995l-4.37312,-8.00848c-1.31991,-2.4153 -3.47667,-2.4153 -4.79484,0l-4.37224,8.00848c-1.3186,2.41435 -3.47667,6.36698 -4.79484,8.77995l-4.37268,8.00897c-1.3186,2.41621 -0.23934,4.39113 2.39742,4.39113l27.07776,0c2.6394,0 3.71733,-1.97492 2.40004,-4.39113l0,0zm-14.68921,1.23985l-2.59393,0l0,-2.63336l2.59393,0l0,2.63336zm-0.12497,-4.57372l-2.34178,0l-0.23273,-11.26718l2.78646,0l-0.21196,11.26718l0,0l0.00001,0z" id="svg_21" stroke="#ffffff"/>
  <path fill="#000000" stroke-width="0" d="m135.099406,25.977648l-2.78315,-5.68379c-0.83911,-1.71308 -2.21159,-4.51752 -3.05071,-6.23093l-2.7829,-5.68344c-0.83994,-1.71408 -2.21242,-1.71408 -3.05125,0l-2.78233,5.68344c-0.83911,1.71341 -2.21243,4.51851 -3.05126,6.23093l-2.78261,5.68379c-0.83911,1.71473 -0.15231,3.11629 1.52563,3.11629l17.2313,0c1.67962,0 2.36557,-1.40156 1.5273,-3.11629l0,0l-0.00002,0zm-9.34768,0.87989l-1.65068,0l0,-1.86884l1.65068,0l0,1.86884zm-0.07953,-3.24587l-1.49022,0l-0.1481,-7.99606l1.7732,0l-0.13488,7.99606l0,0z" id="svg_22" stroke="#ffffff"/>
  <path id="svg_1" d="m88.819169,121.092911l-5.963372,1.649443c-0.546404,-1.45196 -1.369079,-2.710531 -2.36468,-3.712271l3.153588,-5.56636c0.277295,-0.491149 0.106416,-1.117365 -0.388827,-1.396706c-0.490126,-0.277295 -1.115318,-0.104369 -1.39159,0.385757l-2.991918,5.281902c-0.61803,-0.391896 -1.268803,-0.705004 -1.944133,-0.916812c-0.425663,-1.470378 -1.690372,-2.467002 -3.129031,-2.62151c-0.001023,-0.004093 -0.002046,-0.008186 -0.00307,-0.012279c-0.062417,-0.247621 -0.09516,-0.470685 -0.100276,-0.665098c-0.005116,-0.19339 0.012279,-0.359153 0.047068,-0.490126c0.037859,-0.13302 0.080835,-0.240459 0.127903,-0.324363c0.149391,-0.266039 0.347897,-0.439988 0.590402,-0.520823c0.023534,0.287527 0.145298,0.493196 0.360176,0.61496c0.1586,0.090044 0.343805,0.117671 0.558682,0.087998c0.215901,-0.03172 0.384734,-0.155531 0.507521,-0.371432c0.107439,-0.19032 0.12995,-0.398036 0.065487,-0.621099c-0.065487,-0.224087 -0.207715,-0.397012 -0.423616,-0.518777c-0.157577,-0.089021 -0.321294,-0.134043 -0.493196,-0.131996c-0.170879,0.001023 -0.334596,0.03479 -0.492173,0.099253c-0.156554,0.064463 -0.302875,0.163716 -0.438965,0.295713c-0.135066,0.131996 -0.246598,0.277295 -0.337665,0.435895c-0.135066,0.239435 -0.221017,0.507521 -0.255807,0.801187c-0.033767,0.292643 -0.037859,0.578124 -0.009209,0.859511c0.017395,0.163716 0.062417,0.307992 0.096183,0.459429c-0.38371,-0.021488 -0.775607,0.002046 -1.16648,0.110509c-0.493196,0.136089 -0.934207,0.368362 -1.309732,0.668168c-0.053208,-0.175995 -0.100276,-0.35199 -0.184181,-0.530032c-0.118694,-0.254784 -0.269109,-0.497289 -0.448174,-0.732631c-0.182135,-0.234319 -0.392919,-0.419523 -0.632355,-0.555613c-0.157577,-0.087998 -0.328456,-0.154507 -0.512637,-0.198506c-0.184181,-0.043999 -0.360176,-0.053208 -0.527986,-0.027627s-0.325386,0.081858 -0.473754,0.167809c-0.149391,0.085951 -0.266039,0.209762 -0.356083,0.365292c-0.121764,0.215901 -0.153484,0.437942 -0.096183,0.662028c0.059347,0.226133 0.185204,0.39292 0.375525,0.501382c0.214878,0.121764 0.42464,0.141205 0.625192,0.057301c0.200553,-0.083905 0.344828,-0.203622 0.434872,-0.363246c0.121764,-0.214878 0.120741,-0.45329 -0.007163,-0.711143c0.249668,-0.056278 0.508544,-0.008186 0.774583,0.144275c0.082881,0.046045 0.174972,0.117671 0.276272,0.212831c0.099253,0.094137 0.197483,0.227157 0.292643,0.397012c0.096183,0.169856 0.183158,0.376548 0.25683,0.622123c0.013302,0.045022 0.023534,0.100276 0.035813,0.149391c-0.932161,0.847233 -1.38852,2.1365 -1.123504,3.434976c-0.595519,0.597565 -1.0969,1.299499 -1.490843,2.082269l-5.279856,-2.993965c-0.491149,-0.277295 -1.117365,-0.104369 -1.395683,0.385757c-0.277295,0.493196 -0.104369,1.119411 0.38678,1.398753l5.567383,3.153588c-0.338688,1.371125 -0.395989,2.872201 -0.119718,4.39681l-5.963372,1.650467c-0.546404,0.150415 -0.865651,0.715236 -0.714213,1.259594c0.150414,0.542311 0.71319,0.862581 1.259593,0.71012l6.015557,-1.664792c0.514684,1.081552 1.39466,2.33296 2.426073,3.522974l-3.26819,5.769982c-0.278318,0.492173 -0.106416,1.117365 0.38678,1.39466c0.244551,0.140182 0.523893,0.165763 0.775607,0.096183c0.253761,-0.069579 0.479894,-0.234319 0.61803,-0.48194l2.962245,-5.227671c2.762715,2.654253 5.816027,4.218769 5.912211,1.077459c1.635118,2.619463 3.531159,-0.345851 4.606572,-4.068354l5.323855,3.015453c0.245575,0.141205 0.525939,0.165763 0.7797,0.096183c0.251714,-0.068556 0.477847,-0.234319 0.617006,-0.48194c0.278318,-0.490126 0.106416,-1.116342 -0.385757,-1.393636l-5.833422,-3.304003c0.297759,-1.539958 0.431802,-3.052289 0.32641,-4.234117l6.022719,-1.664792c0.542311,-0.150415 0.866674,-0.71319 0.712167,-1.257547c-0.151438,-0.544357 -0.71626,-0.863604 -1.260617,-0.71319z" stroke="#000000" fill="#ffffff"/>
  <path stroke="#ffffff" id="svg_3" d="m87.487133,45.816071l-13.609599,3.764356c-1.247,-3.313661 -3.124508,-6.185968 -5.396667,-8.472137l7.197114,-12.703539c0.632842,-1.120902 0.242862,-2.550049 -0.887378,-3.18756c-1.118567,-0.632842 -2.545379,-0.238193 -3.175885,0.880374l-6.828153,12.054349c-1.410465,-0.894384 -2.895658,-1.608959 -4.436895,-2.092347c-0.971447,-3.355697 -3.857767,-5.630191 -7.14107,-5.982806c-0.002337,-0.009341 -0.004672,-0.018682 -0.007006,-0.028023c-0.142448,-0.56512 -0.217174,-1.074197 -0.22885,-1.517886c-0.011676,-0.441354 0.028021,-0.819658 0.107419,-1.118565c0.086404,-0.303578 0.184482,-0.548775 0.291902,-0.740261c0.34094,-0.607156 0.79397,-1.00414 1.347415,-1.188621c0.053709,0.656194 0.331599,1.125569 0.821993,1.403461c0.361959,0.205498 0.784631,0.268549 1.275026,0.200827c0.492729,-0.072391 0.878037,-0.35495 1.158264,-0.847682c0.245197,-0.434348 0.296572,-0.908395 0.149452,-1.417471c-0.149452,-0.511411 -0.474047,-0.90606 -0.966776,-1.18395c-0.359622,-0.203164 -0.733257,-0.305913 -1.125571,-0.301243c-0.38998,0.002335 -0.763612,0.079398 -1.123234,0.226515c-0.357287,0.14712 -0.691223,0.373635 -1.001805,0.674876c-0.308247,0.301243 -0.562786,0.632842 -0.770619,0.994799c-0.308247,0.54644 -0.504407,1.158264 -0.583802,1.82847c-0.077063,0.667869 -0.086404,1.319391 -0.021017,1.961575c0.039699,0.373635 0.142448,0.702899 0.219509,1.048508c-0.875702,-0.049038 -1.770089,0.004672 -2.662139,0.252203c-1.125571,0.310582 -2.132046,0.840675 -2.989066,1.524892c-0.121431,-0.401656 -0.228852,-0.803311 -0.420338,-1.209638c-0.270886,-0.581468 -0.61416,-1.134912 -1.022822,-1.672009c-0.415668,-0.534765 -0.896721,-0.957437 -1.44316,-1.268019c-0.359622,-0.200829 -0.749602,-0.352616 -1.169939,-0.45303c-0.420338,-0.100414 -0.821993,-0.121431 -1.204969,-0.06305s-0.742595,0.186816 -1.081201,0.382973c-0.34094,0.196157 -0.607154,0.478719 -0.812654,0.833669c-0.27789,0.492729 -0.350281,0.999471 -0.219509,1.510882c0.135442,0.51608 0.422672,0.896719 0.857023,1.144251c0.490394,0.277892 0.969111,0.32226 1.426812,0.130772c0.457702,-0.191488 0.786966,-0.464706 0.992464,-0.828999c0.27789,-0.490394 0.275555,-1.034498 -0.016347,-1.62297c0.569792,-0.128438 1.160598,-0.018682 1.767754,0.329264c0.189151,0.105084 0.399321,0.268549 0.630505,0.485723c0.226515,0.214839 0.450695,0.518417 0.667869,0.906062c0.219511,0.387645 0.418003,0.859357 0.586139,1.419806c0.030356,0.102749 0.053709,0.228852 0.08173,0.340942c-2.127374,1.933552 -3.168878,4.875917 -2.564059,7.839297c-1.35909,1.363762 -2.503344,2.965715 -3.4024,4.752151l-12.049677,-6.832823c-1.120902,-0.632842 -2.550049,-0.238193 -3.185226,0.880374c-0.632842,1.125569 -0.238191,2.554718 0.882709,3.19223l12.705873,7.197116c-0.772956,3.129179 -0.903728,6.554931 -0.27322,10.034393l-13.609599,3.766691c-1.247002,0.343277 -1.975587,1.632313 -1.629976,2.874644c0.343277,1.237661 1.627641,1.968581 2.874644,1.620635l13.728693,-3.799386c1.174611,2.468316 3.182891,5.324278 5.53678,8.040126l-7.458656,13.168245c-0.635177,1.123237 -0.242862,2.550049 0.882709,3.182891c0.558114,0.319923 1.195626,0.378304 1.770087,0.219509c0.579133,-0.158793 1.095213,-0.534762 1.410467,-1.099883l6.760431,-11.930583c6.305064,6.057532 13.273328,9.628066 13.492837,2.458975c3.731664,5.978135 8.058808,-0.789303 10.513112,-9.284794l12.150094,6.881862c0.560449,0.322258 1.200297,0.378304 1.779428,0.219509c0.574461,-0.156458 1.090544,-0.534762 1.408132,-1.099883c0.635177,-1.118565 0.24286,-2.547714 -0.880374,-3.180554l-13.313027,-7.540391c0.679545,-3.51449 0.985458,-6.96593 0.74493,-9.663096l13.745043,-3.799386c1.237659,-0.343277 1.977922,-1.627641 1.625304,-2.869972c-0.345612,-1.242331 -1.634645,-1.970918 -2.876978,-1.627641z" fill-opacity="0.5" stroke-opacity="null" stroke-width="0" fill="#000000"/>
  <path id="svg_5" d="m93.541509,178.259572l-5.963372,1.649443c-0.546403,-1.45196 -1.369078,-2.71053 -2.364679,-3.71227l3.153588,-5.56636c0.277295,-0.49115 0.106416,-1.117365 -0.388826,-1.396706c-0.490127,-0.277295 -1.115319,-0.10437 -1.39159,0.385757l-2.991919,5.281902c-0.618029,-0.391896 -1.268802,-0.705004 -1.944132,-0.916812c-0.425663,-1.470379 -1.690373,-2.467003 -3.129031,-2.62151c-0.001024,-0.004093 -0.002047,-0.008186 -0.00307,-0.012279c-0.062417,-0.247621 -0.09516,-0.470685 -0.100276,-0.665098c-0.005116,-0.19339 0.012278,-0.359153 0.047068,-0.490126c0.03786,-0.13302 0.080835,-0.240459 0.127904,-0.324363c0.149391,-0.26604 0.347897,-0.439988 0.590402,-0.520823c0.023534,0.287527 0.145298,0.493195 0.360176,0.61496c0.158601,0.090044 0.343805,0.117671 0.558683,0.087997c0.215901,-0.03172 0.384733,-0.15553 0.507521,-0.371432c0.107439,-0.19032 0.12995,-0.398035 0.065486,-0.621099c-0.065486,-0.224087 -0.207715,-0.397012 -0.423616,-0.518776c-0.157577,-0.089021 -0.321294,-0.134043 -0.493196,-0.131997c-0.170879,0.001023 -0.334595,0.03479 -0.492172,0.099253c-0.156554,0.064464 -0.302876,0.163717 -0.438965,0.295713c-0.135066,0.131997 -0.246598,0.277295 -0.337665,0.435895c-0.135066,0.239436 -0.221018,0.507521 -0.255807,0.801188c-0.033767,0.292643 -0.03786,0.578123 -0.009209,0.859511c0.017395,0.163717 0.062417,0.307992 0.096183,0.459429c-0.38371,-0.021487 -0.775607,0.002047 -1.16648,0.110509c-0.493196,0.136089 -0.934207,0.368362 -1.309731,0.668168c-0.053208,-0.175995 -0.100277,-0.35199 -0.184181,-0.530032c-0.118695,-0.254784 -0.269109,-0.497289 -0.448174,-0.732631c-0.182135,-0.23432 -0.39292,-0.419524 -0.632355,-0.555613c-0.157577,-0.087998 -0.328456,-0.154507 -0.512637,-0.198506c-0.184181,-0.043999 -0.360176,-0.053208 -0.527986,-0.027627s-0.325386,0.081858 -0.473754,0.167809c-0.149391,0.085951 -0.266039,0.209762 -0.356084,0.365292c-0.121764,0.215901 -0.153484,0.437942 -0.096183,0.662029c0.059347,0.226133 0.185204,0.392919 0.375525,0.501381c0.214878,0.121765 0.424639,0.141206 0.625192,0.057301c0.200553,-0.083905 0.344828,-0.203622 0.434872,-0.363246c0.121764,-0.214878 0.120741,-0.45329 -0.007163,-0.711143c0.249668,-0.056278 0.508544,-0.008186 0.774584,0.144275c0.082881,0.046045 0.174972,0.117671 0.276271,0.212831c0.099253,0.094137 0.197483,0.227157 0.292643,0.397013c0.096184,0.169856 0.183158,0.376548 0.256831,0.622122c0.013301,0.045022 0.023534,0.100277 0.035812,0.149392c-0.93216,0.847232 -1.38852,2.1365 -1.123504,3.434976c-0.595518,0.597565 -1.0969,1.299499 -1.490843,2.082269l-5.279855,-2.993965c-0.49115,-0.277295 -1.117365,-0.10437 -1.395683,0.385757c-0.277295,0.493195 -0.104369,1.119411 0.38678,1.398752l5.567383,3.153589c-0.338689,1.371125 -0.39599,2.8722 -0.119718,4.39681l-5.963372,1.650466c-0.546404,0.150415 -0.865651,0.715237 -0.714213,1.259594c0.150415,0.542311 0.71319,0.862581 1.259594,0.71012l6.015556,-1.664792c0.514684,1.081552 1.39466,2.33296 2.426073,3.522974l-3.268189,5.769982c-0.278318,0.492173 -0.106416,1.117365 0.38678,1.39466c0.244551,0.140182 0.523892,0.165763 0.775606,0.096183c0.253761,-0.069579 0.479894,-0.234319 0.61803,-0.48194l2.962245,-5.227671c2.762715,2.654253 5.816027,4.218768 5.91221,1.077459c1.635118,2.619463 3.53116,-0.345852 4.606572,-4.068355l5.323855,3.015453c0.245574,0.141205 0.525939,0.165763 0.779699,0.096183c0.251714,-0.068556 0.477848,-0.234319 0.617007,-0.48194c0.278318,-0.490126 0.106415,-1.116342 -0.385757,-1.393636l-5.833422,-3.304003c0.297759,-1.539958 0.431802,-3.052289 0.326409,-4.234117l6.02272,-1.664792c0.54231,-0.150415 0.866674,-0.71319 0.712166,-1.257547c-0.151438,-0.544357 -0.716259,-0.863605 -1.260617,-0.71319z" stroke="#000000" fill="#ffffff"/>
  <path stroke="#000000" id="svg_6" d="m22.109156,106.338276l-3.614166,0.999663c-0.331153,-0.879976 -0.829744,-1.642746 -1.433139,-2.249861l1.911266,-3.373552c0.168058,-0.297667 0.064495,-0.677191 -0.235652,-0.846489c-0.297047,-0.168058 -0.675951,-0.063255 -0.843388,0.233792l-1.813285,3.201153c-0.374563,-0.237513 -0.768971,-0.427275 -1.178262,-0.555644c-0.257978,-0.891139 -1.024469,-1.495154 -1.896383,-1.588794c-0.000621,-0.002481 -0.001241,-0.004961 -0.001861,-0.007442c-0.037828,-0.150073 -0.057673,-0.285264 -0.060773,-0.40309c-0.003101,-0.117206 0.007441,-0.217669 0.028526,-0.297046c0.022945,-0.080618 0.048991,-0.145733 0.077518,-0.196584c0.09054,-0.161236 0.210847,-0.266659 0.357819,-0.31565c0.014263,0.174259 0.088059,0.298906 0.218289,0.372703c0.096122,0.054572 0.208367,0.071316 0.338596,0.053332c0.130849,-0.019224 0.233172,-0.094261 0.307589,-0.22511c0.065115,-0.115345 0.078758,-0.241233 0.039688,-0.376424c-0.039688,-0.13581 -0.125888,-0.240613 -0.256737,-0.31441c-0.095501,-0.053952 -0.194724,-0.081238 -0.298907,-0.079998c-0.103563,0.00062 -0.202785,0.021085 -0.298286,0.060153c-0.094881,0.039069 -0.183561,0.099222 -0.266039,0.17922c-0.081858,0.079998 -0.149453,0.168058 -0.204646,0.264179c-0.081858,0.145113 -0.13395,0.307589 -0.155035,0.485569c-0.020465,0.177359 -0.022945,0.350378 -0.005581,0.520916c0.010542,0.099222 0.037828,0.186662 0.058293,0.278442c-0.232552,-0.013022 -0.470065,0.001241 -0.706958,0.066975c-0.298907,0.082478 -0.566186,0.22325 -0.793777,0.40495c-0.032247,-0.106664 -0.060774,-0.213327 -0.111625,-0.321232c-0.071936,-0.154415 -0.163096,-0.301387 -0.271621,-0.444019c-0.110385,-0.142012 -0.238133,-0.254257 -0.383246,-0.336735c-0.095501,-0.053332 -0.199064,-0.093641 -0.310689,-0.120307c-0.111625,-0.026666 -0.218289,-0.032247 -0.319992,-0.016744s-0.197204,0.049611 -0.287124,0.101702c-0.09054,0.052092 -0.161236,0.127129 -0.215809,0.221389c-0.073796,0.130849 -0.093021,0.265419 -0.058293,0.40123c0.035968,0.13705 0.112245,0.238133 0.227591,0.303867c0.130229,0.073797 0.257357,0.085579 0.378904,0.034728c0.121547,-0.050852 0.208987,-0.123407 0.263559,-0.220149c0.073796,-0.130229 0.073176,-0.274721 -0.004341,-0.430996c0.151314,-0.034108 0.308209,-0.004961 0.469445,0.087439c0.050231,0.027906 0.106044,0.071316 0.167437,0.128989c0.060153,0.057053 0.119687,0.137671 0.177359,0.240614c0.058293,0.102943 0.111005,0.228211 0.155655,0.377044c0.008061,0.027286 0.014263,0.060774 0.021704,0.090541c-0.564946,0.513474 -0.841527,1.294849 -0.680912,2.081804c-0.36092,0.362161 -0.664788,0.787575 -0.903541,1.261981l-3.199913,-1.814525c-0.297667,-0.168058 -0.677191,-0.063255 -0.845869,0.233792c-0.168058,0.298906 -0.063254,0.678431 0.234412,0.847729l3.374172,1.911266c-0.205266,0.830985 -0.239994,1.740728 -0.072556,2.664734l-3.614166,1.000283c-0.331154,0.091161 -0.524637,0.433477 -0.432856,0.76339c0.091161,0.328673 0.432236,0.522776 0.76339,0.430376l3.645792,-1.008965c0.31193,0.655486 0.845249,1.413915 1.470348,2.135136l-1.980721,3.49696c-0.168678,0.298287 -0.064495,0.677191 0.234412,0.845249c0.148213,0.084959 0.31751,0.100462 0.470064,0.058293c0.153795,-0.042169 0.290845,-0.142012 0.374564,-0.292085l1.7953,-3.168286c1.674373,1.608639 3.524866,2.55683 3.583158,0.653006c0.990981,1.587554 2.140097,-0.209607 2.791862,-2.46567l3.22658,1.827548c0.148833,0.085579 0.318751,0.100462 0.472545,0.058293c0.152554,-0.041549 0.289605,-0.142012 0.373944,-0.292085c0.168678,-0.297046 0.064494,-0.676571 -0.233792,-0.844628l-3.535408,-2.002427c0.18046,-0.933308 0.261698,-1.849873 0.197824,-2.566132l3.650134,-1.008965c0.328673,-0.091161 0.525257,-0.432236 0.431616,-0.76215c-0.091781,-0.329913 -0.434096,-0.523397 -0.76401,-0.432236z" fill="#ffffff"/>
  <path stroke="#ffffff" transform="rotate(-15.898591041564941 36.12790298461921,203.27247619628906) " id="svg_9" d="m42.018709,173.515962l-11.102691,16.751927l4.578091,1.976991l-13.980407,14.352731l4.57604,2.396962l-17.282704,24.034402l29.314551,-18.418408l-5.591342,-2.557802l18.21391,-11.797163l-6.526651,-3.645705l19.231264,-12.37574l-21.43006,-10.718195z" fill-opacity="null" stroke-opacity="null" stroke-width="0" fill="#000000"/>
  <line stroke="#000000" transform="rotate(-9.228147506713867 34.058357238770135,203.5813751220704) " stroke-width="5" stroke-linecap="null" stroke-linejoin="null" id="svg_10" y2="228.873019" x2="59.349992" y1="178.289751" x1="8.766724" fill-opacity="null" fill="none"/>
  <line stroke="#000000" transform="rotate(-59.20948791503906 33.949283599853565,203.45343017578128) " stroke-width="5" stroke-linecap="null" stroke-linejoin="null" id="svg_11" y2="227.404748" x2="57.900613" y1="179.502091" x1="9.997956" fill-opacity="null" fill="none"/>
 </g>
</svg>
