<svg width="235.00000000000003" height="455.00000000000006" xmlns="http://www.w3.org/2000/svg">
 <!-- Created with Method Draw - http://github.com/duopixel/Method-Draw/ -->
 <g>
  <title>background</title>
  <rect fill="none" id="canvas_background" height="457" width="237" y="-1" x="-1"/>
 </g>
 <g>
  <title>Layer 1</title>
  <path stroke="#747474" transform="rotate(-12.817930221557617 98.86963653564426,346.0461120605469) " id="svg_3" d="m118.281699,341.123871l0,-9.298739l-0.002408,0c-0.003405,-11.476578 -8.691052,-20.77532 -19.409057,-20.77532s-19.410384,9.303729 -19.410384,20.780299l0,0l0,9.29376l-7.019435,0l0,39.918549l52.858432,0l0,-39.918549l-7.017148,0zm-32.689466,-9.29376c0,0 0,0 0,0c0,-7.841984 5.956893,-14.219829 13.278005,-14.219829c7.325784,0 13.282671,6.377844 13.282671,14.21485c0,0 0,0 0,0l0,9.298739l-26.560676,0l0,-9.29376z" stroke-opacity="null" stroke-width="0" fill="#000000"/>
  <path stroke="#747474" id="svg_4" d="m212.762172,302.249488l9.117228,-4.822062c-0.179228,-1.786627 -0.525611,-3.519766 -0.958937,-5.223526l-10.127937,-1.40247c-0.876608,-2.111706 -2.034199,-4.070255 -3.394925,-5.86811l3.860633,-9.494886c-1.269447,-1.238032 -2.640399,-2.366759 -4.083347,-3.405356l-8.599932,5.398927c-2.016694,-1.060535 -4.189487,-1.866025 -6.470401,-2.383351l-3.107882,-9.628235c-0.881425,-0.066559 -1.762596,-0.13688 -2.66148,-0.13688s-1.777563,0.068696 -2.661638,0.13688l-3.077092,9.542949c-2.342056,0.500747 -4.562825,1.315594 -6.631356,2.389219l-8.466003,-5.31951c-1.441122,1.038597 -2.812017,2.167326 -4.081363,3.405356l3.75439,9.23262c-1.463279,1.87539 -2.688374,3.944614 -3.608531,6.174744l-9.808207,1.356481c-0.431497,1.701367 -0.779693,3.432668 -0.957076,5.223313l8.803107,4.657584c0.099734,2.451771 0.506222,4.827938 1.226024,7.06555l-6.64059,7.342473c0.772477,1.602206 1.632504,3.156005 2.627416,4.613765l9.776771,-2.098876c1.602975,1.744116 3.429295,3.272245 5.444269,4.535955l-0.370576,10.003093c1.605672,0.724179 3.273989,1.330258 4.993244,1.814709l6.185203,-7.950463c1.097446,0.140106 2.208757,0.234471 3.342255,0.234471c1.227934,0 2.428788,-0.110932 3.610305,-0.273263l6.217412,7.994568c1.721954,-0.483891 3.38773,-1.089938 4.993239,-1.814158l-0.377727,-10.182736c1.920535,-1.243357 3.662025,-2.730859 5.197344,-4.410295l10.031033,2.152375c0.994917,-1.457536 1.855062,-3.009681 2.62726,-4.613227l-6.855672,-7.582875c0.658567,-2.11946 1.026443,-4.356848 1.133544,-6.664755l-0.000003,0zm-15.153509,11.583014l-4.322636,2.814029l-2.65871,-4.084916c-1.3831,0.532001 -2.872166,0.855488 -4.441882,0.855488c-6.855642,0 -12.411501,-5.558043 -12.411501,-12.41262c0,-6.854856 5.555859,-12.410748 12.411501,-12.410748c6.853852,0 12.411741,5.555892 12.411741,12.410748c0,3.425436 -1.387642,6.521993 -3.630665,8.768715l2.642151,4.059305z" stroke-opacity="null" stroke-width="0" fill="#000000"/>
  <path transform="rotate(-69.65521240234375 67.99404144287105,234.2543029785156) " id="svg_6" d="m62.593098,223.610331c-0.136739,-0.205691 -0.306388,-0.407292 -0.522695,-0.561954c-0.925528,-0.674404 -2.231619,-0.468701 -2.910154,0.462098c-0.677382,0.933011 -0.463273,2.237089 0.464384,2.91339c0.842882,0.610761 1.967671,0.46432 2.68538,-0.254215l-19.693534,27.148415l-6.12244,22.223141l19.222864,-12.719789l43.777164,-60.348782l-13.105709,-9.505262l-4.224711,5.824558c-0.241683,-0.968922 -0.781331,-1.878625 -1.655942,-2.519009c-2.029212,-1.471338 -4.86614,-1.02625 -6.336576,1.007036c-8.426165,11.623912 -3.755063,14.719366 -11.578032,26.330373l0.000003,0zm-9.641117,36.335847l-9.888104,6.543366l3.148683,-11.441206l6.739424,4.89784l-0.000003,0zm11.648032,-36.927392c6.066199,-8.962549 5.488385,-11.392733 10.679999,-19.347911c0.858795,0.589356 1.844721,0.797253 2.81261,0.746225l-13.49261,18.60169l0,-0.000003z" stroke-opacity="null" stroke-width="0" stroke="#747474" fill="#000000"/>
  <path transform="rotate(28.310142517089844 179.821060180664,225.8381042480469) " stroke="#747474" id="svg_8" d="m213.158443,193.742071c0.4578,-2.038404 0.498409,-5.377195 0.092566,-7.427157l-1.343,-6.76822c-0.405787,-2.049949 -2.210391,-4.021134 -4.012524,-4.379869l-12.377241,-2.458171c-1.800829,-0.358731 -4.750609,-0.347023 -6.548895,0.026193l-13.407038,2.776078c-1.80211,0.373207 -4.75056,0.411108 -6.559,0.0875l-13.117929,-2.350416c0.016483,0.072903 0.045646,0.137137 0.059638,0.21004l8.978593,49.042167l4.108921,0.816381c1.802043,0.358778 4.747988,0.344112 6.550094,-0.026137l13.403229,-2.778993c1.798286,-0.370301 4.750583,-0.408188 6.559019,-0.084606l14.392388,2.580798c1.808439,0.323574 3.011972,-1.09947 2.682175,-3.169781l-1.611777,-10.031215c-0.332284,-2.067542 -0.229624,-5.423897 0.225674,-7.462305l1.925106,-8.602281l0,-0.000004zm-64.403976,-22.444784c-1.799496,0.437339 -2.94975,2.458141 -2.570569,4.52273l19.159502,104.642588l6.791063,0l-19.441035,-106.208496c-0.385518,-2.073364 -2.144487,-3.394302 -3.938957,-2.956821l-0.000004,0z" stroke-opacity="null" stroke-width="0" fill="#000000"/>
  <path transform="rotate(6.886599063873291 93.60836029052729,247.21841430664065) " id="svg_11" d="m114.020664,214.599872c-5.558875,-5.399503 -11.554427,-9.724844 -16.472629,-10.314518c-0.267744,-0.038249 -0.54505,-0.060561 -0.838294,-0.066936l-32.368334,0c-0.516363,0 -1.026352,0.200808 -1.389719,0.573737c-0.360179,0.363367 -0.573737,0.873355 -0.573737,1.392906l0,82.076278c0,0.516363 0.200808,1.010415 0.573737,1.386531c0.372929,0.369742 0.863793,0.57055 1.389719,0.57055l58.533932,0c0.516363,0 1.010415,-0.197621 1.383344,-0.57055c0.372929,-0.372929 0.580112,-0.86698 0.580112,-1.386531l0,-54.616583c-0.114747,-6.339795 -5.080761,-13.253327 -10.818131,-19.044884zm6.884845,71.688449l-54.607021,0l0,-78.149366l30.41444,0l0,0.006375c1.32597,-0.079686 2.470257,1.230347 3.3468,4.22653c0.796857,2.852748 0.997665,6.572477 0.994478,9.151107c0.006375,1.890145 -0.086061,3.158741 -0.086061,3.158741l-0.156184,2.078203l2.090953,0.022312c0.009562,0 4.832141,0.057374 9.562285,1.131537c4.545273,0.981728 8.099255,2.938809 8.430748,5.154071c0.01275,0.197621 0.015937,0.395241 0.01275,0.580112l0,52.640378l-0.003187,0z" stroke-opacity="null" stroke-width="0" stroke="#747474" fill="#000000"/>
  <path transform="rotate(88.32561492919922 168.8681030273438,394.6936950683594) " id="svg_12" d="m225.368114,436.156346l-30.308566,-30.308566c4.083107,-6.732874 6.47768,-14.609869 6.481933,-23.056797c-0.004253,-24.639002 -19.956188,-44.595189 -44.58243,-44.603696c-24.630495,0.008506 -44.590936,19.964694 -44.590936,44.599443c0,24.621989 19.960441,44.578176 44.590936,44.578176c8.451182,0 16.328177,-2.394572 23.061051,-6.47768l30.317073,30.31282l15.030939,-15.043699zm-95.991304,-53.369617c0.025519,-15.235095 12.347147,-27.552469 27.577988,-27.586495c15.222335,0.034026 27.552469,12.3514 27.577988,27.586495c-0.029773,15.226588 -12.355653,27.543962 -27.577988,27.577988c-15.230841,-0.034026 -27.552469,-12.3514 -27.577988,-27.577988z" stroke-opacity="null" stroke-width="0" stroke="#747474" fill="#000000"/>
  <path transform="rotate(12.808465957641602 65.43177795410156,91.13357543945311) " stroke="#747474" id="svg_14" d="m128.341985,172.983744c-4.434901,2.18124 -10.487176,7.27403 -15.173978,5.41074c-3.074248,-1.20603 -4.873174,-8.0349 -6.783186,-11.6295c-14.377623,-27.02109 -30.00346,-57.75457 -41.377122,-84.04776c0,-1.17306 -0.65316,-2.07999 0.317334,-3.67474c-6.36223,-9.8794 -10.681034,-20.73395 -17.632154,-31.72751c-2.201464,-3.49338 -4.441117,-8.34121 -7.528962,-9.73813l-5.702896,-2.27075c-7.249889,-1.77849 -12.545352,-1.71726 -17.600087,2.92095c-2.563077,2.365 -3.742252,6.2659 -6.221467,8.61444c-1.676592,1.60413 -8.064715,5.54974 -10.440224,4.93967c-1.845794,-0.47581 -3.366938,-2.24958 -4.660846,-4.49688l-4.505303,-7.9407c-1.262974,-2.25895 -1.981588,-4.43322 -1.392677,-6.16929c0.758071,-2.23543 7.716697,-5.18703 10.046481,-5.64873c3.418723,-0.69959 7.470856,0.49942 10.952569,-0.25439c6.842487,-1.50052 9.794622,-5.69347 12.189797,-12.47289c16.881525,-9.46715 39.609068,-15.62233 66.071556,-7.68161c7.178282,2.15537 14.059104,3.79016 18.777952,8.16925c0.945744,2.54399 -0.9248,3.0505 -2.886628,3.01982c1.534656,1.33331 4.013819,2.10594 2.582858,5.23652c-16.150531,-7.07622 -47.513344,-9.52131 -49.643116,4.96327c-0.465477,3.22481 2.556956,7.66509 4.415162,11.33275c5.858439,11.5707 13.016971,20.95776 18.208696,31.43782c1.929782,0.10366 2.369325,1.10947 3.399036,1.7714c16.85557,23.46412 35.285305,52.74187 51.137067,79.00444c2.11127,3.49333 7.107942,8.65683 6.486922,11.7685c-0.93219,4.76069 -8.603088,6.97734 -13.036773,9.16331l-0.00001,0z" stroke-width="0" fill="#000000"/>
  <path transform="rotate(-16.04721450805664 175.40582275390636,77.75086975097663) " stroke="#ffffff" id="svg_1" d="m229.0207,71.72496c9.657789,-11.103891 11.599063,-26.25688 6.345238,-39.000434l-19.388828,22.610044l-19.112619,-3.715952l-6.332946,-18.410917l19.339793,-22.557532c-13.303045,-3.346859 -27.958949,0.693691 -37.574194,11.753642c-10.140478,11.659888 -11.79998,27.806563 -5.523548,40.906865l-50.538725,58.117363c-5.377574,6.178895 -4.722451,15.550409 1.456489,20.925882c6.178934,5.371685 15.548578,4.722445 20.924285,-1.456518l50.479517,-58.060028c13.895504,4.47875 29.738145,0.600501 39.925544,-11.11241l-0.000005,-0.000005z" stroke-width="0" fill="#000000"/>
 </g>
</svg>